<?xml version="1.0" encoding="UTF-8" standalone="no"?>
<!-- Created with Inkscape (http://www.inkscape.org/) -->

<svg
   version="1.1"
   id="svg2"
   xml:space="preserve"
   width="600"
   height="600"
   viewBox="0 0 600 600"
   sodipodi:docname="gym.eps"
   xmlns:inkscape="http://www.inkscape.org/namespaces/inkscape"
   xmlns:sodipodi="http://sodipodi.sourceforge.net/DTD/sodipodi-0.dtd"
   xmlns="http://www.w3.org/2000/svg"
   xmlns:svg="http://www.w3.org/2000/svg"><defs
     id="defs6" /><sodipodi:namedview
     id="namedview4"
     pagecolor="#ffffff"
     bordercolor="#666666"
     borderopacity="1.0"
     inkscape:pageshadow="2"
     inkscape:pageopacity="0.0"
     inkscape:pagecheckerboard="0" /><g
     id="g8"
     inkscape:groupmode="layer"
     inkscape:label="ink_ext_XXXXXX"
     transform="matrix(1.3333333,0,0,-1.3333333,0,600)"><g
       id="g10"
       transform="scale(0.1)"><path
         d="M 4500,0 H 0 V 4500 H 4500 V 0"
         style="fill:#ffffff;fill-opacity:1;fill-rule:nonzero;stroke:none"
         id="path12" /><path
         d="m 2302.36,3779.41 c -7.22,9.51 -48.6,17.31 -35.88,-12.75 0.98,-2.19 9.91,-1.19 9.91,-1.19 7.75,8 11.58,5.9 23.24,5.88 l 0.37,-0.18 c 9.26,-3.76 14.12,0.24 15.9,6.66 10.47,-18.08 29.88,-34.85 42.64,-51.78 0.15,-0.23 0.35,-0.48 0.52,-0.7 0.9,-1.22 1.78,-2.44 2.6,-3.67 -0.02,0.07 -0.04,0.14 -0.06,0.21 0.02,-0.07 0.1,-0.15 0.14,-0.21 -0.12,0.29 -0.28,0.57 -0.39,0.86 -10.88,28.73 -35.43,83.23 -59.63,105.55 l 7.38,-18.93 c -7.38,18.93 0.76,-5.27 -0.1,-4.62 2.66,-10 2.76,-21.06 -6.64,-25.13"
         style="fill:#000000;fill-opacity:1;fill-rule:nonzero;stroke:none"
         id="path14" /><path
         d="m 2498.2,3686.55 2.29,-2.28 c -0.29,-1.52 -3.97,-0.4 -1.88,-4.27 16.37,14.05 21.45,33.82 3.93,49.84 17.21,9.48 20.35,27.86 -1.66,36.83 -0.55,25.84 20.19,11.44 24.65,-3 7.71,14.51 11.01,36.87 -2.29,50.68 -13.55,-10.6 -27.91,-40.64 -31.36,-57.19 -3.05,-14.64 2.53,-24.86 4.6,-38.2 1.65,-10.39 -0.64,-22.85 1.72,-32.41"
         style="fill:#000000;fill-opacity:1;fill-rule:nonzero;stroke:none"
         id="path16" /><path
         d="m 2367.54,4017.39 c -20.98,-3.12 -82.75,-0.21 -90.31,-25.06 -7.68,-48.54 39.31,-10.83 54.1,-1.71 9.51,5.87 60.6,12.84 66.83,12.65 16.41,-0.5 40.24,0.55 53.73,-25.77 -3.26,8.32 -13.49,26.32 -19.16,29.64 -12.91,17.91 -50.99,12.36 -65.19,10.25"
         style="fill:#000000;fill-opacity:1;fill-rule:nonzero;stroke:none"
         id="path18" /><path
         d="m 2479.98,3176.24 c 6.82,-35.08 80.65,-16.54 102.95,-11.96 49.39,10.17 94.61,14.13 143.53,4.56 98.27,-19.22 160.16,-87.02 202.54,-174.16 -14.12,41.86 -34.45,93.56 -63.45,126.99 -11.9,13.72 -25.77,23.18 -36.96,35.62 0.14,15.93 0.8,31.47 4.69,46.97 -6.4,-8.96 -15,-14.41 -22.99,-19.56 -63.22,-9.45 -127.32,12.57 -191.23,0.14 -29.98,-5.83 -57.13,-12.85 -88.96,-10.88 -37.33,2.31 -42.52,14.79 -56.45,44.88 -4.45,-20.08 12.25,-38.53 24.55,-51.72 l -18.22,9.12"
         style="fill:#000000;fill-opacity:1;fill-rule:nonzero;stroke:none"
         id="path20" /><path
         d="m 2144,3725.35 c 0.17,0.22 0.36,0.47 0.53,0.7 12.76,16.93 32.17,33.7 42.61,51.78 1.8,-6.42 6.66,-10.42 15.93,-6.66 l 0.36,0.18 c 11.67,0.02 30.7,-15.7 31.53,-6.63 2.61,-2.27 1.64,-0.14 2.61,2.05 10.93,26.91 -29.65,22.15 -36.88,12.64 -9.39,4.07 -9.29,15.13 -6.63,25.13 -0.86,-0.65 9.42,24.52 8.67,23.55 -24.18,-22.32 -50.15,-76.82 -61.01,-105.55 -0.12,-0.29 -0.28,-0.57 -0.4,-0.86 0.04,0.06 0.11,0.14 0.14,0.21 -0.02,-0.07 -0.05,-0.14 -0.07,-0.21 0.83,1.23 1.71,2.45 2.61,3.67"
         style="fill:#000000;fill-opacity:1;fill-rule:nonzero;stroke:none"
         id="path22" /><path
         d="m 1979.82,3814.35 c -13.29,-13.81 -9.99,-36.17 -2.27,-50.68 4.45,14.44 25.2,28.84 24.65,3 -22.01,-8.97 -18.86,-27.35 -1.66,-36.83 -17.52,-16.02 -12.45,-35.79 3.93,-49.84 2.1,3.87 -1.59,2.75 -1.87,4.27 l 2.28,2.28 c 2.35,9.56 0.08,22.02 1.71,32.41 2.09,13.34 7.68,23.56 4.6,38.2 -3.46,16.55 -17.8,46.59 -31.37,57.19"
         style="fill:#000000;fill-opacity:1;fill-rule:nonzero;stroke:none"
         id="path24" /><path
         d="m 2058.96,3986.17 c 3.11,3.61 6.8,6.74 11.25,8.99 7.29,3.68 15.16,5.54 23.08,5.58 30.75,10.78 67.31,-8.65 80.67,-17.07 26.82,-16.88 50.44,-39.66 42.78,8.87 -7.57,24.85 -69.32,21.95 -90.32,25.06 -14.2,2.12 -51.95,6.53 -64.87,-11.39 -7.1,-8.46 -17.14,-25.04 -19.34,-38.73 2.31,4.36 5.14,8.44 8.66,12.01 2.51,2.54 5.23,4.73 8.09,6.68"
         style="fill:#000000;fill-opacity:1;fill-rule:nonzero;stroke:none"
         id="path26" /><path
         d="m 2249.95,3708.22 c -17.37,2.96 -27.98,17.56 -50.18,10.49 -18.25,-5.8 -17.48,-23.18 -50.12,-18.86 9.57,-15.22 26.45,-18.83 40.73,-10.33 20.31,6.96 39.37,0.8 59.57,4.62 20.21,-3.82 42.63,5.45 62.96,-1.51 14.26,-8.5 26.5,-2.44 39.49,10.32 -19.78,2.12 -34.04,9.96 -52.28,15.76 -22.19,7.07 -32.8,-7.53 -50.17,-10.49"
         style="fill:#000000;fill-opacity:1;fill-rule:nonzero;stroke:none"
         id="path28" /><path
         d="m 2173.98,3674.99 c -0.02,-0.63 0.06,-1.2 0.07,-1.81 0.34,0.28 0.81,0.79 -0.07,1.81"
         style="fill:#000000;fill-opacity:1;fill-rule:nonzero;stroke:none"
         id="path30" /><path
         d="m 2174.07,3672.86 c 0,0.1 -0.02,0.21 -0.02,0.32 -0.23,-0.19 -0.36,-0.28 0.02,-0.32"
         style="fill:#000000;fill-opacity:1;fill-rule:nonzero;stroke:none"
         id="path32" /><path
         d="m 2173.98,3674.99 c 0.86,-0.47 1.1,-1.84 1.92,-2.23 -1.04,0.04 -1.56,0.06 -1.83,0.1 0.64,-29 31.91,-37.65 74.43,-35.62 39.41,1.89 70.43,-0.81 80.58,37.75 -16.42,-14.64 -35.45,-15.31 -80.41,-17.63 -16.5,2.02 -53.27,-1.18 -74.69,17.63"
         style="fill:#000000;fill-opacity:1;fill-rule:nonzero;stroke:none"
         id="path34" /><path
         d="m 1776.62,3168.84 c 48.92,9.57 94.13,5.61 143.52,-4.56 22.3,-4.58 96.15,-23.12 102.96,11.96 l -18.22,-9.12 c 12.29,13.19 29.01,31.64 24.54,51.72 -13.91,-30.09 -19.11,-42.57 -56.44,-44.88 -31.83,-1.97 -58.98,5.05 -88.96,10.88 -63.9,12.43 -128.01,-9.59 -191.23,-0.14 -8,5.15 -16.59,10.6 -23,19.56 3.89,-15.5 4.56,-31.04 4.69,-46.97 -11.2,-12.44 -25.06,-21.9 -36.96,-35.62 -28.99,-33.43 -49.32,-85.13 -63.44,-126.99 42.38,87.14 104.28,154.94 202.54,174.16"
         style="fill:#000000;fill-opacity:1;fill-rule:nonzero;stroke:none"
         id="path36" /><path
         d="m 1484.07,1288.28 c 1.24,-23.84 3.31,-40.57 18.85,-76.59 l 3.04,6.08 c 5.21,67.71 -5.76,103.29 -13.1,155.38 1.03,-35.87 -10.64,-48.92 -8.79,-84.87"
         style="fill:#000000;fill-opacity:1;fill-rule:nonzero;stroke:none"
         id="path38" /><path
         d="m 1352.26,1617.89 c 26.39,-62.11 45.77,-147.49 50.8,-224.82 -1.39,-24.25 -0.04,-46.65 0.26,-68.68 -0.21,-3.15 -0.36,-6.35 -0.63,-9.42 l 0.63,9.32 c 0.36,-26.06 -0.78,-51.62 -9.75,-79.18 25.07,54.13 28.32,100.88 23.64,173.15 -2.65,54.91 -32.67,140.72 -64.95,199.63"
         style="fill:#000000;fill-opacity:1;fill-rule:nonzero;stroke:none"
         id="path40" /><path
         d="m 2420.06,3702.95 c -1.13,20.49 -5.51,40.5 -0.41,60.64 5.17,20.44 19.82,42.91 18.63,64.5 -9.43,-22.25 -32.62,-49.71 -34.9,-73.19 1.64,-16.31 10.47,-36.65 16.68,-51.95"
         style="fill:#000000;fill-opacity:1;fill-rule:nonzero;stroke:none"
         id="path42" /><path
         d="m 2403.28,3754.13 c 0.02,0.26 0.08,0.52 0.1,0.77 -0.02,0.25 -0.08,0.51 -0.1,0.75 v -1.52"
         style="fill:#000000;fill-opacity:1;fill-rule:nonzero;stroke:none"
         id="path44" /><path
         d="m 2096.63,3754.13 v 1.52 c -0.03,-0.24 -0.09,-0.5 -0.11,-0.75 0.02,-0.25 0.08,-0.51 0.11,-0.77"
         style="fill:#000000;fill-opacity:1;fill-rule:nonzero;stroke:none"
         id="path46" /><path
         d="m 2080.24,3763.59 c 5.1,-20.14 0.72,-40.15 -0.41,-60.64 6.21,15.3 15.05,35.64 16.69,51.95 -2.28,23.48 -25.48,50.94 -34.9,73.19 -1.2,-21.59 13.46,-44.06 18.62,-64.5"
         style="fill:#000000;fill-opacity:1;fill-rule:nonzero;stroke:none"
         id="path48" /><path
         d="m 2141.55,4075.87 c 13.97,0.33 30.53,-2.2 48.43,-8.51 9,-2.97 18.08,-7.36 28.08,-11.4 4.98,-1.95 10.1,-3.81 15.59,-5 5.44,-1.21 11.48,-1.41 17.23,0.17 11.39,3.28 20.88,9.32 30.47,12.62 9.61,3.55 19.16,5.77 28.28,7.23 18.32,2.88 35.08,2.81 49.06,1.59 14.01,-1.24 25.27,-3.76 32.93,-6.37 7.7,-2.55 11.66,-5.38 11.66,-5.36 0,-0.02 -3.71,3.49 -11.29,7.17 -7.52,3.73 -18.75,7.79 -32.89,10.56 -14.12,2.75 -31.15,4.36 -50.1,2.55 -9.45,-0.95 -19.39,-2.78 -29.55,-6.16 -10.23,-3.23 -20.26,-9.22 -30.07,-11.98 -9.57,-2.7 -19.54,0.73 -29.28,4.13 -9.64,3.57 -19.29,7.69 -28.61,10.19 -18.6,5.38 -35.89,6.45 -50.15,4.59 -14.29,-1.81 -25.51,-6.05 -33.08,-9.38 -7.59,-3.36 -11.62,-5.83 -11.63,-5.78 0,-0.05 4.21,1.71 11.94,3.96 7.73,2.22 19.01,4.92 32.98,5.18"
         style="fill:#000000;fill-opacity:1;fill-rule:nonzero;stroke:none"
         id="path50" /><path
         d="m 2290.31,3185.91 c -21.7,-10.76 -57.74,-11.06 -76.89,-2.84 v -4.56 c 10.42,-46.77 71.87,-34.66 76.89,7.4"
         style="fill:#000000;fill-opacity:1;fill-rule:nonzero;stroke:none"
         id="path52" /><path
         d="m 1438.85,1424.34 c 7.66,-60.88 7.66,-60.88 6.08,-91.14 -0.08,-1.4 -0.21,-3.02 -0.37,-4.78 -0.28,-2.86 -0.67,-6.23 -1.13,-9.84 -0.03,-0.01 -0.07,-0.02 -0.1,-0.02 -1.07,-7.54 -2.5,-15.92 -3.79,-24.39 0.2,0.03 0.38,0.08 0.57,0.1 -4.26,-30.59 -9.02,-67.2 -3.83,-78.86 24.13,24.95 24.46,145.2 5.61,196.77 l -3.04,12.16"
         style="fill:#000000;fill-opacity:1;fill-rule:nonzero;stroke:none"
         id="path54" /><path
         d="m 2368.44,3898.62 c -0.48,-0.24 -3.16,-0.32 -0.89,0.32 9,1.99 16.05,9.44 15.07,18.5 5.32,0 21.05,-4.6 30.27,-9.97 -6.78,-5.76 -34.45,-12.52 -44.45,-8.85 z m -55.59,10.42 c 2.35,7.05 22.39,7.84 28.76,8.4 3.26,-7.76 3.06,-14.69 14.24,-17.4 -13.54,-2.11 -35.05,2.79 -43,9 z m 2.46,-16.74 c -0.19,0.61 -0.43,1.29 -0.66,2.14 0.31,-0.15 0.55,-1.47 0.66,-2.14 z m -20.99,14.36 c -0.04,0 -0.08,0.01 -0.14,0.02 0.06,-0.01 0.1,-0.01 0.14,-0.02 z m 136.36,-1.44 c -53,50.96 -130.48,16.03 -130.48,16.03 17.98,23.38 74.16,29.14 112.05,11.08 -26.78,42.41 -116.14,21.33 -118.56,-18.63 -0.08,-1.27 -0.08,-2.57 0.04,-3.9 0,0 0.41,-4.83 0.61,-4.4 0.43,-3.9 2.05,-7.43 4.31,-10.56 1.02,-1.74 2.27,-3.41 3.69,-5 l -0.07,0.06 c 6.42,-9.63 16.4,-15.19 27.12,-18.53 1.06,-0.58 2.07,-1.15 3.07,-1.72 -0.39,0.35 -0.74,0.74 -1.13,1.09 7.07,-2 27.89,-9.33 34.72,-9.92 -10.7,2.83 -35.64,15.63 -45.99,23.54 -2.48,4 -3.46,4.45 -4.65,7.71 -0.02,0.26 -0.06,0.86 -0.14,2.07 15.67,-13.89 61.68,-5.62 61.49,-6.8 27.4,3.22 27.4,3.22 49.84,16.66 2.4,0.18 3.44,0.55 4.08,1.22"
         style="fill:#000000;fill-opacity:1;fill-rule:nonzero;stroke:none"
         id="path56" /><path
         d="m 2367.55,3898.94 c 0.25,-0.13 0.6,-0.21 0.89,-0.32 0.2,0.09 0.08,0.21 -0.89,0.32"
         style="fill:#000000;fill-opacity:1;fill-rule:nonzero;stroke:none"
         id="path58" /><path
         d="m 2129.1,3902.91 c 0.3,0.1 0.64,0.18 0.89,0.3 -0.97,-0.1 -1.09,-0.21 -0.89,-0.3"
         style="fill:#000000;fill-opacity:1;fill-rule:nonzero;stroke:none"
         id="path60" /><path
         d="m 2116.2,3920.6 c -0.97,-8.76 4.8,-15.46 13.79,-17.39 2.26,-0.62 -0.39,-0.53 -0.89,-0.3 -10,-3.55 -38.02,2.53 -44.79,8.11 9.21,5.19 21.24,5.71 31.89,9.58 z m 39.77,-10.28 c 4.02,2.97 2.92,10.59 2.92,10.59 6.39,-0.65 18.98,-3.11 25.45,-8.91 -6.94,-5.66 -24.65,-9.77 -37.26,-9.44 7.2,4.96 7.2,4.96 8.89,7.76 z m 25.19,-18.02 c 0.12,0.67 0.36,1.99 0.68,2.14 -0.25,-0.85 -0.46,-1.53 -0.68,-2.14 z m 21,14.36 c 0.04,0.01 0.09,0.01 0.14,0.02 -0.04,-0.01 -0.1,-0.02 -0.14,-0.02 z m -20.96,-12.52 c -0.08,-1.21 -0.12,-1.81 -0.13,-2.07 -1.18,-3.26 -2.16,-3.71 -4.65,-7.71 -10.36,-7.91 -35.29,-20.71 -46.01,-23.54 6.85,0.59 27.68,7.92 34.75,9.92 -0.39,-0.35 -0.74,-0.74 -1.14,-1.09 0.99,0.57 2.02,1.14 3.06,1.72 10.74,3.34 20.7,8.9 27.15,18.53 l -0.09,-0.06 c 1.44,1.59 2.68,3.26 3.68,5 2.27,3.13 3.88,6.66 4.33,10.56 0.2,-0.43 0.6,4.4 0.6,4.4 3.41,42.43 -68.77,65 -118.52,22.53 37.9,18.06 94.07,12.3 112.05,-11.08 0,0 -77.92,34.82 -130.48,-16.03 0.64,-0.67 1.68,-1.04 4.08,-1.22 22.44,-13.44 22.44,-13.44 49.85,-16.66 -0.2,1.18 45.82,-7.09 61.47,6.8"
         style="fill:#000000;fill-opacity:1;fill-rule:nonzero;stroke:none"
         id="path62" /><path
         d="m 2052.51,3903.8 c -0.92,0.28 -10.3,7.28 -20.62,42.53 1.82,-12.87 5.51,-70.55 10.32,-81.69 0.56,9.08 0,37.25 10.3,39.16"
         style="fill:#000000;fill-opacity:1;fill-rule:nonzero;stroke:none"
         id="path64" /><path
         d="m 2133.98,3715.69 c -31.41,-47.82 -9.4,-78.73 15.67,-95.65 0,0 -17.22,27.29 -18.41,49.02 -1.04,18.69 2.74,46.63 2.74,46.63"
         style="fill:#000000;fill-opacity:1;fill-rule:nonzero;stroke:none"
         id="path66" /><path
         d="m 2450.57,3903.8 c 10.31,-1.91 9.74,-30.08 10.31,-39.16 4.8,11.14 8.5,68.82 10.29,81.69 -0.76,-2.62 -3.71,-11.6 -11.6,-26.06 0,0 -7.52,-9.19 -11.64,-16.47 h 2.64"
         style="fill:#000000;fill-opacity:1;fill-rule:nonzero;stroke:none"
         id="path68" /><path
         d="m 2371.86,3669.06 c -1.22,-21.73 -18.42,-49.02 -18.42,-49.02 25.08,16.92 47.07,47.83 15.66,95.65 0,0 3.77,-27.94 2.76,-46.63"
         style="fill:#000000;fill-opacity:1;fill-rule:nonzero;stroke:none"
         id="path70" /><path
         d="m 2200.94,3539.89 2.59,-1.3 c 10.44,-2.52 25.64,-8.98 35.89,-3.97 10.7,5.21 6.21,12 20.78,12.78 10.64,0.58 14.53,-13.08 26.21,-12.72 7.79,0.24 33.43,6.24 38.79,12.53 -34.89,0 -39.36,15.22 -62.13,15.22 -22.64,0 -41.53,-22.28 -62.13,-22.54"
         style="fill:#000000;fill-opacity:1;fill-rule:nonzero;stroke:none"
         id="path72" /><path
         d="m 2248.6,4099.07 c 25.25,0 45.72,2.03 45.72,4.53 0,2.5 -20.47,4.53 -45.72,4.53 -25.26,0 -45.72,-2.03 -45.72,-4.53 0,-2.5 20.46,-4.53 45.72,-4.53"
         style="fill:#000000;fill-opacity:1;fill-rule:nonzero;stroke:none"
         id="path74" /><path
         d="m 4236.21,940.289 c -1.33,-4.937 -85.92,27.961 -101.89,33.141 -19.75,-49.91 -70.45,-165.7 -104.61,-213.168 20.33,38.758 37.26,78.808 51.27,117.5 12.3,29.34 23.43,61.578 32.81,95.976 12.83,47.172 20.92,93.682 24.08,136.482 38.56,-18.97 77.76,-36.54 116.29,-55.58 1.23,-0.62 2.42,-0.97 3.63,-1.35 -1.83,-17.26 -4.47,-35.36 -8.02,-54.188 6.62,34.828 10.15,67.208 10.99,96.118 -3.3,67.86 -6.07,118.15 -60.88,126.09 -18.32,7.91 -13.12,0.24 -47.71,8.43 1.35,12.4 1.03,10.3 1.97,22.26 1.06,-0.28 2.15,-0.58 3.2,-0.87 26.66,-7.27 50.63,-14.14 60.98,-16.59 56,-13.23 61.11,-135.51 17.89,-294.251 z m -265.92,268.321 c -29.59,-117.99 -83.26,-342.489 -163.53,-489.11 21.15,51.5 41.33,107.121 59.76,164.352 18.46,49.789 35.49,104.168 50.26,161.738 2.03,7.88 3.82,15.83 5.72,23.76 15.06,58.21 26.7,115.23 30.68,163.42 9.85,55.64 16,95.56 20.8,145.23 0.14,1.19 0.26,2.39 0.4,3.57 0.33,-0.13 0.8,-0.3 1.65,-0.58 53.68,-18.1 103.4,-36.69 153.31,-53.9 1.56,-0.54 3.02,-0.85 4.47,-1.02 -0.02,-31.95 -5.02,-134.69 -8.81,-171.07 v 0 c -1.35,0.45 -128.75,37.78 -154.71,53.61 z M 3555.37,641.68 c 0,0.011 0,0.011 0.02,0.019 56.33,128.86 110.84,294.332 152.05,454.971 44.55,173.69 74.77,341.05 86.49,477.27 50.15,-13.68 159.6,-45.43 163.98,-44.08 1.21,-65.08 -4.84,-147.41 -19.28,-242.1 -26.35,11.43 -113.2,53.88 -139.74,64.78 -22.95,-156.88 -201.92,-644.149 -243.52,-710.86 z m 142.19,511.85 c -4.12,-16.95 -8.32,-33.96 -12.7,-51.06 -6.5,-25.35 -13.12,-50.16 -19.86,-74.41 11.21,42.49 22.13,84.58 32.56,125.47 z M 3402.19,801.891 c -48.44,-129.09 -100.73,-237.969 -148.85,-297.661 39.02,48.989 78.44,130.489 118.4,232.692 45.31,115.859 91.35,258.348 138.28,410.368 29.14,94.4 51.89,192.21 67.81,285.18 28.97,139.46 29.06,207.42 26.52,248.18 0.43,14.44 0.57,28.36 0.47,41.79 57.64,-8.67 112.17,-29.81 167.27,-48.46 1.33,-0.45 2.62,-0.71 3.85,-0.88 -0.22,-16.68 -0.88,-34.73 -2.03,-54.34 -0.47,-7.84 -1.04,-15.84 -1.63,-23.93 -0.23,-2.82 -0.44,-5.67 -0.68,-8.52 -0.43,-5.33 -0.9,-10.73 -1.37,-16.17 -0.31,-3.43 -0.62,-6.84 -0.93,-10.3 -0.51,-5.32 -1.08,-10.74 -1.64,-16.15 -0.75,-7.27 -1.55,-14.63 -2.41,-22.06 -0.35,-3.09 -0.7,-6.16 -1.07,-9.28 -0.7,-5.85 -1.45,-11.75 -2.19,-17.7 -0.27,-2.04 -0.53,-4.09 -0.78,-6.14 -1.82,-13.89 -3.77,-27.97 -5.88,-42.3 -47.56,25.25 -63.36,36.69 -125.62,60.11 -34.14,-244.21 -166.53,-567.398 -227.52,-704.429 z m -167.41,351.799 c -6.34,1.23 -12.77,2.46 -19.25,3.67 0.13,0.6 0.27,1.19 0.43,1.78 -4.11,0.9 -8.21,1.75 -12.29,2.62 0.59,5.63 0.76,11.69 0.63,18.01 20.91,-4.83 41.79,-9.81 62.52,-15.27 33.26,-8.69 66.34,-18.37 99.9,-27.81 -2.37,-3.96 -4.88,-7.51 -7.56,-10.49 -41.25,10.16 -82.64,19.78 -124.06,28.87 -0.1,-0.45 -0.22,-0.93 -0.32,-1.38 z m -30.62,-139.91 c -8.07,-49.382 -16.91,-100.71 -27.5,-154.659 -13.75,-79.031 -30.51,-162.609 -36.89,-244.711 -0.59,25.289 -0.06,54.539 1.93,88.199 7.15,121.02 31.31,272.442 68.73,433.131 6.56,-1.39 13.1,-2.79 19.63,-4.21 -7.87,-36.88 -16.35,-75.88 -25.9,-117.75 z m -63.71,-417.139 c 0.47,-9.789 1.13,-18.911 1.97,-27.352 -0.84,8.441 -1.5,17.563 -1.97,27.352 z m 30.1,566.429 c -1.96,-1.84 -4.16,-3.32 -6.55,-4.46 -2.79,-0.69 -7.83,-1.51 -13.57,-2.36 12.95,21.26 1,57.16 -10.66,83.01 -0.3,0.67 -0.9,-59.86 -1.24,-59.2 -0.23,-7.33 -1.83,-12.79 -4.37,-16.56 -0.33,0.28 -0.68,0.52 -1,0.85 -0.27,-1.13 -0.72,-2.27 -1.09,-3.38 -8.03,-7.93 -21.91,-3.66 -32.54,10.2 -18.55,17.36 -35.8,-21.61 -75.55,-9.81 -30.64,35.87 -55.78,8.3 -75.19,11.95 -3.71,0.7 -6.91,1.56 -9.9,2.49 -1.51,1.26 -3.23,2.67 -5.51,4.4 -6.76,5.08 -12.7,9.5 -18.01,13.39 -4.1,8.8 -3.73,19.05 -5.33,28.77 0.35,10.06 4.53,120.26 19.9,179.09 -6.85,-8.17 -14.14,-13.38 -20.88,-27.1 -1.52,-5.5 -2.95,-11.5 -4.22,-18.18 -29.24,2.42 -31.81,3.01 -38.77,4.7 -2.2,0.53 -4.84,1.17 -8.9,2.02 10.15,27.15 25.74,60.22 43.14,83.23 7.95,10.53 18.34,19.02 28.69,27.33 14.26,16.09 29.98,34.19 37.99,46.03 1.39,2.05 2.62,3.98 3.48,5.6 1.37,-26.36 1.35,-51.31 -0.72,-73.85 19.08,64.05 21.48,174.18 15.29,237.3 -0.74,7.47 -1.82,15.16 -3.09,23 -0.02,-0.03 -0.02,-0.05 -0.06,-0.07 0,-0.01 0,-0.01 -0.01,-0.02 -0.1,0.63 -0.22,1.26 -0.32,1.88 -0.35,1.88 -0.7,3.75 -1.05,5.65 -0.43,2.28 -0.86,4.56 -1.29,6.86 -0.57,3.01 -1.13,6.04 -1.7,9.07 -0.2,1.09 -0.41,2.17 -0.61,3.25 -0.66,3.59 -1.31,7.18 -1.93,10.79 -0.02,0.01 -0.02,0.03 -0.02,0.03 -0.58,3.43 -1.15,6.86 -1.72,10.28 -0.15,1.07 -0.31,2.15 -0.49,3.21 -0.37,2.53 -0.74,5.05 -1.09,7.57 -0.16,1.13 -0.31,2.24 -0.45,3.36 -0.45,3.4 -0.86,6.8 -1.21,10.18 -0.02,0.19 -0.04,0.4 -0.06,0.6 -0.33,3.34 -0.6,6.68 -0.84,10 -0.06,1.06 -0.12,2.12 -0.17,3.19 -0.14,2.49 -0.24,4.98 -0.3,7.46 -0.04,1.09 -0.06,2.18 -0.08,3.26 -0.03,3.32 -0.02,6.61 0.1,9.89 0.02,0.21 0.02,0.44 0.04,0.65 0.12,3.23 0.35,6.43 0.66,9.61 0.1,1.06 0.24,2.1 0.36,3.14 0.27,2.38 0.58,4.75 0.97,7.1 0.18,1.04 0.35,2.09 0.53,3.11 0.59,3.15 1.25,6.27 2.05,9.36 0.04,0.09 0.04,0.19 0.08,0.3 0.23,-0.93 0.47,-1.89 0.7,-2.82 2.21,-8.95 4.48,-17.97 6.78,-27.08 2.42,-9.6 4.84,-19.32 7.23,-29.05 0.47,-1.86 0.91,-3.72 1.36,-5.58 2.27,-9.31 4.48,-18.66 6.57,-28.02 0.31,-1.41 0.6,-2.82 0.93,-4.23 1.19,-5.5 2.27,-11.01 3.38,-16.51 0.14,0.17 0.26,0.35 0.37,0.53 v -0.01 c 0.82,-4.53 1.64,-9.07 2.37,-13.61 7.95,-49.94 -3.69,-103.54 26.52,-145.43 0,0.01 0,0.01 0,0.01 l 0.02,-0.01 c -8.05,55.42 -1.02,115.44 -3.52,172.8 -0.29,6.34 -0.8,12.65 -1.42,18.92 0.21,0.29 0.45,0.58 0.66,0.86 -0.08,0.65 -0.13,1.28 -0.23,1.93 -0.24,1.34 -0.43,2.69 -0.67,4.05 -0.91,5.71 -1.95,11.43 -3.06,17.11 -0.24,1.26 -0.51,2.5 -0.76,3.74 -1.16,5.63 -2.37,11.28 -3.66,16.89 -0.17,0.74 -0.35,1.51 -0.52,2.25 -1.29,5.56 -2.64,11.13 -4.01,16.69 -0.35,1.38 -0.68,2.77 -1.03,4.15 -1.37,5.45 -2.76,10.9 -4.14,16.35 -1.8,7.04 -3.62,14.09 -5.39,21.15 -0.14,0.58 -0.28,1.18 -0.41,1.76 -1.64,6.47 -3.23,12.95 -4.75,19.46 -1.82,7.77 -3.53,15.56 -5.12,23.43 -1.48,7.47 -2.81,14.81 -3.96,22.04 -0.35,2.16 -0.57,4.23 -0.88,6.35 -0.74,5.05 -1.5,10.09 -2.07,15.03 -0.31,2.71 -0.49,5.35 -0.76,8.04 -0.41,4.25 -0.9,8.54 -1.19,12.72 -0.2,2.7 -0.26,5.35 -0.38,8.01 -0.11,2.04 -0.21,4.09 -0.31,6.11 -0.1,2.02 -0.23,4.05 -0.29,6.03 0,0.02 0,0.05 0,0.08 -0.06,3.14 0.02,6.24 0,9.37 0,1.22 0.02,2.44 0,3.68 0,2.24 -0.04,4.49 0.02,6.7 0.08,3.27 0.33,6.47 0.49,9.71 0.15,3.23 0.23,6.47 0.47,9.67 0.25,3.4 0.66,6.77 1.01,10.15 0.29,2.94 0.51,5.92 0.86,8.83 0.02,0.03 0.02,0.05 0.02,0.05 0.23,1.95 0.57,3.88 0.86,5.81 0.25,1.56 0.47,3.12 0.7,4.68 0.41,2.78 0.76,5.56 1.23,8.3 v 0.01 c 0.08,0.39 0.18,0.74 0.24,1.12 0.56,3.11 1.23,6.22 1.87,9.33 0.53,2.72 1.02,5.44 1.62,8.16 0.24,1.07 0.53,2.16 0.8,3.23 0.63,2.54 1.25,5.1 1.9,7.64 0.19,0.77 0.39,1.55 0.59,2.32 0.42,1.78 0.83,3.56 1.32,5.32 1.04,3.86 2.25,7.71 3.42,11.56 0.68,2.28 1.31,4.55 2.03,6.83 1.35,4.25 2.87,8.51 4.36,12.77 0.66,1.92 1.29,3.85 1.99,5.79 1.56,4.27 3.26,8.57 4.96,12.87 0.74,1.89 1.43,3.77 2.19,5.66 0,0.02 0,0.02 0.02,0.04 1.27,3.18 2.67,6.39 4.06,9.58 0.59,1.38 1.17,2.74 1.76,4.12 0.74,1.69 1.4,3.35 2.15,5.05 0.19,0.41 0.41,0.84 0.58,1.27 2.05,4.53 4.18,9.12 6.35,13.7 0.63,1.3 1.19,2.59 1.82,3.92 0.25,0.52 0.54,1.09 0.8,1.62 2.52,5.19 5.09,10.41 7.77,15.66 0.33,0.67 0.64,1.33 1,1.99 8.55,8.52 21.93,24.52 34.74,39.18 9.87,11.29 19.4,21.8 26.14,27.49 -5.49,-1.03 -17.02,-10.91 -28.17,-20.57 -7.64,-5.08 -14.88,-10.84 -21.97,-16.89 -0.02,0.58 -0.18,1.15 -0.25,1.71 v 0 c -0.08,0.59 -0.14,1.17 -0.26,1.76 0,0 0,0 0,0.01 -0.12,0.52 -0.31,1.03 -0.47,1.53 -0.09,0.28 -0.15,0.57 -0.25,0.83 -0.14,0.38 -0.2,0.79 -0.35,1.17 6.56,15.05 11.05,30.79 10.95,48.18 -0.33,-0.67 -0.64,-1.39 -0.95,-2.06 v 0.01 c 0.37,2.21 0.76,4.37 1.13,6.61 -7.25,-15.14 -13.83,-33.16 -21.66,-51.28 l -0.02,-0.01 c -4.36,-7.61 -12.66,-19.11 -18.4,-27.92 -0.15,-0.23 -0.33,-0.51 -0.49,-0.74 -0.86,-1.32 -1.66,-2.59 -2.38,-3.75 -2.52,-2.42 -5.04,-4.9 -7.36,-7.49 -2.46,-1.24 -4.89,-2.25 -7.33,-3.14 -0.7,-0.27 -1.42,-0.48 -2.13,-0.71 -1.77,-0.6 -3.55,-1.08 -5.31,-1.49 -0.72,-0.16 -1.44,-0.36 -2.15,-0.49 -2.3,-0.43 -4.59,-0.75 -6.85,-0.91 -0.08,0 -0.14,-0.01 -0.22,-0.02 -0.06,0 -0.1,0 -0.15,0 -2.27,-0.14 -4.5,-0.09 -6.72,0.07 -0.59,0.03 -1.17,0.06 -1.74,0.13 -2.25,0.22 -4.47,0.5 -6.68,0.98 -0.2,0.04 -0.39,0.11 -0.59,0.14 -2.05,0.47 -4.1,1.07 -6.15,1.76 -0.54,0.17 -1.09,0.35 -1.64,0.55 -2.17,0.79 -4.32,1.65 -6.43,2.67 -0.27,0.14 -0.54,0.29 -0.82,0.43 -1.91,0.94 -3.82,1.99 -5.72,3.1 -0.51,0.31 -1.01,0.61 -1.52,0.91 -2.07,1.3 -4.14,2.67 -6.17,4.14 -0.34,0.25 -0.65,0.51 -0.98,0.76 -1.82,1.34 -3.59,2.75 -5.35,4.23 -0.47,0.39 -0.94,0.78 -1.41,1.18 -1.97,1.7 -3.94,3.49 -5.88,5.37 -0.37,0.35 -0.72,0.72 -1.07,1.07 -1.68,1.67 -3.36,3.4 -5.02,5.18 -0.41,0.45 -0.84,0.88 -1.25,1.34 -1.89,2.08 -3.75,4.22 -5.59,6.42 -0.39,0.44 -0.74,0.91 -1.11,1.36 -1.6,1.95 -3.18,3.95 -4.75,5.99 -0.35,0.47 -0.7,0.93 -1.07,1.41 -1.78,2.36 -3.54,4.77 -5.25,7.23 -0.39,0.54 -0.76,1.09 -1.14,1.65 -1.5,2.15 -2.98,4.36 -4.45,6.59 -0.29,0.47 -0.6,0.94 -0.92,1.4 -1.66,2.58 -3.3,5.2 -4.9,7.86 -0.37,0.59 -0.72,1.19 -1.09,1.8 -1.43,2.38 -2.84,4.77 -4.22,7.19 -0.24,0.42 -0.47,0.82 -0.71,1.22 -1.54,2.72 -3.06,5.48 -4.53,8.25 -0.35,0.65 -0.7,1.31 -1.07,1.97 -1.35,2.55 -2.68,5.1 -3.97,7.67 -0.15,0.3 -0.31,0.59 -0.46,0.89 -1.43,2.82 -2.82,5.65 -4.18,8.49 -0.32,0.66 -0.63,1.31 -0.94,1.98 -1.29,2.71 -2.56,5.42 -3.81,8.12 -0.06,0.14 -0.12,0.28 -0.18,0.42 -1.3,2.88 -2.57,5.72 -3.8,8.57 -0.26,0.59 -0.53,1.19 -0.79,1.78 -1.21,2.83 -2.4,5.65 -3.57,8.43 -0.45,1.1 -0.84,2.15 -1.29,3.24 -0.35,0.89 -0.72,1.78 -1.09,2.69 -1.25,3.17 -2.46,6.28 -3.64,9.36 -0.33,0.85 -0.66,1.7 -0.95,2.54 -1.17,3.08 -2.27,6.08 -3.32,9.03 -0.26,0.76 -0.55,1.54 -0.82,2.29 -1.25,3.59 -2.46,7.09 -3.56,10.44 -2.91,8.81 -5.25,16.75 -6.97,23.29 -1.7,6.51 -3.18,12.97 -4.59,19.4 -0.22,1.08 -0.41,2.15 -0.65,3.21 -0.15,0.82 -0.33,1.65 -0.48,2.48 -0.98,4.76 -1.86,9.5 -2.66,14.24 -0.1,0.69 -0.21,1.39 -0.33,2.09 -0.2,1.2 -0.41,2.39 -0.59,3.59 0,0.01 0,0.02 0,0.02 -0.86,5.59 -1.62,11.17 -2.26,16.73 0,0.01 0,0.04 0,0.05 -0.08,0.69 -0.2,1.41 -0.28,2.11 0,0.05 0,0.1 -0.02,0.15 -0.72,6.76 -1.31,13.48 -1.7,20.2 -0.01,0.26 -0.03,0.54 -0.03,0.81 -0.38,6.32 -0.59,12.61 -0.69,18.88 0,0.88 0,1.75 -0.02,2.62 -0.04,6.23 0.04,12.45 0.26,18.64 0,0.01 0,0.03 0,0.03 0,0.06 0,0.11 0.02,0.16 0,0.19 0,0.36 0.02,0.53 0.52,13.59 1.69,27.09 3.49,40.5 l 2.13,4.23 c -0.59,-0.64 -1.19,-1.22 -1.78,-1.85 2.03,14.46 4.77,28.82 8.21,43.1 0.07,0.36 0.17,0.7 0.25,1.06 0.02,0.05 0.04,0.1 0.04,0.15 1.46,6.06 3.1,12.09 4.82,18.13 0,0.01 0,0.03 0.02,0.05 0.1,0.41 0.24,0.82 0.35,1.23 0.3,1.02 0.59,2.05 0.88,3.08 1.92,6.51 3.95,13.01 6.16,19.49 2.34,0.05 4.74,0.01 7.22,-0.08 0.82,-0.03 1.68,-0.1 2.52,-0.14 1.64,-0.09 3.3,-0.17 5,-0.31 1.04,-0.08 2.07,-0.21 3.13,-0.31 1.54,-0.16 3.08,-0.31 4.68,-0.5 1.12,-0.14 2.25,-0.31 3.38,-0.46 1.53,-0.23 3.05,-0.43 4.61,-0.68 1.17,-0.19 2.37,-0.4 3.56,-0.62 1.52,-0.26 3.02,-0.54 4.57,-0.83 1.21,-0.24 2.44,-0.51 3.67,-0.77 1.5,-0.31 3.03,-0.63 4.51,-0.97 1.25,-0.29 2.5,-0.59 3.75,-0.89 1.51,-0.37 2.99,-0.74 4.47,-1.13 1.25,-0.32 2.5,-0.66 3.75,-1 1.49,-0.41 2.97,-0.83 4.48,-1.26 1.19,-0.36 2.42,-0.73 3.63,-1.1 1.5,-0.46 2.99,-0.93 4.47,-1.41 1.19,-0.39 2.36,-0.78 3.52,-1.17 1.48,-0.5 2.95,-1.02 4.39,-1.53 1.15,-0.41 2.31,-0.82 3.44,-1.25 1.44,-0.54 2.87,-1.1 4.3,-1.66 1.09,-0.42 2.16,-0.85 3.24,-1.29 1.44,-0.59 2.83,-1.19 4.24,-1.81 0.99,-0.43 2.01,-0.86 2.98,-1.29 1.45,-0.65 2.84,-1.33 4.24,-1.99 0.86,-0.42 1.76,-0.83 2.62,-1.24 1.52,-0.77 2.99,-1.54 4.45,-2.33 0.65,-0.34 1.33,-0.68 1.96,-1.02 2.05,-1.14 4.04,-2.29 5.91,-3.45 1.94,-1.2 3.77,-2.4 5.51,-3.61 48.95,-34.47 35.9,-81.49 63.4,-126.95 v 0.01 0 c -0.66,13.8 -2.23,27.84 -3.55,41.89 -0.06,0.48 -0.1,0.97 -0.16,1.45 -0.18,1.96 -0.35,3.92 -0.51,5.87 -0.09,1.22 -0.21,2.44 -0.31,3.66 -0.12,1.64 -0.23,3.28 -0.35,4.92 -0.1,1.41 -0.2,2.83 -0.28,4.24 -0.07,1.52 -0.17,3.04 -0.23,4.56 -0.06,1.51 -0.12,3.02 -0.17,4.52 -0.04,1.45 -0.06,2.89 -0.1,4.32 0,1.57 0,3.14 0,4.7 0,1.38 0.04,2.77 0.06,4.16 0.04,1.6 0.11,3.2 0.19,4.79 0.08,1.34 0.16,2.69 0.25,4.02 0.12,1.65 0.3,3.28 0.45,4.92 0.14,1.28 0.28,2.56 0.43,3.83 0.24,1.7 0.53,3.4 0.8,5.09 0.2,1.2 0.38,2.4 0.61,3.6 0.37,1.79 0.8,3.58 1.23,5.36 0.27,1.08 0.49,2.17 0.78,3.24 0.55,2.02 1.19,4.02 1.86,6.02 0.27,0.83 0.51,1.66 0.78,2.49 1.01,2.83 2.13,5.64 3.4,8.42 1.29,2.87 2.73,5.7 4.31,8.52 1.68,2.97 3.38,5.91 5.08,8.84 2.76,4.7 5.53,9.35 8.32,13.97 0.02,0.03 0.04,0.06 0.04,0.09 0.1,0.13 0.16,0.25 0.26,0.39 0.82,1.35 1.62,2.71 2.44,4.06 5.29,8.71 10.56,17.33 15.68,26 0.25,0.42 0.51,0.85 0.74,1.27 0.33,0.56 0.65,1.11 0.98,1.67 0.78,1.34 1.58,2.67 2.36,4.01 0,0.01 0,0.02 0,0.02 0.59,1 1.13,2.01 1.7,3.01 1.07,1.86 2.13,3.72 3.18,5.59 0.28,0.51 0.55,1.04 0.84,1.56 1.16,2.09 2.29,4.18 3.4,6.3 0.16,0.28 0.32,0.55 0.47,0.83 0.76,1.45 1.49,2.93 2.25,4.39 0,0.04 0.02,0.06 0.04,0.09 2.65,5.21 5.21,10.49 7.61,15.87 0.36,0.83 0.73,1.66 1.1,2.49 0.58,1.36 1.19,2.69 1.78,4.06 0.35,0.84 0.66,1.7 0.99,2.55 0.37,0.96 0.76,1.91 1.13,2.88 0.39,0.99 0.78,1.98 1.2,2.98 0.11,0.32 0.25,0.62 0.37,0.94 0.41,1.14 0.8,2.31 1.19,3.47 0.74,2.02 1.48,4.05 2.15,6.11 0.02,0.01 0.02,0.01 0.02,0.02 0.17,0.6 0.35,1.21 0.54,1.82 1.86,5.89 3.56,11.91 4.98,18.13 1.25,-4.33 2.33,-8.76 3.28,-13.22 0.43,-1.96 0.83,-3.92 1.22,-5.88 0.35,-1.93 0.66,-3.86 0.97,-5.79 0.9,-5.65 1.64,-11.3 2.11,-16.85 0,-0.01 0,-0.02 0,-0.04 v 0 c 0.25,-12.14 -0.02,-24.23 0.78,-33.87 11.37,19.46 22.64,64.63 14.18,91.27 0,0.01 0,0.01 0,0.01 0.55,-0.73 1.1,-1.47 1.64,-2.21 0.41,-0.54 0.8,-1.08 1.21,-1.62 0.84,-1.14 1.68,-2.29 2.5,-3.43 1.08,-1.48 2.09,-2.98 3.13,-4.47 0.62,-0.88 1.23,-1.75 1.85,-2.63 0.02,-0.04 0.06,-0.08 0.06,-0.12 0.78,-1.12 1.58,-2.25 2.35,-3.39 1.72,-2.59 3.36,-5.23 4.98,-7.89 0.58,-0.97 1.21,-1.91 1.79,-2.89 0,0 0.02,-0.01 0.02,-0.02 2.17,-3.67 4.24,-7.42 6.19,-11.27 18.89,-37.55 26.22,-81.44 36.33,-122.13 1.27,-5.15 2.6,-10.6 3.97,-16.18 4.98,-20.49 10.31,-43.65 14.59,-67.8 0.47,-2.75 0.92,-5.53 1.36,-8.3 0.4,-2.39 0.82,-4.77 1.2,-7.19 0.48,-3.12 0.9,-6.26 1.32,-9.4 0.28,-2.07 0.61,-4.14 0.88,-6.23 3.21,-25.16 4.61,-50.47 2.89,-74.04 -0.05,-0.89 -0.07,-1.8 -0.15,-2.69 -0.29,-3.73 -0.78,-7.39 -1.27,-11.02 -0.16,-1.1 -0.22,-2.23 -0.37,-3.31 -0.53,-3.43 -1.21,-6.73 -1.9,-10.05 -0.25,-1.23 -0.43,-2.51 -0.7,-3.72 -0.55,-2.37 -1.27,-4.61 -1.9,-6.92 -0.58,-2.05 -1.05,-4.16 -1.69,-6.15 -3.62,35.07 -10.2,96.27 -50.36,109.76 -7.59,56.77 -27.87,118.25 -28.12,175.52 0,-0.17 0.02,-0.36 0.02,-0.53 0,-0.05 0,-0.09 0,-0.14 0,0.22 -0.02,0.45 -0.02,0.67 0.31,-103.27 10.62,-206.36 8.89,-311.38 0,0.01 0,0.01 0,0.03 v -0.03 c 14.23,37.84 15.09,77.1 27.59,115.22 1.27,-1.34 2.44,-2.75 3.64,-4.15 0.58,-0.69 1.23,-1.36 1.79,-2.07 1.49,-1.83 2.86,-3.73 4.22,-5.65 0.24,-0.33 0.51,-0.64 0.72,-0.97 0.96,-1.37 1.8,-2.8 2.7,-4.22 0.59,-0.93 1.21,-1.83 1.78,-2.78 0.97,-1.67 1.89,-3.42 2.83,-5.15 0.39,-0.73 0.82,-1.44 1.19,-2.19 0.55,-1.06 1.02,-2.16 1.54,-3.24 1.92,-4.01 3.71,-8.11 5.34,-12.36 0.72,-1.87 1.36,-3.79 2.03,-5.69 0.29,-0.84 0.6,-1.66 0.88,-2.51 0.29,-0.86 0.54,-1.76 0.82,-2.63 4.51,-14.18 7.73,-29.28 10.43,-44.7 1.36,-7.94 2.61,-15.97 3.8,-23.99 0.45,-3.07 0.9,-6.13 1.35,-9.2 1.66,-24.43 6.84,-48.86 13.42,-72.33 0.04,-0.14 0.08,-0.29 0.1,-0.42 4.76,-16.97 10.21,-33.44 15.54,-49.05 17.31,-50.68 13.4,-107.19 7.64,-159.47 -0.82,-7.37 -1.8,-14.59 -2.89,-21.69 -0.76,-4.79 -1.66,-9.46 -2.54,-14.13 -0.88,-4.66 -1.82,-9.28 -2.79,-13.85 -0.98,-4.46 -1.93,-8.97 -3.01,-13.35 -0.19,-0.79 -0.43,-1.55 -0.62,-2.34 -4.4,-5.8 -8.79,-11.61 -13.29,-17.34 -23,-70.67 -58.39,-133.45 -91.07,-207.48 0.02,0.01 0.02,0.01 0.02,0.01 0,0 0,0 0,-0.01 41.41,34.04 62.42,99.76 84.88,147.15 27.78,-74.61 -3.34,-198.13 -32.01,-266.44 -2.48,-5.89 -5.12,-12.14 -7.79,-18.52 -0.04,-0.09 -0.08,-0.17 -0.1,-0.25 -4.04,-9.62 -8.2,-19.71 -12.36,-30.22 l -0.16,-0.43 c -17.48,-44.2 -34.18,-94.92 -35.47,-141.48 -0.02,-0.48 -0.02,-0.95 -0.02,-1.41 -0.1,-4.03 -0.1,-8.03 0.06,-11.98 -0.66,-25.13 0.26,-49.47 10.37,-90.65 2.33,-14.95 6.64,-31.87 14.03,-52.03 2.22,-11.73 4.1,-24.47 5.6,-37.39 -1.91,-37.08 -4.12,-76.85 5.41,-109.72 1,-13.06 1.49,-25.7 -2.3,-36.84 z m -272.93,174.33 c -3.5,-17.29 -6.53,-40.56 -8.93,-72.12 -0.47,-1.85 -0.96,-3.68 -1.42,-5.52 -205.22,14.12 -343.99,19.19 -447.13,19.48 -19.69,-0.08 -39.07,-0.2 -57.93,-0.36 -45.65,-0.73 -83.75,-2.45 -118.28,-4.65 0.02,0 0.03,0 0.03,0 -0.05,0 -0.09,0 -0.13,0 -0.29,-0.02 -0.59,-0.05 -0.86,-0.07 l 75.72,-5.25 c 106.45,-2.06 262.38,-10.38 540.29,-30.23 -2.81,-5.81 -5.72,-12.1 -7.3,-17.94 -17.81,2.54 -35.63,5 -53.46,7.34 -129.41,12.54 -261.01,20.04 -392.97,22.43 -45.41,1.07 -90.84,1.44 -136.25,1.21 -12.81,0.33 -20.15,0.3 -21.13,-0.1 0,0 -0.14,0 -0.16,0 l 0.32,-0.01 c 0.21,-0.01 0.47,-0.03 0.7,-0.03 -113.56,-1.08 -227.09,-6.19 -340.38,-15.3 l 11.67,0.17 c -75.95,-5.84 -151.38,-13.35 -226.22,-22.56 0.07,0.11 0.14,0.24 0.2,0.37 -4.59,-0.58 -9.19,-1.19 -13.78,-1.78 0.04,-0.12 0.08,-0.22 0.12,-0.34 -24.58,-3.08 -49.08,-6.39 -73.52,-9.85 -0.04,0.08 -0.07,0.16 -0.1,0.25 -0.38,0.81 -0.76,1.62 -1.11,2.47 0.09,0.21 0.19,0.42 0.3,0.65 -0.22,0.17 -0.57,0.37 -0.83,0.57 -1.87,4.61 -3.52,9.61 -5.02,14.81 134.57,19.68 408.91,42.38 591.72,51.02 13.22,1.04 25.79,2.05 37.66,3.04 -33.42,1.96 -66.96,3.19 -100.34,3.77 -177.38,-4.04 -418.84,-25.34 -534.26,-36.94 -0.01,0.05 -0.02,0.11 -0.04,0.17 -1.8,8.22 -3.43,16.45 -5.09,24.23 -2.11,22.22 -4.59,39.56 -7.36,53.22 214.38,29.46 432.74,44.34 653.27,44.34 70.84,0 142.06,-1.63 213.34,-4.72 110.12,-0.31 258.17,-3.69 381.72,-15.54 12.66,-1.61 25.32,-3.26 37.95,-4.98 2.99,-0.41 6,-0.76 9.01,-1.17 -0.02,-0.02 -0.02,-0.05 -0.02,-0.08 z m -1306.66,18.89 c -6.76,13.72 -14.05,18.94 -20.9,27.11 15.38,-58.84 19.55,-169.01 19.91,-179.07 -1.61,-9.73 -1.23,-19.98 -5.34,-28.78 -5.3,-3.9 -11.25,-8.31 -18,-13.4 -2.29,-1.72 -4,-3.14 -5.52,-4.4 -2.98,-0.92 -6.19,-1.77 -9.89,-2.48 -19.42,-3.66 -44.55,23.91 -75.2,-11.96 -39.74,-11.79 -57,27.17 -75.56,9.81 -10.61,-13.85 -24.5,-18.12 -32.52,-10.2 -0.38,1.13 -0.81,2.26 -1.09,3.38 -0.32,-0.31 -0.67,-0.56 -1,-0.85 -2.53,3.78 -4.15,9.25 -4.38,16.56 -0.33,-0.66 -0.94,59.89 -1.24,59.21 -11.66,-25.85 -23.6,-61.76 -10.65,-83.01 -5.74,0.85 -10.77,1.67 -13.58,2.36 -2.38,1.13 -4.58,2.62 -6.55,4.45 -3.79,11.14 -3.29,23.79 -2.29,36.83 9.53,32.9 7.32,72.67 5.41,109.74 1.49,12.91 3.36,25.66 5.58,37.38 7.4,20.15 11.72,37.07 14.05,52.04 10.1,41.18 11.03,65.51 10.36,90.65 v 0.01 c 0.16,3.93 0.15,7.94 0.07,11.95 v 0.01 c -0.01,0.47 -0.01,0.93 -0.02,1.42 0,0 0,0.01 -0.01,0.02 -0.97,34.89 -10.59,72.13 -22.71,107.19 -0.03,0.09 -0.07,0.18 -0.1,0.29 -1.93,5.59 -3.93,11.1 -5.96,16.57 -0.22,0.57 -0.44,1.13 -0.66,1.71 -1.93,5.16 -3.89,10.24 -5.86,15.24 -0.06,0.15 -0.11,0.31 -0.17,0.46 l -0.17,0.43 c -0.11,0.27 -0.22,0.52 -0.32,0.78 -1.86,4.68 -3.71,9.28 -5.55,13.78 -0.3,0.74 -0.6,1.46 -0.9,2.19 -1.68,4.12 -3.36,8.18 -5.03,12.14 -0.18,0.44 -0.37,0.89 -0.55,1.33 -0.03,0.07 -0.06,0.15 -0.1,0.24 -0.37,0.86 -0.72,1.7 -1.07,2.55 -1.28,3.04 -2.53,6.03 -3.76,8.96 -1,2.37 -2,4.74 -2.95,7.02 -28.69,68.32 -59.81,191.83 -32.02,266.43 22.44,-47.38 43.46,-113.1 84.88,-147.14 0,0.01 0,0.01 0,0.01 0,0 0,0 0.01,-0.01 -47.22,106.97 -100.12,190.4 -113.13,308.22 -5.76,52.28 -9.66,108.79 7.64,159.47 5.33,15.61 10.77,32.08 15.53,49.05 0.04,0.13 0.07,0.28 0.12,0.42 6.57,23.47 11.74,47.9 13.42,72.33 7.11,48.97 14.63,99.44 45.06,131.5 10.92,-33.36 12.94,-67.58 22.82,-100.97 1.41,-4.77 2.98,-9.52 4.76,-14.25 v 0.03 c 0.01,-0.02 0.01,-0.02 0.02,-0.03 -1.74,105.02 8.55,208.11 8.88,311.38 0,-0.3 -0.02,-0.61 -0.03,-0.92 0,-0.02 0,-0.05 0,-0.08 0,0.33 0.02,0.67 0.02,1 -0.26,-57.27 -20.52,-118.75 -28.14,-175.52 -21.8,-7.33 -33.65,-28.75 -40.56,-52.39 -0.24,-0.85 -0.53,-1.68 -0.77,-2.53 -0.53,-1.94 -0.99,-3.91 -1.47,-5.86 -0.19,-0.81 -0.42,-1.6 -0.6,-2.4 -0.38,-1.64 -0.7,-3.29 -1.03,-4.93 -0.24,-1.13 -0.5,-2.26 -0.71,-3.39 -0.1,-0.51 -0.18,-1.01 -0.27,-1.52 -2.46,-13.27 -3.84,-26.19 -4.93,-36.74 -21.96,67.76 2.31,169 18.23,233 10.13,40.69 17.45,84.58 36.34,122.13 1.94,3.85 4.01,7.61 6.19,11.29 0.3,0.51 0.63,0.99 0.94,1.5 0.24,0.39 0.49,0.78 0.73,1.19 1.68,2.73 3.37,5.45 5.13,8.11 0.02,0.02 0.02,0.03 0.03,0.04 0.73,1.08 1.47,2.14 2.2,3.22 0.03,0.04 0.06,0.08 0.09,0.12 1.68,2.45 3.37,4.9 5.11,7.31 0.74,1.02 1.48,2.04 2.23,3.05 1.01,1.37 2.03,2.73 3.04,4.09 -0.89,-2.81 -1.7,-5.66 -2.47,-8.52 -0.28,-1.09 -0.56,-2.17 -0.83,-3.26 -0.44,-1.79 -0.84,-3.57 -1.22,-5.36 -0.63,-2.97 -1.18,-5.95 -1.63,-8.91 -0.09,-0.62 -0.2,-1.24 -0.29,-1.86 -0.29,-2.11 -0.52,-4.22 -0.7,-6.31 -0.02,-0.32 -0.04,-0.63 -0.07,-0.93 -0.52,-6.67 -0.48,-13.17 0.3,-19.3 v -0.01 c -0.81,-13.55 0.28,-25.93 5.18,-34.22 -0.66,19.29 18.25,52.35 24.29,73.07 0.04,-0.17 0.09,-0.34 0.13,-0.5 0.05,-0.22 0.11,-0.43 0.16,-0.64 0.91,-3.85 1.95,-7.58 3.02,-11.28 1.52,-5.23 3.14,-10.38 4.97,-15.39 0.1,-0.29 0.2,-0.59 0.31,-0.89 2.03,-5.49 4.24,-10.84 6.58,-16.11 0.24,-0.54 0.48,-1.1 0.72,-1.64 2.3,-5.11 4.74,-10.11 7.27,-15.06 0.34,-0.66 0.68,-1.33 1.02,-1.99 2.53,-4.86 5.14,-9.67 7.83,-14.44 0.4,-0.7 0.8,-1.4 1.2,-2.11 2.72,-4.77 5.49,-9.51 8.32,-14.24 0.42,-0.7 0.85,-1.41 1.27,-2.12 3,-5 6.04,-10 9.09,-15.02 3.02,-4.96 6.04,-9.95 9.04,-14.98 0.25,-0.42 0.5,-0.84 0.75,-1.27 3.08,-5.18 6.15,-10.41 9.15,-15.73 25.41,-45.05 11.81,-96.17 9.5,-144.6 0.01,0.01 0.01,0.01 0.01,0.01 v 0 c 27.49,45.45 14.45,92.47 63.39,126.94 27.61,19.44 83.56,36.77 122.2,36.1 2.23,-6.52 4.26,-13.06 6.19,-19.61 v -0.01 c 0.4,-1.34 0.78,-2.68 1.16,-4.03 0.57,-2 1.05,-4 1.6,-6 1.16,-4.24 2.34,-8.47 3.38,-12.72 0.01,-0.03 0.01,-0.07 0.02,-0.11 0.05,-0.2 0.11,-0.41 0.16,-0.61 0.07,-0.31 0.13,-0.61 0.2,-0.92 1.63,-6.85 3.12,-13.72 4.44,-20.61 1.37,-7.2 2.56,-14.42 3.58,-21.67 -0.58,0.63 -1.2,1.21 -1.77,1.85 l 2.11,-4.23 c 1.81,-13.41 2.98,-26.91 3.51,-40.5 0.01,-0.21 0.02,-0.43 0.03,-0.64 0.08,-2.15 0.04,-4.33 0.09,-6.5 0.08,-4.06 0.2,-8.14 0.16,-12.23 0,-0.87 -0.01,-1.72 -0.02,-2.58 -0.08,-6.3 -0.29,-12.62 -0.67,-18.96 -0.01,-0.23 -0.01,-0.47 -0.03,-0.72 -0.24,-4 -0.66,-8.04 -1.02,-12.06 -0.25,-2.74 -0.4,-5.46 -0.7,-8.2 -0.07,-0.69 -0.18,-1.39 -0.26,-2.09 -0.01,-0.02 -0.01,-0.05 -0.01,-0.06 -0.24,-2.09 -0.57,-4.2 -0.85,-6.29 -0.46,-3.56 -0.89,-7.11 -1.44,-10.67 -0.28,-1.81 -0.58,-3.61 -0.89,-5.42 v 0 c -0.09,-0.6 -0.22,-1.19 -0.33,-1.78 -0.73,-4.25 -1.5,-8.51 -2.37,-12.79 -0.36,-1.77 -0.69,-3.54 -1.07,-5.32 0,-0.03 -0.01,-0.05 -0.01,-0.07 -1.4,-6.49 -2.91,-13.01 -4.62,-19.56 -0.48,-1.82 -1.01,-3.77 -1.59,-5.8 -0.19,-0.69 -0.41,-1.42 -0.61,-2.12 -0.41,-1.4 -0.81,-2.81 -1.26,-4.29 -0.26,-0.86 -0.55,-1.77 -0.82,-2.66 -0.43,-1.4 -0.87,-2.8 -1.33,-4.27 -0.32,-0.98 -0.65,-2 -0.99,-3.01 -0.46,-1.43 -0.94,-2.88 -1.44,-4.37 -0.37,-1.09 -0.74,-2.19 -1.12,-3.29 -0.51,-1.49 -1.03,-2.99 -1.58,-4.52 -0.41,-1.15 -0.82,-2.32 -1.24,-3.49 -0.57,-1.57 -1.15,-3.17 -1.75,-4.78 -0.43,-1.16 -0.86,-2.33 -1.31,-3.51 -0.64,-1.68 -1.29,-3.38 -1.96,-5.1 -0.45,-1.16 -0.9,-2.32 -1.36,-3.5 -0.72,-1.82 -1.47,-3.66 -2.22,-5.51 -0.45,-1.1 -0.89,-2.19 -1.35,-3.31 -0.87,-2.09 -1.77,-4.21 -2.67,-6.33 -0.39,-0.89 -0.76,-1.78 -1.14,-2.67 -1.31,-3.01 -2.65,-6.04 -4.03,-9.07 -0.27,-0.58 -0.55,-1.18 -0.82,-1.76 -1.13,-2.46 -2.27,-4.92 -3.44,-7.37 -0.51,-1.08 -1.05,-2.15 -1.57,-3.23 -0.97,-1.98 -1.93,-3.95 -2.92,-5.93 -0.61,-1.21 -1.24,-2.42 -1.87,-3.64 -0.93,-1.82 -1.87,-3.63 -2.83,-5.44 -0.68,-1.28 -1.37,-2.56 -2.07,-3.83 -0.94,-1.74 -1.88,-3.45 -2.84,-5.17 -0.73,-1.3 -1.47,-2.58 -2.21,-3.87 -0.97,-1.68 -1.94,-3.35 -2.93,-5.01 -0.76,-1.28 -1.52,-2.55 -2.3,-3.8 -1.01,-1.64 -2.04,-3.28 -3.07,-4.9 -0.78,-1.22 -1.55,-2.45 -2.35,-3.66 -1.06,-1.63 -2.15,-3.23 -3.24,-4.83 -0.78,-1.13 -1.56,-2.29 -2.35,-3.42 -1.18,-1.68 -2.38,-3.3 -3.58,-4.92 -0.73,-0.99 -1.45,-2.01 -2.2,-2.99 -1.51,-1.98 -3.04,-3.89 -4.59,-5.8 -0.46,-0.55 -0.9,-1.14 -1.34,-1.68 -2.01,-2.41 -4.03,-4.72 -6.08,-6.98 -0.65,-0.71 -1.32,-1.37 -1.97,-2.06 -1.43,-1.51 -2.86,-3.02 -4.31,-4.44 -0.84,-0.83 -1.69,-1.6 -2.54,-2.38 -1.29,-1.21 -2.58,-2.44 -3.89,-3.57 -0.93,-0.8 -1.86,-1.54 -2.8,-2.31 -1.26,-1.04 -2.53,-2.06 -3.8,-3.02 -0.98,-0.73 -1.96,-1.43 -2.95,-2.11 -1.26,-0.89 -2.53,-1.74 -3.8,-2.56 -1.01,-0.63 -2.02,-1.24 -3.05,-1.84 -1.27,-0.74 -2.57,-1.44 -3.86,-2.1 -1.04,-0.53 -2.06,-1.04 -3.1,-1.51 -1.32,-0.61 -2.65,-1.13 -3.98,-1.66 -1.03,-0.39 -2.07,-0.81 -3.1,-1.15 -1.39,-0.47 -2.79,-0.82 -4.2,-1.19 -0.99,-0.26 -1.99,-0.54 -3.01,-0.77 -1.53,-0.3 -3.09,-0.48 -4.64,-0.66 -0.89,-0.12 -1.77,-0.29 -2.67,-0.35 -2.25,-0.18 -4.53,-0.18 -6.81,-0.07 -0.2,0.01 -0.39,-0.01 -0.58,0 -0.08,0.01 -0.17,0.02 -0.25,0.03 -2.25,0.15 -4.52,0.47 -6.8,0.9 -0.73,0.13 -1.47,0.33 -2.2,0.51 -1.74,0.39 -3.49,0.87 -5.24,1.45 -0.74,0.25 -1.47,0.48 -2.21,0.73 -2.36,0.87 -4.72,1.86 -7.11,3.06 -0.05,0.03 -0.11,0.05 -0.17,0.08 -2.34,2.59 -4.85,5.07 -7.38,7.49 -5.44,8.98 -16.14,23.45 -21.27,32.44 -4.4,10.16 -8.4,20.21 -12.34,29.82 -0.95,2.32 -1.91,4.61 -2.85,6.87 -0.57,1.31 -1.13,2.63 -1.68,3.92 -1.59,3.67 -3.17,7.25 -4.8,10.65 0.37,-2.24 0.76,-4.41 1.14,-6.62 0,0 -0.01,0 -0.01,0.01 -0.32,0.67 -0.61,1.38 -0.94,2.05 -0.12,-17.39 4.38,-33.13 10.94,-48.18 -0.14,-0.36 -0.2,-0.71 -0.32,-1.07 0,-0.02 -0.01,-0.03 -0.01,-0.03 -0.28,-0.81 -0.55,-1.62 -0.73,-2.43 0,-0.01 -0.01,-0.01 -0.01,-0.01 -0.05,-0.29 -0.08,-0.57 -0.12,-0.86 -0.04,-0.27 -0.08,-0.57 -0.13,-0.86 -0.08,-0.58 -0.23,-1.15 -0.26,-1.75 -4,3.42 -8.06,6.72 -12.2,9.88 -0.3,0.23 -0.6,0.47 -0.9,0.69 -4.26,3.21 -8.61,6.25 -13.11,9.01 -0.02,0.02 -0.03,0.02 -0.04,0.03 -16.03,13.12 -33.77,27.56 -39.49,28.65 15.5,-13.12 61.33,-62.37 76.48,-77.47 1.03,-2.01 1.98,-3.98 2.99,-5.99 2.2,-4.4 4.43,-8.77 6.5,-13.11 0.98,-2.04 1.89,-4.06 2.82,-6.07 0.16,-0.35 0.31,-0.68 0.47,-1.02 1.86,-3.96 3.74,-7.93 5.49,-11.85 1.05,-2.37 1.99,-4.71 3,-7.05 0.08,-0.18 0.15,-0.35 0.23,-0.53 1.6,-3.73 3.26,-7.49 4.77,-11.21 0,0 0,0 0.01,-0.02 1.09,-2.68 2.05,-5.33 3.09,-8 0.07,-0.2 0.15,-0.38 0.22,-0.59 1.3,-3.33 2.64,-6.65 3.85,-9.96 0,-0.01 0.01,-0.04 0.01,-0.04 1,-2.75 1.88,-5.49 2.83,-8.23 0.16,-0.47 0.31,-0.93 0.47,-1.4 1.03,-2.97 2.09,-5.92 3.03,-8.87 0.47,-1.45 0.87,-2.91 1.3,-4.36 0.4,-1.38 0.82,-2.77 1.23,-4.15 0.17,-0.57 0.34,-1.14 0.51,-1.71 0.83,-2.73 1.69,-5.46 2.43,-8.22 0,0 0.01,0 0.01,-0.02 0.55,-2.01 1.02,-4.04 1.51,-6.05 0.24,-1.02 0.5,-2.01 0.75,-3.01 0.78,-3.14 1.64,-6.29 2.34,-9.43 0.7,-3.12 1.26,-6.25 1.88,-9.38 0.61,-3.07 1.3,-6.14 1.84,-9.23 0,0 0,-0.01 0,-0.02 0.31,-1.75 0.54,-3.48 0.78,-5.22 0.22,-1.49 0.45,-2.96 0.67,-4.42 0.45,-3.05 0.98,-6.06 1.37,-9.13 0,-0.01 0,-0.03 0,-0.04 0.2,-1.62 0.33,-3.25 0.48,-4.89 0.18,-1.87 0.38,-3.74 0.56,-5.6 0.27,-2.84 0.63,-5.65 0.84,-8.5 0,-0.02 0.01,-0.03 0.01,-0.04 0.26,-3.48 0.38,-7.02 0.52,-10.55 0.02,-0.49 0.05,-0.99 0.08,-1.49 0.1,-2.45 0.29,-4.86 0.35,-7.32 v 0 c 0.04,-1.44 0,-2.9 0,-4.36 0.03,-3.46 0.05,-6.92 0.01,-10.43 -0.02,-1.66 0.04,-3.3 0,-4.97 -0.15,-6.19 -0.47,-12.46 -0.9,-18.79 -0.03,-0.49 -0.03,-0.94 -0.07,-1.43 0,-0.07 -0.01,-0.14 -0.01,-0.21 -0.43,-6.06 -1.04,-12.24 -1.74,-18.47 -0.21,-1.87 -0.45,-3.78 -0.69,-5.67 -0.58,-4.71 -1.23,-9.45 -1.97,-14.26 -0.29,-1.9 -0.57,-3.82 -0.88,-5.74 -1.07,-6.53 -2.23,-13.13 -3.58,-19.87 -12.58,-62.83 -34.75,-122.43 -37.57,-186.79 -2.51,-57.34 4.52,-117.36 -3.52,-172.79 0,0.01 0,0.01 0,0.01 0,0 0,0 0,-0.01 30.23,41.89 18.59,95.5 26.54,145.44 7.7,48.32 21.28,97.69 32.76,144.41 0.32,-1.23 0.53,-2.5 0.83,-3.75 0.54,-2.33 1.12,-4.65 1.54,-7.02 0.2,-1.16 0.31,-2.36 0.49,-3.52 0.38,-2.48 0.78,-4.96 1.04,-7.48 0.15,-1.47 0.2,-2.97 0.31,-4.45 0.17,-2.24 0.38,-4.48 0.47,-6.75 0.1,-2.6 0.08,-5.22 0.08,-7.84 0,-1.17 0.06,-2.33 0.04,-3.51 -0.76,-45.69 -15.44,-94.39 -19.57,-136.44 -6.21,-63.12 -3.8,-173.24 15.29,-237.29 0,0.01 0,0.02 0,0.02 0,0 0,-0.01 0,-0.02 -0.18,1.94 -0.25,4 -0.41,5.96 -0.29,3.82 -0.59,7.61 -0.77,11.56 -0.24,5.07 -0.35,10.29 -0.41,15.56 -0.01,0.85 -0.05,1.68 -0.06,2.55 -0.09,12.3 0.24,25.09 0.92,38.21 0.87,-1.61 2.1,-3.54 3.48,-5.58 8.01,-11.85 23.72,-29.95 37.98,-46.04 10.38,-8.32 20.75,-16.79 28.72,-27.33 17.39,-23 32.97,-56.08 43.13,-83.24 -4.08,-0.85 -6.7,-1.48 -8.91,-2.02 -6.96,-1.69 -9.53,-2.26 -38.76,-4.68 -1.28,6.67 -2.7,12.66 -4.21,18.15 z M 1358.31,684.57 c 1.98,-33.66 2.52,-62.91 1.92,-88.191 -6.38,82.101 -23.14,165.68 -36.88,244.703 -10.59,53.969 -19.43,105.297 -27.5,154.699 -9.59,42.029 -18.11,81.179 -26.02,118.209 6.53,1.45 13.08,2.86 19.62,4.27 37.49,-160.901 61.69,-312.53 68.86,-433.69 z m -93.38,452.39 c -41.45,-9.09 -82.83,-18.65 -124.1,-28.81 -2.68,2.98 -5.2,6.54 -7.55,10.48 33.54,9.46 66.65,19.13 99.91,27.83 20.73,5.46 41.6,10.44 62.52,15.27 -0.13,-6.29 0.05,-12.32 0.63,-17.92 -4.1,-0.86 -8.2,-1.79 -12.3,-2.68 0.01,-0.04 0.02,-0.09 0.03,-0.12 -6.38,-1.4 -12.72,-2.86 -19.09,-4.29 -0.01,0.09 -0.03,0.17 -0.05,0.24 z M 1097.82,783.809 c -60.99,137.023 -193.386,460.241 -227.511,704.461 -62.278,-23.42 -78.079,-34.85 -125.629,-60.11 -2.117,14.31 -4.055,28.38 -5.867,42.26 -0.262,2.08 -0.547,4.17 -0.805,6.25 -0.75,5.89 -1.481,11.74 -2.168,17.54 -0.391,3.28 -0.758,6.52 -1.129,9.77 -0.809,7.04 -1.574,14.01 -2.293,20.91 -0.598,5.73 -1.184,11.46 -1.727,17.09 -0.308,3.3 -0.593,6.55 -0.886,9.81 -0.504,5.62 -0.981,11.2 -1.426,16.72 -0.215,2.73 -0.441,5.46 -0.641,8.16 -0.605,8.11 -1.172,16.16 -1.64,24.04 -1.157,19.61 -1.805,37.66 -2.035,54.34 1.246,0.17 2.515,0.44 3.847,0.9 55.11,18.63 109.645,39.78 167.27,48.45 -0.114,-13.43 0.039,-27.36 0.465,-41.77 -2.547,-40.78 -2.446,-108.74 26.527,-248.24 15.926,-92.95 38.68,-190.76 67.816,-285.13 46.922,-151.979 92.922,-294.401 138.222,-410.248 39.98,-102.262 79.42,-183.813 118.45,-232.821 -48.11,59.68 -100.39,168.547 -148.84,297.618 z M 802.441,1135.54 c 10.418,-40.9 21.336,-83.02 32.575,-125.53 -6.739,24.26 -13.375,49.07 -19.875,74.41 -4.395,17.12 -8.594,34.15 -12.7,51.12 z M 701.129,1334.5 c -26.559,-10.9 -113.418,-53.35 -139.746,-64.78 -14.445,94.68 -20.5,177.03 -19.278,242.11 4.364,-1.36 113.813,30.38 163.969,44.06 11.735,-136.21 41.953,-303.57 86.492,-477.26 C 833.773,917.969 888.281,752.5 944.629,623.629 903.031,690.34 724.063,1177.62 701.129,1334.5 Z M 529.723,1190.57 C 503.762,1174.75 455.16,1164.48 385,1135 c 0,0.01 -5.777,24.63 -5.781,24.64 -3.793,36.38 -12.996,116.45 -13.012,148.4 1.426,0.16 2.902,0.48 4.445,1.01 49.914,17.2 99.637,35.79 153.317,53.89 0.851,0.29 1.328,0.46 1.672,0.59 0.144,-1.39 0.293,-2.8 0.445,-4.19 4.793,-49.38 10.934,-89.21 20.734,-144.61 3.996,-48.26 15.641,-105.34 30.731,-163.63 1.89,-7.86 3.664,-15.74 5.672,-23.56 14.765,-57.571 31.804,-111.938 50.269,-161.739 18.426,-57.211 38.586,-112.809 59.731,-164.301 0,-0.02 0.015,-0.031 0.015,-0.031 C 612.98,848.082 559.309,1072.58 529.723,1190.57 Z M 365.707,955.379 c -16,-5.168 -100.57,-38.078 -101.918,-33.117 -43.226,158.738 -38.09,280.998 17.899,294.238 10.351,2.45 34.324,9.31 60.984,16.59 1.051,0.29 2.133,0.58 3.195,0.88 0.93,-11.97 0.617,-9.87 1.965,-22.28 -34.586,-8.18 -29.387,-0.51 -47.703,-8.43 -54.82,-7.93 -57.57,-58.22 -60.895,-126.08 0.856,-28.93 4.395,-61.33 11.004,-96.16 -3.554,18.839 -6.195,36.96 -8.019,54.23 1.199,0.37 2.398,0.72 3.636,1.34 38.508,19.06 77.723,36.62 116.274,55.59 3.164,-42.79 11.246,-89.32 24.082,-136.489 9.379,-34.41 20.504,-66.652 32.82,-95.98 14,-38.699 30.93,-78.742 51.258,-117.481 -34.144,47.469 -84.855,163.239 -104.582,213.149 z m 1.313,389.491 c 9.957,73.57 34.019,133.04 51.332,137.46 l 31.953,8.21 c 19.07,4.9 43.179,11.08 67.675,17.39 -0.085,-6.64 -0.058,-13.43 0.008,-20.3 v 0 c 0.02,-2.13 0.047,-4.28 0.086,-6.43 0,0 0,0 0,-0.01 0.035,-1.76 0.039,-3.49 0.078,-5.27 -1.078,-0.1 -0.609,2.5 -0.078,5.27 -0.039,2.16 -0.066,4.31 -0.086,6.44 -0.004,0 -0.004,0.01 -0.004,0.01 -95.535,-13.41 -120.339,-30.33 -150.964,-142.79 0,0.01 0,0.02 0,0.02 z m 158.316,21.52 c 0.074,-0.7 0.148,-1.39 0.223,-2.09 -0.36,0.32 -0.637,0.91 -0.223,2.09 z m 18.465,184.84 c 8.125,35.51 29.144,116.98 45.609,121.21 17.738,4.53 64.528,16.53 111.719,28.62 -0.371,-9.86 -0.461,-9.93 -0.445,-19.73 -0.008,-0.51 -0.036,-0.98 -0.036,-1.49 -48.074,-14.73 -124.753,-1.99 -156.855,-128.65 0.008,0.02 0.008,0.04 0.008,0.04 z M 724.48,1698.6 c 1.961,20.85 9,71.99 7.665,71.46 5.421,26.09 13.066,41.98 21.429,49.55 0.016,0.01 0.02,0.01 0.031,0.02 1.383,1.25 2.79,2.27 4.211,3.09 0.012,0 0.016,0 0.032,0 1.422,0.81 2.855,1.38 4.293,1.76 L 919.824,1865 c -4.183,-8.67 -4.73,-7.41 -7.66,-19.03 -59.469,-14.93 -168.871,-4.96 -187.969,-156.09 0.078,2.98 0.18,5.86 0.285,8.72 z m 523.44,-418.13 c -4.46,-0.98 -8.94,-1.89 -13.4,-2.86 -34.25,151.14 -73.46,284.97 -169.45,484.2 57.28,-103.19 124.09,-271.09 182.85,-481.34 z m 62.16,-56.76 c -0.07,-0.4 -0.14,-0.79 -0.21,-1.19 l -1.01,7.83 c 0.34,-2.24 0.74,-4.45 1.22,-6.64 z m -1.13,45.87 c -1.36,-11.34 -1.87,-22.68 -0.8,-33.72 l -1.52,11.85 c -1.17,-10.06 -4.66,-27.78 -7.41,-47.2 -25.19,-4.42 -50.36,-9.07 -75.42,-14.37 -34.81,-7.3 -69.3,-15.56 -103.49,-23.41 -0.36,1.23 -0.73,2.47 -1.09,3.69 -1.53,5.15 -3.08,10.35 -4.6,15.51 -1.43,14.55 -1.29,29.54 0.8,43.71 64.03,16.01 128.54,30.7 193.53,43.94 z m 468.57,1329.09 c 10.15,-3.6 20.28,-7.35 30.46,-10.93 -10.32,3.28 -20.47,6.9 -30.46,10.93 z m 948.03,-0.01 c -9.96,-4.02 -20.1,-7.64 -30.41,-10.91 h -0.02 c 9.1,3.2 18.2,6.54 27.28,9.78 1.06,0.38 2.09,0.77 3.15,1.13 z m 85.47,-1242.01 c 1.54,-0.37 3.16,-0.81 4.84,-1.27 -1.68,0.19 -3.38,0.4 -5.1,0.59 0.08,0.22 0.18,0.45 0.26,0.68 z m -380.18,787.24 c 64.16,1.11 121.75,-29.47 124.35,-41.91 6.04,-28.94 -38.47,-7.39 -118.52,-1.98 -127.71,8.63 -128.8,-74.91 -128.8,-74.91 -17.07,115.53 16.19,116.94 122.97,118.8 z m 13.28,149.38 c 80.22,0 157.77,0.87 157.77,-54.09 0,-29.57 -83.56,-25.46 -163.54,-19.18 -100.59,7.89 -134.72,-45.8 -134.72,-45.8 -25.19,137.85 60.28,119.07 140.49,119.07 z m 363.01,87.63 c -22.31,-37.76 -70.82,-86.1 -114.61,-86.13 -25.51,-22.67 -31.13,-132.41 28.03,-101.04 -16.49,-31.37 -55.34,-39.39 -74.38,-58.34 -18.67,-18.59 -69.51,-59.35 -74.14,-81.6 -3.73,20.09 51.27,72.69 21.99,84.44 -30.82,12.39 -44.08,9.87 -30.82,12.39 83.11,15.83 79.61,43.5 90.1,81.27 11.68,42.1 -66.35,66.73 -66.35,66.73 54.36,17.58 107.01,29.05 112.91,47.43 10.28,31.97 -5.72,87.77 -48.43,143.98 38.75,5.06 59.04,-42.05 69.12,-63.55 20.48,-43.67 42.89,-51.24 83.24,-30.14 4.51,2.35 9.16,4.96 14.12,8.02 -1.99,-6.81 -5.72,-14.86 -10.78,-23.46 z m -461.33,158.66 c 27.79,4.34 63.83,-3.44 103.24,-13.38 37.93,-9.57 70.12,-23.55 96.43,-39.86 53.71,-33.32 82.44,-76.44 82.44,-112.26 0,-53.35 -64.58,-9.06 -154.99,-9.06 -90.41,0 -182.78,-23.3 -182.78,85.49 0,60.23 21.62,83.75 55.66,89.07 z M 2079.03,2360 c -90.41,0 -186.48,-36.67 -186.48,16.68 0,35.12 27.65,77.24 79.37,110.28 26.84,17.15 60.05,31.89 99.5,41.84 34.08,8.6 65.67,15.57 91.57,14.49 40.7,-1.69 67.33,-23.32 67.33,-90.18 0,-108.79 -60.89,-93.11 -151.29,-93.11 z m 17.49,-145 c -79.97,-6.28 -170.17,-5.39 -170.17,24.18 0,54.96 77.57,54.09 157.79,54.09 80.2,0 165.65,18.78 140.47,-119.07 0,0 -27.51,48.69 -128.09,40.8 z m -3.19,-115 c -79.18,-12.77 -119.4,-27.33 -119.4,2.24 0,0 53.4,41.63 133.6,41.63 106.79,0 129.91,-3.25 112.85,-118.78 0,0 -6.96,94.27 -127.05,74.91 z m -300.58,326.48 c 10.08,21.49 30.36,68.55 69.08,63.55 0.02,0 0.03,0 0.05,0 0,0 0,0 0,-0.01 -42.71,-56.2 -58.71,-112 -48.44,-143.97 5.9,-18.38 58.55,-29.85 112.91,-47.43 0,0 -78.01,-24.63 -66.34,-66.73 10.48,-37.77 6.98,-65.44 90.1,-81.27 13.26,-2.52 0,0 -30.84,-12.39 -29.25,-11.75 25.73,-64.35 22,-84.44 -4.61,22.25 -55.47,63.01 -74.15,81.6 -19.02,18.95 -57.87,26.97 -74.37,58.34 59.16,-31.37 53.53,78.37 28.04,101.04 -49.48,0.04 -104.89,61.66 -121.8,100.1 -1.46,3.34 -2.75,6.56 -3.6,9.49 1.68,-1.04 3.26,-1.93 4.89,-2.88 46.29,-27.16 70.48,-21.9 92.47,25 z M 1672.77,1352.11 c -4.04,-0.49 -8.11,-0.92 -12.16,-1.42 -19.11,40.7 -37.63,101 -63.55,116.35 -51.75,30.65 -57.91,73.04 -60.93,113.99 10.21,84.86 28.27,175.78 38.17,248.8 15.38,113.46 -8.17,208.75 -22.18,315.05 10.84,17.2 26.21,33.03 45.88,52.8 4.4,4.41 8.54,8.9 12.65,13.39 5.43,-5.97 62.09,-86.22 65.54,-92.95 8.58,-16.67 12.64,-49.97 18.53,-65.94 10.1,-27.39 69.45,-100.21 50.47,-192.94 -4.71,-23.05 -57.25,-152.78 -72.96,-204.54 -15.47,-50.93 -59.9,-132.51 -65.31,-167.07 24.06,-24.84 54.36,-76.78 65.85,-135.52 z m 431.7,405.23 c -54.02,0.62 -121.18,7.81 -174.43,18.56 -48.97,9.88 -79.36,26.4 -138.28,33.17 -6.86,-18.34 -13.42,-35.51 -19.71,-48.04 -26.74,-53.24 -53,-109.05 -79.7,-161.71 27.2,65.03 63.71,137.8 88.44,210.85 -0.92,0.08 -1.78,0.19 -2.71,0.26 l 8.33,26.52 c 0.93,-0.12 1.84,-0.31 2.77,-0.46 5.89,19.94 -7.08,40.03 -12.08,68.23 v 0 c -11.44,36.12 -11.44,36.12 -11.44,36.12 44.23,-11.78 175.1,-53.86 223,-62.76 59.25,-11.01 108.96,-22.91 179.92,-36.5 -119.08,0 -259.61,44.52 -363.58,70.92 10,-32.5 5.18,-54.71 -3.71,-78.03 104.6,-18.2 200.72,-61.29 303.18,-77.13 z m 478.81,18.56 c -53.26,-10.75 -120.43,-17.94 -174.45,-18.56 102.48,15.84 198.59,58.93 303.18,77.13 -8.88,23.32 0.18,46.89 -2.01,75.53 -103.97,-26.4 -246.19,-68.42 -365.29,-68.42 70.99,13.59 120.7,25.49 179.94,36.5 47.91,8.9 178.79,50.98 223.01,62.76 0,0 0,0 -11.45,-36.12 v 0 c 3.3,-19.69 -17.97,-48.29 -12.07,-68.23 0.92,0.15 1.84,0.34 2.75,0.46 l 8.34,-26.52 c -0.93,-0.07 -1.77,-0.18 -2.71,-0.26 24.73,-73.05 61.23,-145.82 88.44,-210.85 -26.7,52.66 -52.97,108.47 -79.71,161.71 -6.29,12.53 -12.85,29.7 -19.71,48.04 -58.92,-6.77 -89.31,-23.29 -138.26,-33.17 z m 335.02,408.32 c 13.4,-13.86 24.41,-26.24 32.66,-39.34 -14.01,-106.3 -37.56,-201.59 -22.17,-315.05 6.5,-48.07 16.56,-103.92 25.6,-160.7 -0.07,-0.11 -0.13,-0.21 -0.21,-0.32 3.61,-23.4 6.91,-46.8 9.69,-69.77 -3.01,-40.94 -9.18,-83.32 -60.92,-113.95 -21.56,-12.78 -38.01,-56.61 -53.93,-94.44 -4.12,-7.28 -8.02,-14.61 -11.62,-21.83 -0.37,0.04 -0.74,0.09 -1.11,0.14 0.21,-0.47 0.29,-1 0.45,-1.49 -0.72,-1.48 -1.41,-2.9 -2.11,-4.37 -6.64,1.34 -14.88,1.46 -20.82,1.19 4.94,13.15 10.8,25.92 17.32,38.36 13.01,40.05 25.45,66.65 54.77,98.5 -3.36,13.53 -32.66,107.49 -48.09,157.53 -31.76,102.78 -94.26,193.95 -73.71,234.46 12.91,25.43 32.05,83.32 44.26,109.85 21.64,47.01 12.12,87.43 18.31,103.67 23.14,33.27 50,76.67 73.33,110 -1.19,-1.09 -2.97,-4.19 0,0 0.21,-0.21 17.87,-31.99 18.07,-32.21 -0.75,-0.93 -1.55,-1.93 -2.43,-3.02 0.61,0.56 1.55,1.56 2.66,2.79 z m -1503.57,782.55 c 9.21,62.25 46.61,132.18 93.57,175.41 22.33,20.56 47.92,39.11 75.11,52.85 11.45,5.79 24.93,12.72 36.97,17.03 4.03,1.44 9.3,2.15 14.63,2.89 4.78,-0.35 9.67,-2.46 14.23,-8.26 0.15,0.93 0.33,1.71 0.14,-0.15 0,0.01 0,0.01 0,0.02 v -0.02 c 1.64,4.84 3.53,9.53 5.63,14.09 0.47,0.37 0.91,0.75 1.32,1.16 v 1.58 c 1.98,4.09 4.16,8.05 6.49,11.91 0.29,0.49 0.6,0.98 0.9,1.47 7.33,11.91 16.23,22.78 26.27,32.66 1.82,3.26 3.79,6.43 5.82,9.55 31.25,34.59 73.44,68.85 114.88,93.95 70.96,43.02 130.63,56.08 171.71,59.55 -5.14,-53.08 -10.06,-107.28 -31.79,-155.81 38.54,53.14 39.53,123.09 52.05,184.35 12.1,59.17 17.12,132.05 16.67,188.18 6.13,0.46 0,0 5.14,5.86 -0.68,-4.7 -1.19,-9.39 -1.42,-14.06 -2.18,-44.91 14,-82.33 40.57,-111.96 12.69,-36.51 23.44,-75.19 41.5,-111.3 26.41,-52.86 69.92,-126.69 72.88,-186.17 0.07,48.64 -7.57,91.59 -28.97,135.93 -8.36,17.31 -18.5,35.35 -28.15,53.89 -30.22,76.15 -23.72,101.15 46.39,49.51 55.93,-41.2 62.52,-45.77 95.8,-47.06 35.89,-1.4 86.97,70.66 110.15,70.66 17.85,0 2.52,-77.53 -6.89,-103.02 -4.34,-8.12 -8.5,-16.13 -12.29,-23.98 -21.4,-44.34 -29.02,-87.29 -28.98,-135.93 2.99,59.48 46.48,133.31 72.91,186.17 18.05,36.11 28.79,74.79 41.48,111.3 26.59,29.63 42.76,67.05 40.57,111.96 -0.22,4.67 -0.74,9.36 -1.43,14.06 5.16,-5.86 -0.97,-5.4 5.16,-5.86 -0.45,-56.13 4.57,-129.01 16.66,-188.18 12.52,-61.26 13.52,-131.21 52.07,-184.35 -21.74,48.53 -26.66,102.73 -31.8,155.81 41.08,-3.47 100.75,-16.53 171.72,-59.55 42.89,-25.99 86.62,-61.79 118.15,-97.62 2.95,-3.81 5.76,-7.73 8.36,-11.84 8.24,-8.86 15.58,-18.46 21.75,-28.82 0.12,-0.21 0.28,-0.43 0.39,-0.64 2.04,-3.45 3.95,-6.98 5.71,-10.62 v -1.58 c 0.39,-0.41 0.84,-0.79 1.31,-1.16 2.11,-4.56 4,-9.25 5.64,-14.09 -0.19,1.85 -0.02,1.08 0.12,0.15 4.57,5.8 9.45,7.91 14.24,8.26 5.35,-0.74 10.6,-1.45 14.64,-2.89 12.04,-4.31 25.51,-11.24 36.96,-17.03 27.21,-13.74 52.79,-32.29 75.11,-52.85 46.96,-43.23 84.36,-113.16 93.58,-175.41 13.48,-91.1 -1.95,-193.66 -58.79,-267.24 -10.86,-14.08 -21.07,-19.72 -31.04,-20.07 -21.93,-0.75 -42.77,24.1 -67.36,41.02 -26.91,18.54 -51.33,40.71 -74.67,63.35 -26.99,26.16 -45.7,58.17 -71.52,84.22 7.68,-30.82 20.02,-60.2 29.26,-90.5 5.43,-17.84 12.13,-35.69 14.84,-54.17 0.96,-6.31 0.86,-13.16 0.98,-19.97 0.06,-2.26 0.12,-4.53 0.25,-6.77 -2.36,-3.81 -4.55,-7.74 -6.68,-11.72 -0.5,-1.01 -1.03,-2.02 -1.56,-3.03 -1.82,-3.54 -3.54,-7.15 -5.19,-10.81 -0.22,-0.49 -0.45,-0.97 -0.67,-1.47 -1.66,-3.78 -3.26,-7.61 -4.75,-11.51 -52.5,-42.44 -122.89,-74.65 -186.05,-85.79 2.6,0.07 5.16,0.25 7.72,0.46 -0.85,-0.14 -1.63,-0.32 -2.45,-0.46 1.35,0.01 2.64,0.06 3.97,0.08 -0.14,-0.03 -0.27,-0.06 -0.43,-0.08 63.61,0.36 106.56,14.3 162.24,30.06 -0.93,-5.31 -1.73,-10.68 -2.44,-16.08 -0.19,-1.48 -0.37,-2.98 -0.54,-4.45 -0.3,-2.48 -0.63,-4.94 -0.88,-7.42 -107.09,-42.84 -378.21,-46.48 -475.84,54.4 -13.63,28.91 -24.77,60.14 -32.81,92.18 -5.47,36.29 -6.53,73.31 -3.42,108.96 3.63,41.53 3.26,83.96 11.33,125.31 5.85,29.92 17.16,51.15 32.07,77.44 13.94,24.56 18.51,48.89 49.35,78.39 -53.24,-26.84 -113.14,-128.26 -119.69,-139.45 -6.53,11.19 -31.94,46.6 -55.23,84.14 -38.83,50.97 -61.14,53.62 -67.32,58.24 27.35,-29.24 43.14,-60.26 59.56,-89.31 14.86,-26.32 14.77,-39.53 20.62,-69.45 8.08,-41.35 7.7,-83.78 11.34,-125.31 3.1,-35.65 2.04,-72.67 -3.42,-108.96 -8.05,-32.04 -19.19,-63.27 -32.82,-92.18 -97.62,-100.88 -368.74,-97.24 -475.83,-54.4 -0.26,2.52 -0.6,5.01 -0.89,7.52 -0.18,1.43 -0.34,2.86 -0.52,4.29 -0.72,5.41 -1.52,10.81 -2.45,16.14 55.67,-15.76 98.62,-29.7 162.23,-30.06 -0.14,0.02 -0.29,0.05 -0.43,0.08 1.33,-0.02 2.61,-0.07 3.97,-0.08 -0.82,0.14 -1.61,0.32 -2.43,0.46 2.55,-0.21 5.11,-0.39 7.7,-0.46 -63.16,11.14 -133.54,43.35 -186.04,85.79 -1.5,3.93 -3.11,7.77 -4.79,11.58 -0.18,0.41 -0.38,0.81 -0.56,1.22 -1.68,3.76 -3.46,7.46 -5.33,11.1 -0.49,0.94 -0.97,1.9 -1.47,2.84 -2.14,4.01 -4.34,7.97 -6.72,11.8 0.56,8.96 -0.02,18.33 1.23,26.74 2.73,18.48 9.43,36.33 14.86,54.17 9.23,30.3 21.57,59.68 29.26,90.5 -25.83,-26.05 -44.54,-58.06 -71.53,-84.22 -23.35,-22.64 -47.75,-44.81 -74.67,-63.35 -24.58,-16.92 -45.43,-41.77 -67.36,-41.02 -9.98,0.35 -20.17,5.99 -31.04,20.07 -56.82,73.58 -72.28,176.14 -58.78,267.24 z m 566.86,710.16 c -10.94,19.11 -8.69,40.06 -10.89,62.02 -2.32,23.29 -9.74,42.05 -13.66,63.66 -4.25,23.4 7.4,29.81 28.79,30.22 3.7,-4.44 6.64,-6.77 13.64,-4.69 -8.77,29.68 -4.62,61.88 -1.48,93.06 7.25,71.93 16.05,141.12 70.68,195.41 32.79,32.59 77.76,54.58 139.27,66.69 75.24,13.73 179.21,-19.74 226.47,-66.69 54.63,-54.29 60.9,-99.79 68.15,-171.71 3.14,-31.17 9.82,-87.08 1.05,-116.76 7.02,-2.08 9.93,0.25 13.64,4.69 21.38,-0.41 33.02,-6.82 28.79,-30.22 -3.93,-21.61 -11.33,-40.37 -13.68,-63.66 -2.2,-21.96 0.06,-42.91 -10.88,-62.02 -7.87,-13.75 -35.97,-38.5 -43.78,-10.89 l -0.63,-1.88 c -5.7,30.61 0.61,64.47 8.42,108.25 13.92,78.15 -11.84,93.42 -11.84,93.42 20.92,-59.28 -22.11,-105.81 -18.85,-163.45 0.57,-10.11 2.72,-20.11 5.04,-30.2 0.24,-39.42 -2.89,-90.07 -33.3,-99.41 8.32,37.22 -5.68,82.27 -5.68,119.04 0,-52.45 2.38,-95.7 -38.65,-132.78 -7.21,-3.86 -115.73,-72.15 -240.89,-11.82 -59.33,15.21 -57.01,131.78 -57.01,144.6 0,-9.25 -17.9,-89.31 -5.6,-127.02 -21.46,16.34 -36.69,39.87 -42.42,65.99 0.76,25.04 10.66,48.01 11.99,71.6 3.25,57.64 -39.78,104.17 -18.86,163.45 0,0 -13.91,-21.27 -7.16,-100.36 4.16,-48.68 9.44,-70.7 3.75,-101.31 l -0.62,1.88 c -7.83,-27.61 -35.93,-2.86 -43.8,10.89 z m 1209.52,-2428.65 -0.97,-7.71 c -0.08,0.39 -0.16,0.79 -0.22,1.19 0.47,2.15 0.88,4.32 1.19,6.52 z m 193.48,-4.59 c 2.09,-14.17 2.23,-29.13 0.8,-43.69 -1.52,-5.14 -3.07,-10.3 -4.59,-15.45 -0.37,-1.25 -0.74,-2.51 -1.11,-3.77 -34.18,7.83 -68.67,16.11 -103.5,23.4 -25.06,5.3 -50.21,9.95 -75.41,14.36 -2.73,19.43 -6.23,37.15 -7.4,47.21 l -1.53,-11.8 c 1.08,11.01 0.57,22.31 -0.8,33.64 65.18,-13.27 129.73,-27.95 193.54,-43.9 z m 50.35,536.17 c -96.01,-199.26 -135.21,-333.1 -169.47,-484.26 -4.45,0.98 -8.95,1.89 -13.4,2.86 58.77,210.28 125.59,378.21 182.87,481.4 z m 302.93,62.66 c 1.43,-0.36 2.87,-0.95 4.3,-1.75 0,-0.01 0.02,-0.02 0.02,-0.02 1.42,-0.8 2.83,-1.82 4.22,-3.07 0,0 0,-0.01 0.02,-0.02 8.35,-7.58 16.01,-23.47 21.42,-49.56 -1.33,0.54 5.7,-50.6 7.68,-71.46 0.1,-2.87 0.21,-5.74 0.27,-8.71 -19.08,151.12 -128.5,141.16 -187.95,156.08 -2.95,11.63 -3.47,10.36 -7.67,19.04 z m 172.72,-152.04 c 16.46,-4.23 37.5,-85.7 45.62,-121.19 0,-0.02 0,-0.04 0,-0.06 -32.11,126.67 -108.77,113.92 -156.86,128.65 0,0.58 -0.01,1.11 -0.03,1.7 0.02,9.6 -0.08,9.74 -0.43,19.53 47.18,-12.1 93.96,-24.1 111.7,-28.63 z m 64.08,-306.03 c 0.43,-1.2 0.13,-1.78 -0.22,-2.11 0.06,0.7 0.16,1.41 0.22,2.11 z m 7.24,114.77 c 0,0.02 0,0.03 0,0.03 0.04,2.16 0.08,4.29 0.1,6.41 v 0 c 0.08,6.88 0.1,13.69 0.02,20.31 24.49,-6.3 48.6,-12.49 67.66,-17.39 l 31.95,-8.2 c 17.34,-4.43 41.39,-63.91 51.35,-137.48 0,0 0,0 0,-0.01 -30.63,112.47 -55.43,129.38 -150.96,142.78 l -0.02,-0.01 c -0.02,-2.13 -0.04,-4.28 -0.1,-6.44 0.55,-2.76 1.02,-5.36 -0.06,-5.25 0.04,1.76 0.06,3.49 0.06,5.25 z m 242.5,-242.2 c -10.31,2.77 -34.31,9.33 -60.93,16.58 -2.56,0.71 -5.18,1.41 -7.78,2.12 1.41,25.07 1.86,49.06 1.23,71.56 -2.87,104.03 -26.89,164.77 -69.49,175.68 l -31.95,8.19 c -20.74,5.33 -47.42,12.17 -74.12,19.03 -3.87,90.36 -23.77,152.29 -65,162.87 -18.64,4.77 -69.38,17.77 -118.93,30.48 -5.66,72.99 -23.63,113.83 -53.79,121.56 l -197.42,50.63 c -3.3,0.84 -6.74,1.28 -10.2,1.28 -90.03,0 -219.62,-303.31 -306.75,-613.69 -14.03,2.96 -28.07,5.91 -42.15,8.74 -2.62,13.65 -5.65,26.92 -7.64,39.19 -4.26,26.16 -9.94,49.05 -14.41,72.47 -2.33,15.26 -3.91,31.07 -3.93,48.55 -0.06,37.14 20.65,86.05 28.77,120.29 32.01,105.32 71.56,173.7 71.47,301.08 -0.02,39.83 -4.48,75.96 1.11,113.9 2.09,14.14 5.12,28.16 8.28,42.26 5.29,23.48 11,47.17 13.42,71.89 7.69,79.28 3.07,153.14 -26.23,227.58 -9.1,23.15 -15.84,46.32 -19.83,68.36 0.61,3.64 1.2,7.24 1.74,10.8 1.66,10.66 2.93,20.87 3.28,30.19 2.23,58.43 -3,113.19 -13.55,168.59 -10.2,53.58 -18.73,114.04 -40.98,164.26 -12.52,28.23 -49.9,66.91 -65.84,99.23 0.74,83.48 -19.27,178.75 -68.22,235.54 -29.65,34.42 -65.12,59.75 -104.84,77.56 -30.43,14.24 -49.98,21.72 -82.89,27.76 -55.24,126.82 -256.47,222.51 -348.01,229.36 -0.53,4.57 -0.94,9.17 -1.25,13.82 -0.51,0.37 -1.06,0.75 -1.54,1.12 -0.57,4.37 -1.14,8.73 -1.78,13.06 -7.05,48.3 -25.04,114.12 -2.7,160.72 6.43,3.52 12.21,9.26 16.25,16.41 11.82,20.9 5.69,47.35 9.01,70.74 3.51,24.81 17.42,46.81 16.05,72.79 -0.8,15.31 -1.21,-12.03 -0.8,15.31 0.31,19.38 -9.73,32.89 -22.85,25.91 -1.04,35.28 -4.61,63.98 -8.24,100.01 -3.5,34.61 -12.78,81.4 -24.07,115.57 -25.74,78.01 -101.66,110.31 -164.29,134.29 -42.31,16.2 -131.68,18.79 -182.44,-0.82 -62.56,-24.15 -111.6,-69.75 -138.09,-133.47 -13.8,-33.23 -26.51,-80.96 -29.98,-115.57 -3.63,-36.03 -7.22,-64.73 -8.24,-100.01 -13.12,6.98 -23.16,-6.53 -22.86,-25.91 0.42,-27.34 0,0 -0.81,-15.31 -1.36,-25.98 12.55,-47.98 16.06,-72.79 3.32,-23.39 -2.82,-49.84 9,-70.74 4.05,-7.15 9.83,-12.89 16.27,-16.41 22.34,-46.6 4.33,-112.42 -2.72,-160.72 -0.63,-4.33 -1.21,-8.69 -1.76,-13.06 -0.02,0 -0.04,-0.02 -0.05,-0.03 1.35,-1.64 2.08,-3.85 1.38,-6.6 -0.77,-3.07 -1.69,-6.03 -2.52,-9.05 -110.71,-7.09 -184.82,-58.19 -235.36,-95.02 -60.39,-44.01 -118.62,-120.53 -126.85,-133.6 -32.89,-6.04 -39.85,-13.52 -70.26,-27.75 -39.75,-17.81 -75.23,-43.14 -104.88,-77.57 -48.94,-56.79 -68.96,-152.06 -68.23,-235.54 -15.92,-32.32 -53.31,-71 -65.82,-99.23 -22.25,-50.22 -30.79,-110.68 -40.99,-164.26 -10.55,-55.4 -15.78,-110.16 -13.55,-168.59 0.48,-12.44 2.58,-26.43 5.03,-40.99 -3.98,-22.04 -10.74,-45.21 -19.84,-68.36 -29.29,-74.44 -33.92,-148.3 -26.22,-227.58 3.85,-39.55 16.14,-76.45 21.68,-114.15 5.59,-37.94 1.15,-74.07 1.12,-113.9 -0.1,-150.1 18.12,-163.26 78.51,-316.69 8.13,-34.23 21.78,-67.54 21.73,-104.68 -0.06,-51.89 -13.38,-89.61 -21.42,-139.06 -1.99,-12.25 -5,-25.49 -7.61,-39.11 -14.1,-2.84 -28.15,-5.79 -42.2,-8.76 -87.12,310.36 -216.7,613.64 -306.723,613.64 -3.473,0 -6.903,-0.44 -10.2,-1.28 l -197.425,-50.64 c -30.168,-7.73 -48.125,-48.57 -53.786,-121.56 -49.562,-12.72 -100.293,-25.71 -118.945,-30.48 -41.211,-10.58 -61.101,-72.52 -64.988,-162.88 -26.699,-6.85 -53.383,-13.7 -74.121,-19.03 l -31.949,-8.19 c -42.598,-10.91 -66.629,-71.65 -69.493,-175.66 -0.613,-22.51 -0.164,-46.5 1.227,-71.57 -2.594,-0.71 -5.203,-1.42 -7.758,-2.12 -26.617,-7.26 -50.644,-13.8 -60.941,-16.58 -71.211,-19.41 -73.364,-179.39 -34.289,-322.851 41.379,-152.18 116.839,-262.617 179.429,-262.617 4.684,0 9.301,0.609 13.696,1.808 8.968,2.41 38.726,10.5 68.968,18.731 49.649,-92.391 102.426,-148.879 146.586,-148.879 4.543,0 9.035,0.558 13.367,1.668 l 100.762,25.879 c 45.906,-80.867 92.653,-132.508 133.942,-132.508 4.097,0 8.152,0.488 12.07,1.508 15.461,3.98 74.305,19.082 125.251,32.14 30.3,-42.699 59.3,-67.539 85.05,-67.539 3.47,0 6.9,0.442 10.2,1.282 l 210.2,53.91 -0.85,2.16 c 35.73,22.719 49.77,103.898 41.58,242.277 -6.95,117.602 -29.72,263.383 -64.99,418.441 8.32,-6.1 19.6,-10.68 31.09,-14.22 10.49,-3.24 21.12,-5.62 29.71,-7.53 0.23,-0.05 0.44,-0.03 0.67,-0.08 10.74,-2.14 20.99,1.37 30.7,4.28 6.75,2.02 13.26,3.72 19.45,2.94 0,0 1.37,-8.86 12.32,-15.51 4.43,-2.7 10.37,-5.04 18.5,-6.28 14,0 23.84,8.68 25.29,16.04 14.37,2.41 44.71,-32.62 64.18,9.34 0.15,0.34 0.32,0.65 0.48,1 0.64,-0.11 1.21,-0.2 1.83,-0.33 32.61,-6.19 39.15,4.07 55.39,31.67 8.18,13.9 27.78,35.94 34.39,55.1 225.89,31.46 423.25,41.71 658.59,41.71 143.89,0 322.21,-0.62 463.94,-12.79 32.35,-4.07 64.75,-8.36 97.1,-12.94 7.22,-18.67 25.74,-39.63 33.63,-53.04 12.26,-20.83 18.98,-31.79 35.55,-33.24 5.82,-0.51 12.79,0.11 21.65,1.91 19.44,-43.6 50.2,-7.92 64.67,-10.35 1.47,-7.36 11.29,-16.04 25.3,-16.04 1.66,0.27 3.24,0.56 4.72,0.9 5.1,1.17 9.2,2.79 12.52,4.63 12.13,6.72 13.58,16.25 13.58,16.25 15.29,1.95 32.34,-11.23 50.82,-7.13 8.59,1.91 19.21,4.3 29.72,7.54 11.47,3.54 22.76,8.12 31.08,14.2 -35.28,-155.049 -58.05,-300.83 -65,-418.432 -8.19,-138.379 5.86,-219.566 41.58,-242.277 l -0.86,-2.152 210.22,-53.918 c 3.3,-0.852 6.73,-1.282 10.19,-1.282 25.76,0 54.75,24.852 85.04,67.539 50.96,-13.058 109.8,-28.148 125.25,-32.128 3.93,-1.008 7.99,-1.52 12.09,-1.52 41.27,0 88.03,51.641 133.95,132.5 l 100.74,-25.871 c 4.34,-1.109 8.85,-1.668 13.38,-1.668 44.16,0 96.93,56.5 146.58,148.891 30.25,-8.223 60,-16.321 68.99,-18.743 4.37,-1.199 9,-1.808 13.67,-1.808 62.59,0 138.06,110.437 179.43,262.629 39.06,143.45 36.94,303.44 -34.28,322.84"
         style="fill:#000000;fill-opacity:1;fill-rule:nonzero;stroke:none"
         id="path76" /><path
         d="m 3060.47,1312.13 c -1.29,8.43 -2.7,16.8 -3.79,24.33 -0.02,0.01 -0.06,0.01 -0.08,0.02 -0.47,3.68 -0.88,7.08 -1.15,9.98 -0.16,1.75 -0.29,3.37 -0.37,4.78 -1.58,30.25 -1.58,30.25 6.07,91.13 l -3.02,-12.15 c -18.87,-51.56 -18.54,-171.81 5.6,-196.76 5.18,11.65 0.43,48.2 -3.83,78.77 0.2,-0.04 0.39,-0.07 0.57,-0.1"
         style="fill:#000000;fill-opacity:1;fill-rule:nonzero;stroke:none"
         id="path78" /><path
         d="m 3007.15,1391.2 c -7.35,-52.1 -18.32,-87.67 -13.11,-155.38 l 3.05,-6.08 c 15.55,36.01 17.62,52.75 18.85,76.59 1.85,35.95 -9.83,48.99 -8.79,84.87"
         style="fill:#000000;fill-opacity:1;fill-rule:nonzero;stroke:none"
         id="path80" /><path
         d="m 3082.79,1436.3 c -4.69,-72.28 -1.42,-119.02 23.66,-173.14 -8.99,27.55 -10.12,53.11 -9.77,79.17 l 0.64,-9.31 c -0.29,3.06 -0.43,6.27 -0.64,9.42 0.31,22.02 1.64,44.41 0.27,68.66 5.04,77.34 24.4,162.72 50.8,224.83 -32.28,-58.91 -62.32,-144.72 -64.96,-199.63"
         style="fill:#000000;fill-opacity:1;fill-rule:nonzero;stroke:none"
         id="path82" /></g></g></svg>
