<?xml version="1.0" encoding="UTF-8" standalone="no"?>
<!-- Created with Inkscape (http://www.inkscape.org/) -->

<svg
   version="1.1"
   id="svg2"
   xml:space="preserve"
   width="764.20001"
   height="547.96002"
   viewBox="0 0 764.20001 547.96002"
   sodipodi:docname="mail.eps"
   xmlns:inkscape="http://www.inkscape.org/namespaces/inkscape"
   xmlns:sodipodi="http://sodipodi.sourceforge.net/DTD/sodipodi-0.dtd"
   xmlns="http://www.w3.org/2000/svg"
   xmlns:svg="http://www.w3.org/2000/svg"><defs
     id="defs6" /><sodipodi:namedview
     id="namedview4"
     pagecolor="#ffffff"
     bordercolor="#666666"
     borderopacity="1.0"
     inkscape:pageshadow="2"
     inkscape:pageopacity="0.0"
     inkscape:pagecheckerboard="0" /><g
     id="g8"
     inkscape:groupmode="layer"
     inkscape:label="ink_ext_XXXXXX"
     transform="matrix(1.3333333,0,0,-1.3333333,0,547.96)"><g
       id="g10"
       transform="scale(0.1)"><path
         d="M 2032.47,634.629 492.746,1169.25 853.098,2207.08 2392.82,1672.45 2032.47,634.629"
         style="fill:#e7e8e5;fill-opacity:1;fill-rule:nonzero;stroke:none"
         id="path12" /><path
         d="m 2392.82,1672.45 c 0.18,-0.47 -6.41,-3.49 -19.13,-8.82 -14.1,-5.73 -32.69,-13.27 -55.91,-22.68 -50.31,-19.69 -120.56,-47.18 -206.79,-80.93 -176.54,-67.55 -418.2,-160.01 -685.86,-262.42 l -5.64,-2.16 -3.24,5.13 c -2.47,3.91 -5.15,8.15 -7.83,12.4 -154.01,245.7 -293.38,468.06 -395.28,630.63 -49.339,80.04 -89.558,145.28 -118.351,192 -13.109,21.86 -23.601,39.35 -31.543,52.6 -7.07,12.11 -10.578,18.61 -10.148,18.88 0.429,0.27 4.781,-5.69 12.668,-17.29 8.539,-12.87 19.808,-29.87 33.89,-51.12 29.762,-46.1 71.332,-110.49 122.334,-189.5 102.84,-161.96 243.51,-383.5 398.95,-628.3 2.68,-4.25 5.35,-8.49 7.82,-12.4 l -8.87,2.97 c 268.26,100.8 510.46,191.81 687.41,258.31 86.93,31.92 157.75,57.92 208.45,76.54 23.63,8.34 42.55,15.03 56.89,20.1 13.06,4.43 20,6.54 20.18,6.06"
         style="fill:#dadbd8;fill-opacity:1;fill-rule:nonzero;stroke:none"
         id="path14" /><path
         d="m 492.742,1169.25 c -2.086,3.52 163.098,105.58 368.899,227.93 205.879,122.39 374.409,218.74 376.499,215.22 2.08,-3.5 -163.06,-105.54 -368.933,-227.93 C 663.402,1262.1 494.832,1165.74 492.742,1169.25"
         style="fill:#dadbd8;fill-opacity:1;fill-rule:nonzero;stroke:none"
         id="path16" /><path
         d="m 1754.45,1447.67 c 3.87,1.33 69.24,-179.62 146.01,-404.1 76.78,-224.558 135.88,-407.621 132.01,-408.941 -3.87,-1.32 -69.23,179.59 -146.02,404.151 -76.75,224.47 -135.86,407.57 -132,408.89"
         style="fill:#dadbd8;fill-opacity:1;fill-rule:nonzero;stroke:none"
         id="path18" /><path
         d="m 5570.72,1449.66 -1523.54,-258.14 -174.01,1026.92 1523.55,258.14 174,-1026.92"
         style="fill:#dadbd8;fill-opacity:1;fill-rule:nonzero;stroke:none"
         id="path20" /><path
         d="m 5396.72,2476.59 c 0.37,-0.32 -3.73,-5.85 -11.87,-16.08 -9.11,-11.19 -21.11,-25.93 -36.12,-44.36 -32.82,-39.3 -78.67,-94.2 -134.94,-161.59 -115.91,-136.68 -274.55,-323.78 -450.28,-531 l -3.71,-4.38 -5.03,2.79 c -3.83,2.13 -8,4.43 -12.15,6.74 -240.1,133.94 -457.37,255.14 -616.24,343.76 -77.52,44.02 -140.71,79.89 -185.95,105.58 -20.86,12.19 -37.56,21.94 -50.21,29.33 -11.4,6.84 -17.28,10.63 -17.05,11.06 0.24,0.41 6.57,-2.55 18.42,-8.59 12.97,-6.81 30.09,-15.8 51.48,-27.03 45.78,-24.73 109.7,-59.28 188.13,-101.68 159.36,-87.68 377.34,-207.62 618.21,-340.16 4.16,-2.31 8.32,-4.61 12.16,-6.74 l -8.73,-1.58 c 176.96,206.17 336.73,392.31 453.45,528.3 57.68,66.19 104.67,120.1 138.32,158.71 15.83,17.72 28.5,31.9 38.1,42.66 8.84,9.65 13.65,14.56 14.01,14.26"
         style="fill:#e7e8e5;fill-opacity:1;fill-rule:nonzero;stroke:none"
         id="path22" /><path
         d="m 4047.18,1191.51 c -3.34,1.97 87.38,162.14 202.59,357.73 115.26,195.65 211.37,352.61 214.71,350.64 3.33,-1.97 -87.36,-162.11 -202.62,-357.76 -115.22,-195.58 -211.34,-352.58 -214.68,-350.61"
         style="fill:#e7e8e5;fill-opacity:1;fill-rule:nonzero;stroke:none"
         id="path24" /><path
         d="m 4968.74,1998.53 c 2.61,2.86 139.49,-117.7 305.7,-269.24 166.27,-151.59 298.89,-276.77 296.28,-279.63 -2.61,-2.86 -139.46,117.67 -305.73,269.26 -166.21,151.54 -298.87,276.75 -296.25,279.61"
         style="fill:#e7e8e5;fill-opacity:1;fill-rule:nonzero;stroke:none"
         id="path26" /><path
         d="m 4634.56,3004.61 -1035.44,407.14 274.43,697.92 1035.43,-407.15 -274.42,-697.91"
         style="fill:#e7e8e5;fill-opacity:1;fill-rule:nonzero;stroke:none"
         id="path28" /><path
         d="m 4908.99,3692.83 c 0.12,-0.33 -4.46,-2.21 -13.29,-5.5 -9.77,-3.51 -22.66,-8.14 -38.76,-13.92 -34.85,-12.03 -83.52,-28.85 -143.28,-49.49 -122.28,-41.2 -289.65,-97.59 -475.04,-160.06 l -3.91,-1.31 -2.07,3.59 c -1.57,2.74 -3.28,5.7 -4.99,8.67 -98.27,171.83 -187.18,327.33 -252.2,441.03 -31.45,55.96 -57.07,101.57 -75.42,134.23 -8.34,15.27 -15.01,27.49 -20.07,36.75 -4.49,8.46 -6.7,12.98 -6.4,13.16 0.31,0.17 3.11,-4.02 8.17,-12.14 5.47,-9.02 12.68,-20.93 21.7,-35.8 19.03,-32.27 45.6,-77.34 78.21,-132.63 65.67,-113.31 155.5,-268.3 254.76,-439.56 1.71,-2.97 3.42,-5.94 4.99,-8.67 l -5.96,2.27 c 185.75,61.35 353.46,116.74 475.98,157.21 60.18,19.37 109.19,35.15 144.29,46.45 16.36,5.04 29.44,9.07 39.37,12.14 9.02,2.67 13.81,3.91 13.92,3.58"
         style="fill:#dadbd8;fill-opacity:1;fill-rule:nonzero;stroke:none"
         id="path30" /><path
         d="m 3599.13,3402.06 c -1.33,2.45 114.16,67.5 257.9,145.28 143.8,77.79 261.42,138.86 262.74,136.4 1.32,-2.45 -114.13,-67.49 -257.93,-145.29 -143.75,-77.77 -261.38,-138.84 -262.71,-136.39"
         style="fill:#dadbd8;fill-opacity:1;fill-rule:nonzero;stroke:none"
         id="path32" /><path
         d="m 4467.38,3557.14 c 2.68,0.79 42.27,-124.43 88.43,-279.67 46.18,-155.28 81.42,-281.76 78.76,-282.56 -2.68,-0.79 -42.27,124.4 -88.44,279.69 -46.16,155.23 -81.43,281.74 -78.75,282.54"
         style="fill:#dadbd8;fill-opacity:1;fill-rule:nonzero;stroke:none"
         id="path34" /><path
         d="M 5731.55,8.01172 C 5731.55,6.57031 4448.4,5.39844 2865.91,5.39844 1282.88,5.39844 0,6.57031 0,8.01172 c 0,1.4375 1282.88,2.60938 2865.91,2.60938 1582.49,0 2865.64,-1.17188 2865.64,-2.60938"
         style="fill:#17282f;fill-opacity:1;fill-rule:nonzero;stroke:none"
         id="path36" /><path
         d="m 282.781,2734.21 143.172,50.71 -61.441,82.05 c -1.047,5.38 -4.266,24.33 -4.403,54.92 -0.039,9.46 1.618,18.85 4.746,27.79 3.793,10.82 9.418,25 14.915,31.81 6.796,8.42 -0.188,20.73 -9.688,18.2 -9.504,-2.52 -28.789,-25.28 -37.32,-59.07 -8.524,-33.8 -31.672,15.93 -40.43,33.89 -8.762,17.97 -38.469,72.29 -46.121,73.97 -11.234,2.47 -15.945,-9.11 -6.777,-26.85 9.273,-17.96 32.898,-72.87 23.187,-77.04 -9.566,-4.11 -52.906,87.97 -52.906,87.97 0,0 -6.078,21.18 -17.461,16.74 -20.531,-8.01 32.75,-102.51 38.035,-111.37 3.684,-6.17 -6.707,-11.07 -10.301,-4.25 -3.707,7.04 -41.093,92.86 -62.082,84.9 -16.097,-6.11 43.106,-78.13 40.973,-100.25 -1.156,-11.96 -12.57,6.34 -25.207,24.63 -10.727,15.53 -22.328,31.06 -29.274,28.09 -5.64,-2.4 -9.511,-4.98 18.598,-48.58 9.508,-14.75 26.567,-36.47 45.113,-58.91 h -0.015 l 74.687,-129.35"
         style="fill:#f8a58d;fill-opacity:1;fill-rule:nonzero;stroke:none"
         id="path38" /><path
         d="m 1569.85,2559.33 c 0,0 -70.54,164.87 -119.3,244.95 -45.88,75.38 -106.66,87.63 -139.04,89.91 -24.48,7.16 -41.26,8.44 -41.26,8.44 l -264.92,2.25 c 0,0 -82.267,4.32 -158.103,-57.96 -12.219,-10.04 -103.786,-116.2 -225.219,-267.43 l -212.524,229.64 -126.703,-74.92 c 0,0 137.617,-475.12 310.289,-442.49 102.309,19.33 182.317,90.57 182.317,90.57 l 134.453,108.37 3.117,-17.96 c 2.719,-21.91 9.535,-57.3 14.676,-78.77 16.258,-67.86 25.297,-157.27 -9.621,-216.5 0,0 -47.922,-36.64 -9.809,-76.96 h 498.447 c 0,0 70.61,47.86 6.15,101.11 l -40.4,101.14 26.11,123.39 9.78,49.41 43.84,-75.19 c 0,0 86.85,-109.26 177.13,-95.83 108.55,16.16 171.46,213.87 73.48,475.26 l -118.01,-35.9 -14.88,-184.53"
         style="fill:#f03d5f;fill-opacity:1;fill-rule:nonzero;stroke:none"
         id="path40" /><path
         d="m 436.039,2780.44 -26.555,28.69 26.559,-28.69"
         style="fill:#8c8f8f;fill-opacity:1;fill-rule:nonzero;stroke:none"
         id="path42" /><path
         d="m 295.301,2694.56 -12.52,39.65 v 0 l 126.703,74.92 26.555,-28.69 -140.738,-85.88"
         style="fill:#9c2438;fill-opacity:1;fill-rule:nonzero;stroke:none"
         id="path44" /><path
         d="m 921.328,2183.39 -0.113,0.04 c 4.488,8.8 8.332,18.11 11.394,28.01 0.063,0.18 0.121,0.36 0.18,0.54 -2.98,-10.03 -6.762,-19.62 -11.461,-28.59"
         style="fill:#c3c5c2;fill-opacity:1;fill-rule:nonzero;stroke:none"
         id="path46" /><path
         d="m 918.012,2177.43 c 1.101,1.97 2.168,3.97 3.203,6 l 0.113,-0.04 c -1.058,-2.02 -2.164,-4 -3.316,-5.96"
         style="fill:#b1b3b1;fill-opacity:1;fill-rule:nonzero;stroke:none"
         id="path48" /><path
         d="m 936.762,2347.63 c -0.028,0.14 -0.051,0.28 -0.078,0.42 -1.797,9.64 -4.164,22.24 -6.715,35.75 2.57,-11.61 4.89,-23.75 6.793,-36.17"
         style="fill:#c3c5c2;fill-opacity:1;fill-rule:nonzero;stroke:none"
         id="path50" /><path
         d="m 918.012,2177.43 v 0 c 1.152,1.96 2.258,3.94 3.316,5.96 4.699,8.97 8.481,18.56 11.461,28.59 13.496,40.97 11.231,96.4 3.973,135.65 -1.903,12.42 -4.223,24.56 -6.793,36.17 -7.813,41.41 -17.324,91.44 -17.324,91.44 1.855,0.81 3.695,1.17 5.511,1.17 11.75,0 22.535,-15.38 30.539,-25.75 9.243,-11.97 16.387,-26.58 29.731,-33.7 16.379,-8.72 37.824,-3.65 53.544,-13.5 12.88,-8.07 18.36,-24 20.79,-39.01 6.88,-42.57 -4.11,-87.74 -29.79,-122.39 -25.669,-34.64 -62.232,-58.83 -104.958,-64.63"
         style="fill:#da314b;fill-opacity:1;fill-rule:nonzero;stroke:none"
         id="path52" /><path
         d="m 602.012,2498.35 c -1.571,0.24 0.949,19.08 7.386,41.29 6.418,22.16 11.215,40.07 12.618,39.85 1.562,-0.23 -0.957,-19.07 -7.395,-41.29 -6.414,-22.16 -11.215,-40.06 -12.609,-39.85"
         style="fill:#17282f;fill-opacity:1;fill-rule:nonzero;stroke:none"
         id="path54" /><path
         d="m 633.527,2520.3 c -1.464,-0.3 -5.328,12.74 -8.629,29.11 -3.293,16.38 -4.777,29.89 -3.312,30.18 1.465,0.3 5.332,-12.73 8.629,-29.11 3.293,-16.37 4.777,-29.89 3.312,-30.18"
         style="fill:#17282f;fill-opacity:1;fill-rule:nonzero;stroke:none"
         id="path56" /><path
         d="m 1584.13,3102.39 -180.96,-293.26 142.42,-39.61 157.98,243.64 -119.44,89.23"
         style="fill:#33535f;fill-opacity:1;fill-rule:nonzero;stroke:none"
         id="path58" /><path
         d="m 1572.83,2852.56 6.19,-42.87 25.24,-32.49 2.54,-26.63 90.79,27.62 -36.69,129.54 c 0,0 5.89,37.72 3.54,53.04 l -24.94,-33.14 -6.88,54 -51.19,41.15 c -5.55,4.14 -13.42,2.93 -17.48,-2.69 -3.59,-4.96 -3.01,-11.8 1.36,-16.1 l 41.07,-36.22 2.66,-44.72 -29.7,27.66 c -2.93,2.72 -6.55,4.58 -10.48,5.37 l -41.28,8.25 c -6.24,1.25 -12.19,-3.15 -12.83,-9.48 -0.51,-5.1 2.65,-9.85 7.55,-11.36 l 37.54,-11.55 38.01,-38.35 -37.13,14.14 -50.5,-7.06 c -4.83,-0.68 -8.43,-4.82 -8.43,-9.7 0,-5.62 4.72,-10.08 10.33,-9.77 l 32.1,1.78 18.86,-5.89 -43.44,-11.5 c -4,-1.06 -6.72,-4.78 -6.51,-8.91 0.24,-4.95 4.54,-8.71 9.48,-8.3 l 50.22,4.18"
         style="fill:#f8a58d;fill-opacity:1;fill-rule:nonzero;stroke:none"
         id="path60" /><path
         d="m 1580.86,2695.83 3.87,48.03 22.07,6.72 v -0.01 l 90.79,27.62 5.15,1.57 15.8,-45.96 -137.68,-37.97"
         style="fill:#9c2438;fill-opacity:1;fill-rule:nonzero;stroke:none"
         id="path62" /><path
         d="m 1606.8,2750.57 v 0.01 l 90.79,27.61 -90.79,-27.62"
         style="fill:#996152;fill-opacity:1;fill-rule:nonzero;stroke:none"
         id="path64" /><path
         d="m 1403.17,2809.13 c 0,0 -12.16,16.53 -11.22,19.33 0.94,2.82 172.23,284.73 172.23,284.73 l 19.95,-10.8 -180.96,-293.26"
         style="fill:#17282f;fill-opacity:1;fill-rule:nonzero;stroke:none"
         id="path66" /><path
         d="m 1629.45,3028.69 c 3.06,3.06 9.22,1.5 10.45,-2.65 1.24,-4.14 -3.07,-8.81 -7.3,-7.93 -4.23,0.89 -6.29,6.9 -3.5,10.2"
         style="fill:#17282f;fill-opacity:1;fill-rule:nonzero;stroke:none"
         id="path68" /><path
         d="m 1516.11,2666.83 c 0,0 -1.16,-2.89 -5.23,-7.04 -4.02,-4.12 -11.48,-9.06 -22.26,-11.57 -10.71,-2.73 -24.51,-2.57 -39.74,0.03 -15.17,2.13 -32.67,6.51 -51.27,2.3 -18.63,-4.08 -36.46,-16.01 -54.16,-30.15 -17.88,-13.74 -36.75,-30.7 -62.19,-38.71 -12.67,-3.59 -26.36,-4.8 -40.03,-3.14 -13.64,1.81 -27,6.01 -40.11,11.13 -26.23,10.31 -51.4,24.8 -78.94,34.81 -13.78,4.94 -27.84,8.3 -41.91,9.31 -14.09,0.88 -28.08,-0.7 -41.59,-3.51 -27.08,-5.6 -52.461,-15.04 -77.797,-20.4 -51.117,-11.49 -99.453,0.28 -133.715,18.49 -34.816,18.31 -56.965,42.18 -69.598,59.78 -12.539,17.9 -16.652,29.35 -16.652,29.35 0.645,0.35 5.434,-10.79 18.352,-28.1 13.007,-17.02 35.25,-40.08 69.648,-57.62 33.918,-17.46 81.117,-28.49 130.898,-17.03 24.864,5.39 50.164,14.93 77.804,20.73 13.77,2.91 28.26,4.59 42.98,3.69 14.71,-1.03 29.32,-4.53 43.41,-9.59 28.15,-10.25 53.34,-24.81 79.06,-34.97 12.85,-5.06 25.8,-9.15 38.82,-10.94 13.04,-1.63 25.93,-0.52 37.94,2.8 24.04,7.37 42.8,23.77 60.87,37.47 17.88,14.03 36.44,26.3 56.1,30.35 19.79,4.15 37.58,-0.71 52.57,-3.05 15.09,-2.87 28.3,-3.3 38.79,-0.98 10.51,2.13 17.82,6.57 21.97,10.32 4.19,3.77 5.73,6.42 5.98,6.24"
         style="fill:#fafaf9;fill-opacity:1;fill-rule:nonzero;stroke:none"
         id="path70" /><path
         d="m 1572.75,2476.35 c -1.5,-0.05 -3.33,19.81 -4.09,44.35 -0.76,24.55 -0.17,44.47 1.32,44.52 1.5,0.05 3.33,-19.81 4.1,-44.35 0.76,-24.54 0.17,-44.48 -1.33,-44.52"
         style="fill:#17282f;fill-opacity:1;fill-rule:nonzero;stroke:none"
         id="path72" /><path
         d="M 1260.83,637.66 C 1265.22,620.309 1367.2,48.3984 1367.2,48.3984 l 156.24,11.6914 -28.55,583.9802 -234.06,-6.41"
         style="fill:#f8a58d;fill-opacity:1;fill-rule:nonzero;stroke:none"
         id="path74" /><path
         d="M 1528.18,51.0195 1527.69,67.4609 1361.18,64 l 1,-54.21094 10.29,-0.41797 c 45.79,-1.51171 232.97,-4.64062 263.35,4.55081 33.88,10.2578 -107.64,37.0976 -107.64,37.0976"
         style="fill:#f03d5f;fill-opacity:1;fill-rule:nonzero;stroke:none"
         id="path76" /><path
         d="m 1361.36,53.9609 -0.02,1.0977 v 0 l 0.02,-1.0977"
         style="fill:#a7a9a8;fill-opacity:1;fill-rule:nonzero;stroke:none"
         id="path78" /><path
         d="m 1362.29,11.9883 -0.93,41.9726 -0.02,1.0977 c 1.76,0.1719 3.52,0.25 5.27,0.25 12.14,0 23.88,-3.8984 33.73,-10.7188 10.77,-7.4609 18.53,-18.5781 21.52,-30.7382 l -59.5,-0.6133 -0.07,-1.25 v 0"
         style="fill:#ba2c42;fill-opacity:1;fill-rule:nonzero;stroke:none"
         id="path80" /><path
         d="m 1469.27,7.25 c -40.29,0 -79.45,0.78906 -107.09,2.53906 v 0 l 10.29,-0.41797 c 21.31,-0.69921 73.24,-1.75 125.73,-1.75 7.84,0 15.69,0.01954 23.45,0.07032 C 1504.55,7.39844 1486.81,7.25 1469.27,7.25"
         style="fill:#0f191d;fill-opacity:1;fill-rule:nonzero;stroke:none"
         id="path82" /><path
         d="m 1634.38,13.5195 c 0.51,0.1289 0.99,0.2618 1.44,0.4024 4.71,1.4297 6.03,3.1679 4.81,5.1289 1.02,-1.1992 1.26,-2.3516 0.43,-3.4102 -0.58,-0.75 -2.9,-1.4609 -6.68,-2.1211 m -25.04,18.8321 c -3.83,1.1093 -7.85,2.1992 -11.97,3.2773 0.01,0 0.01,0 0.01,0 0,0 5.16,-1.2773 11.96,-3.2773"
         style="fill:#a7a9a8;fill-opacity:1;fill-rule:nonzero;stroke:none"
         id="path84" /><path
         d="m 1498.2,7.62109 c -52.49,0 -104.42,1.05079 -125.73,1.75 l -10.29,0.41797 0.11,2.19924 59.96,0.1328 c -0.12,0.5781 -0.25,1.1484 -0.39,1.7305 l 161.31,1.6601 c 0,0 4.56,19.5469 14.2,20.1172 4.12,-1.0781 8.14,-2.168 11.97,-3.2773 11.37,-3.3321 27.3,-8.6524 31.29,-13.3008 1.22,-1.961 -0.1,-3.6992 -4.81,-5.1289 -0.45,-0.1406 -0.93,-0.2735 -1.44,-0.4024 -16.66,-2.9179 -61.82,-4.98044 -112.73,-5.82809 -7.76,-0.05078 -15.61,-0.07032 -23.45,-0.07032"
         style="fill:#ba2c42;fill-opacity:1;fill-rule:nonzero;stroke:none"
         id="path86" /><path
         d="m 1362.29,11.9883 0.07,1.25 59.5,0.6133 c 0.14,-0.5821 0.27,-1.1524 0.39,-1.7305 l -59.96,-0.1328"
         style="fill:#7a1a2b;fill-opacity:1;fill-rule:nonzero;stroke:none"
         id="path88" /><path
         d="m 1359.76,13.2813 c -0.01,-0.0625 0.98,-0.1407 2.86,-0.2305 2.46,-0.1016 5.15,-0.1992 8.19,-0.3086 8.19,-0.1836 18.27,-0.4024 30.15,-0.6602 25.47,-0.3906 60.66,-0.4922 99.52,0.1875 38.86,0.6797 74.03,2.0196 99.46,3.3008 11.86,0.668 21.92,1.2383 30.1,1.711 3.03,0.2187 5.72,0.4179 8.18,0.5898 1.87,0.1602 2.84,0.2773 2.84,0.3477 -0.01,0.0507 -0.99,0.0625 -2.86,0.0312 -2.46,-0.0703 -5.16,-0.1484 -8.2,-0.25 -8.19,-0.3008 -18.25,-0.6719 -30.13,-1.1094 -25.43,-0.9414 -60.58,-2.0625 -99.43,-2.7617 -38.84,-0.668 -74.01,-0.7773 -99.47,-0.7305 -11.88,0.0313 -21.95,0.0508 -30.15,0.0704 -3.04,-0.0196 -5.74,-0.0274 -8.2,-0.0469 -1.87,-0.0313 -2.86,-0.0821 -2.86,-0.1406"
         style="fill:#17282f;fill-opacity:1;fill-rule:nonzero;stroke:none"
         id="path90" /><path
         d="m 1583.18,13.1211 c 0.61,-0.0703 0.93,6.6289 5.32,13.4609 4.27,6.918 10.39,10.4375 10.04,10.918 -0.13,0.4609 -7.17,-2.5781 -11.77,-9.9687 -4.68,-7.3399 -4.09,-14.543 -3.59,-14.4102"
         style="fill:#17282f;fill-opacity:1;fill-rule:nonzero;stroke:none"
         id="path92" /><path
         d="m 1533.75,35.3008 c 0.48,-0.2695 2.76,2.418 5.1,6 2.33,3.5898 3.84,6.7109 3.37,6.9805 -0.47,0.2695 -2.75,-2.4219 -5.09,-6.0118 -2.34,-3.5898 -3.86,-6.7109 -3.38,-6.9687"
         style="fill:#17282f;fill-opacity:1;fill-rule:nonzero;stroke:none"
         id="path94" /><path
         d="m 1520.18,41.6406 c 0.38,-0.3711 2.96,1.3008 5.76,3.7383 2.8,2.4297 4.77,4.7227 4.39,5.0899 -0.38,0.3828 -2.96,-1.2891 -5.76,-3.7305 -2.8,-2.4297 -4.77,-4.7188 -4.39,-5.0977"
         style="fill:#17282f;fill-opacity:1;fill-rule:nonzero;stroke:none"
         id="path96" /><path
         d="m 1511.37,56.0391 c 0,-0.5196 3.89,-0.9102 8.67,-0.8672 4.79,0.039 8.66,0.4883 8.65,1 0,0.5195 -3.88,0.8984 -8.67,0.8672 -4.78,-0.0391 -8.65,-0.4805 -8.65,-1"
         style="fill:#17282f;fill-opacity:1;fill-rule:nonzero;stroke:none"
         id="path98" /><path
         d="m 1508.23,66.2383 c -0.18,-0.457 4.08,-2.1563 9.71,-2.4297 5.63,-0.2969 10.06,0.9414 9.93,1.4219 -0.1,0.5195 -4.48,0.1484 -9.82,0.4492 -5.35,0.25 -9.66,1.082 -9.82,0.5586"
         style="fill:#17282f;fill-opacity:1;fill-rule:nonzero;stroke:none"
         id="path100" /><path
         d="m 1539.08,48.8398 c -0.01,-0.1992 4.08,-0.6015 10.64,0.25 3.28,0.4297 7.14,1.2188 11.29,2.5313 2.06,0.7383 4.22,1.2773 6.44,2.6094 1.04,0.6679 2.19,1.6093 2.57,3.1289 0.4,1.4922 -0.49,3.1406 -1.71,3.9297 -10.29,4.7226 -20.37,-0.7891 -24.03,-5.75 -2.03,-2.5391 -2.93,-4.9883 -3.33,-6.6797 -0.39,-1.6992 -0.34,-2.668 -0.22,-2.6797 0.38,-0.1211 0.64,3.9101 4.66,8.5391 1.99,2.2617 5.03,4.4921 8.98,5.6601 3.74,1.1094 9.09,1.4922 12.72,-0.5703 1.71,-1.1367 1.1,-2.9883 -0.76,-4.0781 -1.73,-1.0821 -3.99,-1.75 -5.94,-2.4805 -4,-1.3594 -7.74,-2.2695 -10.91,-2.8594 -6.35,-1.1601 -10.41,-1.25 -10.4,-1.5508"
         style="fill:#17282f;fill-opacity:1;fill-rule:nonzero;stroke:none"
         id="path102" /><path
         d="m 1541.84,48.3984 c 0.16,-0.1093 1.67,2.4532 1.08,6.9024 -0.31,2.1797 -1.23,4.7578 -3.07,7.1797 -1.93,2.1601 -4.42,5.1484 -8.98,4.8906 -2.46,-0.3398 -3.61,-2.9727 -3.19,-4.6328 0.24,-1.7266 1.11,-3.207 1.91,-4.3985 1.64,-2.4414 3.48,-4.4101 5.17,-5.8984 3.41,-2.9726 6.07,-4.082 6.19,-3.8906 0.18,0.2383 -2.17,1.7383 -5.18,4.8086 -1.49,1.539 -3.12,3.5117 -4.59,5.8711 -1.51,2.0586 -2.59,5.8008 0.07,6.3008 2.66,0.289 5.44,-2.1329 7.11,-4.0704 1.72,-2.1093 2.71,-4.4101 3.16,-6.3906 0.9,-4.0117 -0.03,-6.6015 0.32,-6.6719"
         style="fill:#17282f;fill-opacity:1;fill-rule:nonzero;stroke:none"
         id="path104" /><path
         d="m 1362.2,55.5117 c 0.04,-0.3398 4.74,0.5078 12.25,-0.1797 7.44,-0.6328 17.82,-3.2734 26.95,-9.7422 9.12,-6.5 14.58,-15.1289 17.19,-21.6406 2.67,-6.5586 3.02,-11 3.39,-10.9492 0.12,0.0117 0.16,1.1211 -0.06,3.1211 -0.22,1.9883 -0.8,4.8477 -2,8.2773 -2.32,6.793 -7.79,15.9024 -17.3,22.6719 -9.52,6.75 -20.4,9.2813 -28.07,9.5781 -3.86,0.1914 -6.98,-0.0586 -9.11,-0.3789 -2.12,-0.3203 -3.26,-0.6406 -3.24,-0.7578"
         style="fill:#17282f;fill-opacity:1;fill-rule:nonzero;stroke:none"
         id="path106" /><path
         d="m 1442.78,27.5313 c -0.07,-0.4922 10.77,-1.9297 24.24,-1.793 13.48,0.1133 24.28,1.7617 24.21,2.25 -0.07,0.543 -10.88,-0.2695 -24.23,-0.3789 -13.34,-0.1485 -24.17,0.4609 -24.22,-0.0781"
         style="fill:#17282f;fill-opacity:1;fill-rule:nonzero;stroke:none"
         id="path108" /><path
         d="m 1410.29,26.9805 c -0.4,-0.3789 0.93,-2.1094 2.09,-4.4024 1.19,-2.2695 1.8,-4.3281 2.37,-4.2773 0.54,0.0078 0.8,2.4492 -0.56,5.0781 -1.35,2.6524 -3.56,3.9922 -3.9,3.6016"
         style="fill:#17282f;fill-opacity:1;fill-rule:nonzero;stroke:none"
         id="path110" /><path
         d="m 1397.72,40.9297 c -0.38,-0.3711 0.73,-1.9492 2.47,-3.5391 1.76,-1.5898 3.49,-2.5703 3.88,-2.1992 0.38,0.3672 -0.72,1.9492 -2.48,3.5391 -1.74,1.5781 -3.48,2.5703 -3.87,2.1992"
         style="fill:#17282f;fill-opacity:1;fill-rule:nonzero;stroke:none"
         id="path112" /><path
         d="m 1380.06,47.0781 c 0.13,-0.5195 2.33,-0.457 4.78,-1.207 2.47,-0.6992 4.24,-1.9297 4.66,-1.5703 0.44,0.289 -1,2.4609 -4.05,3.3476 -3.04,0.9102 -5.57,-0.0898 -5.39,-0.5703"
         style="fill:#17282f;fill-opacity:1;fill-rule:nonzero;stroke:none"
         id="path114" /><path
         d="m 1367.52,49.9102 c -0.19,-0.4805 0.78,-1.2618 2.17,-1.7305 1.38,-0.4688 2.66,-0.4609 2.85,0.0312 0.19,0.4805 -0.78,1.2579 -2.17,1.7188 -1.38,0.4687 -2.66,0.4609 -2.85,-0.0195"
         style="fill:#17282f;fill-opacity:1;fill-rule:nonzero;stroke:none"
         id="path116" /><path
         d="M 863.324,685.391 C 862.523,667.52 797.535,110.539 797.535,110.539 L 950.516,76.6797 1091.57,644.082 863.324,685.391"
         style="fill:#f8a58d;fill-opacity:1;fill-rule:nonzero;stroke:none"
         id="path118" /><path
         d="M 957.414,61.832 960.852,77.9102 798.297,114.18 786.371,61.2891 796.27,58.4414 C 840.387,46.0781 1021.43,-1.53125 1053.13,0.171875 1088.48,2.05859 957.414,61.832 957.414,61.832"
         style="fill:#f03d5f;fill-opacity:1;fill-rule:nonzero;stroke:none"
         id="path120" /><path
         d="m 845.309,51.0313 -57.938,13.5703 -0.359,-1.1797 9.324,42.0471 c 13.887,-2.059 26.301,-9.1877 35.391,-19.4573 8.679,-9.8008 13.57,-22.4531 13.582,-34.9804"
         style="fill:#ba2c42;fill-opacity:1;fill-rule:nonzero;stroke:none"
         id="path122" /><path
         d="m 1054.87,0 c -0.93,0 -2.02,0.0390625 -3.25,0.121094 0.53,0.007812 1.04,0.019531 1.51,0.050781 4.91,0.257813 6.61,1.648435 5.89,3.828125 0.71,-1.39844 0.67,-2.57812 -0.39,-3.410156 C 1058.13,0.191406 1056.84,0 1054.87,0 M 940.715,21.3086 c -54.965,12.5 -116.422,28.1133 -154.344,39.9805 v 0 l 9.899,-2.8477 C 819.859,51.832 882.594,35.1406 940.715,21.3086 m 91.045,3.0898 c -3.45,1.9727 -7.08,3.9922 -10.81,6 0.01,0 0.01,0 0.01,0 0,0 4.69,-2.457 10.8,-6"
         style="fill:#a7a9a8;fill-opacity:1;fill-rule:nonzero;stroke:none"
         id="path124" /><path
         d="M 1051.62,0.121094 C 1034.72,1.26172 990.367,10.0117 940.715,21.3086 882.594,35.1406 819.859,51.832 796.27,58.4414 l -9.899,2.8477 0.641,2.1328 -0.004,-0.0235 58.269,-14.1367 c 0.02,0.5899 0.032,1.1797 0.032,1.7696 l 157.061,-36.793 c 0,0 8.27,16.2812 17.27,16.2812 0.44,0 0.87,-0.039 1.31,-0.1211 3.73,-2.0078 7.36,-4.0273 10.81,-6 10.25,-5.9375 24.49,-14.91793 27.26,-20.3984 0.72,-2.17969 -0.98,-3.570312 -5.89,-3.828125 -0.47,-0.03125 -0.98,-0.042969 -1.51,-0.050781"
         style="fill:#ba2c42;fill-opacity:1;fill-rule:nonzero;stroke:none"
         id="path126" /><path
         d="m 845.277,49.2617 -58.269,14.1367 0.004,0.0235 0.359,1.1797 57.938,-13.5703 c 0,-0.5899 -0.012,-1.1797 -0.032,-1.7696"
         style="fill:#7a1a2b;fill-opacity:1;fill-rule:nonzero;stroke:none"
         id="path128" /><path
         d="m 784.852,65.2695 c -0.016,-0.0703 0.921,-0.3789 2.718,-0.9101 2.368,-0.6875 4.961,-1.418 7.887,-2.2578 7.914,-2.1211 17.645,-4.7305 29.133,-7.8125 24.64,-6.4375 58.797,-14.9102 96.695,-23.5078 37.918,-8.5899 72.387,-15.6602 97.385,-20.4727 11.69,-2.16797 21.6,-4.00782 29.65,-5.50001 3,-0.50781 5.66,-0.95703 8.08,-1.36718 1.85,-0.29297 2.83,-0.42188 2.84,-0.35157 0.01,0.0586 -0.94,0.3086 -2.77,0.71875 -2.41,0.51172 -5.05,1.08204 -8.02,1.71094 -8.02,1.65235 -17.89,3.67969 -29.53,6.08207 -24.928,5.1484 -59.338,12.4297 -97.229,21 -37.875,8.5898 -72.058,16.8593 -96.777,22.9687 -11.543,2.8516 -21.316,5.2695 -29.269,7.2383 -2.961,0.7109 -5.582,1.332 -7.977,1.9102 -1.828,0.4218 -2.797,0.6015 -2.816,0.5507"
         style="fill:#17282f;fill-opacity:1;fill-rule:nonzero;stroke:none"
         id="path130" /><path
         d="m 1001.81,11.9219 c 0.58,-0.211 2.49,6.2187 8.38,11.8086 5.79,5.6992 12.58,7.6679 12.34,8.2187 -0.01,0.4727 -7.57,-0.8008 -13.8,-6.8906 -6.3,-6.0078 -7.43,-13.1367 -6.92,-13.1367"
         style="fill:#17282f;fill-opacity:1;fill-rule:nonzero;stroke:none"
         id="path132" /><path
         d="m 959.086,45.2305 c 0.394,-0.3711 3.25,1.6914 6.375,4.6211 3.125,2.9297 5.34,5.5976 4.941,5.9687 -0.398,0.3711 -3.25,-1.6992 -6.375,-4.6289 -3.132,-2.9219 -5.343,-5.5898 -4.941,-5.9609"
         style="fill:#17282f;fill-opacity:1;fill-rule:nonzero;stroke:none"
         id="path134" /><path
         d="m 947.414,54.6211 c 0.285,-0.4492 3.184,0.5586 6.484,2.2578 3.305,1.6992 5.758,3.4414 5.481,3.9024 -0.285,0.457 -3.184,-0.5508 -6.484,-2.25 -3.305,-1.6993 -5.758,-3.4532 -5.481,-3.9102"
         style="fill:#17282f;fill-opacity:1;fill-rule:nonzero;stroke:none"
         id="path136" /><path
         d="m 942.289,70.7109 c -0.121,-0.5117 3.555,-1.8125 8.211,-2.9101 4.66,-1.1094 8.527,-1.6016 8.645,-1.0899 0.117,0.5 -3.559,1.8008 -8.219,2.8985 -4.653,1.1094 -8.528,1.5898 -8.637,1.1015"
         style="fill:#17282f;fill-opacity:1;fill-rule:nonzero;stroke:none"
         id="path138" /><path
         d="m 941.664,81.3594 c -0.285,-0.4102 3.449,-3.0703 8.852,-4.6797 5.39,-1.6289 9.992,-1.4805 9.992,-0.9805 0.023,0.5313 -4.324,1.211 -9.442,2.7696 -5.136,1.5195 -9.121,3.3515 -9.402,2.8906"
         style="fill:#17282f;fill-opacity:1;fill-rule:nonzero;stroke:none"
         id="path140" /><path
         d="m 967.477,57.1094 c -0.055,-0.1875 3.832,-1.5508 10.406,-2.2813 3.281,-0.3593 7.226,-0.5078 11.566,-0.2265 2.176,0.2187 4.406,0.2382 6.871,1 1.172,0.4101 2.512,1.039 3.239,2.4179 0.751,1.3594 0.277,3.1719 -0.719,4.2188 -8.871,7.043 -19.969,4.082 -24.715,0.1406 -2.574,-1.9805 -4.027,-4.1601 -4.82,-5.6875 -0.782,-1.5625 -0.961,-2.5117 -0.852,-2.5625 0.344,-0.1992 1.551,3.6602 6.567,7.1914 2.468,1.7305 5.949,3.1602 10.066,3.3594 3.891,0.1914 9.176,-0.7188 12.211,-3.5781 1.398,-1.5118 0.355,-3.1719 -1.707,-3.7735 -1.934,-0.6484 -4.289,-0.7695 -6.356,-1.0078 -4.211,-0.3711 -8.054,-0.3594 -11.277,-0.1797 -6.449,0.3907 -10.414,1.2696 -10.48,0.9688"
         style="fill:#17282f;fill-opacity:1;fill-rule:nonzero;stroke:none"
         id="path142" /><path
         d="m 970.066,56.0313 c 0.122,-0.1407 2.204,1.9804 2.688,6.4375 0.219,2.1914 -0.066,4.9218 -1.277,7.7109 -1.356,2.5586 -3.059,6.0508 -7.559,6.8789 -2.469,0.2617 -4.215,-2.0273 -4.191,-3.7383 -0.188,-1.7383 0.308,-3.3789 0.808,-4.7187 1.012,-2.7735 2.324,-5.1133 3.613,-6.961 2.602,-3.6992 4.922,-5.4218 5.079,-5.2617 0.234,0.1914 -1.684,2.2109 -3.872,5.9219 -1.089,1.8398 -2.203,4.1406 -3.066,6.7812 -0.973,2.3672 -1.141,6.25 1.566,6.1094 2.653,-0.3516 4.778,-3.3594 5.938,-5.6601 1.168,-2.461 1.578,-4.9219 1.543,-6.9532 -0.074,-4.1093 -1.602,-6.4062 -1.27,-6.5468"
         style="fill:#17282f;fill-opacity:1;fill-rule:nonzero;stroke:none"
         id="path144" /><path
         d="m 797.277,105.699 c -0.039,-0.347 4.723,-0.64 11.856,-3.09 7.07,-2.379 16.535,-7.4176 23.851,-15.8902 7.313,-8.4805 10.563,-18.1485 11.543,-25.0977 1.043,-7.0117 0.321,-11.4023 0.696,-11.4414 0.117,-0.0195 0.422,1.0508 0.679,3.0391 0.262,1.9921 0.383,4.9101 0.036,8.5117 -0.641,7.1601 -3.793,17.3086 -11.415,26.1406 -7.636,8.8281 -17.601,13.8669 -24.972,15.9999 -3.707,1.09 -6.805,1.609 -8.942,1.801 -2.14,0.18 -3.328,0.137 -3.332,0.027"
         style="fill:#17282f;fill-opacity:1;fill-rule:nonzero;stroke:none"
         id="path146" /><path
         d="m 868.875,59.3398 c -0.172,-0.4492 10.012,-4.4492 23.125,-7.5078 13.113,-3.1132 24,-4.0625 24.043,-3.582 0.062,0.5391 -10.625,2.332 -23.617,5.3906 -12.992,3.0391 -23.371,6.2188 -23.551,5.6992"
         style="fill:#17282f;fill-opacity:1;fill-rule:nonzero;stroke:none"
         id="path148" /><path
         d="m 837.191,66.5508 c -0.472,-0.2891 0.407,-2.2813 0.981,-4.7813 0.613,-2.5 0.726,-4.6289 1.293,-4.7304 0.523,-0.1094 1.359,2.1914 0.66,5.082 -0.68,2.8789 -2.504,4.7109 -2.934,4.4297"
         style="fill:#17282f;fill-opacity:1;fill-rule:nonzero;stroke:none"
         id="path150" /><path
         d="m 828.313,83.082 c -0.469,-0.2734 0.23,-2.0703 1.554,-4.0234 1.321,-1.9688 2.774,-3.3398 3.235,-3.0703 0.464,0.2734 -0.235,2.0703 -1.555,4.0312 -1.324,1.9493 -2.774,3.3203 -3.234,3.0625"
         style="fill:#17282f;fill-opacity:1;fill-rule:nonzero;stroke:none"
         id="path152" /><path
         d="m 812.621,93.2617 c 0,-0.5312 2.152,-1 4.356,-2.3203 2.23,-1.2695 3.652,-2.8828 4.148,-2.6328 0.5,0.1797 -0.387,2.6328 -3.141,4.2227 -2.738,1.5976 -5.425,1.2304 -5.363,0.7304"
         style="fill:#17282f;fill-opacity:1;fill-rule:nonzero;stroke:none"
         id="path154" /><path
         d="m 801.109,98.9883 c -0.296,-0.418 0.461,-1.4102 1.696,-2.1875 1.238,-0.7891 2.476,-1.082 2.781,-0.6602 0.297,0.418 -0.461,1.4102 -1.695,2.1875 -1.239,0.793 -2.477,1.0938 -2.782,0.6602"
         style="fill:#17282f;fill-opacity:1;fill-rule:nonzero;stroke:none"
         id="path156" /><path
         d="m 973.594,3430.3 c -2.016,-0.93 -4.094,-1.52 -6.16,-2.2 3.086,2.67 5.832,5.53 8.343,8.33 8.95,10.33 16.668,19.78 26.233,24.22 8.64,4.28 17.17,5.43 24.23,5.27 -4.28,-1.69 -8.44,-3.69 -12.34,-6.19 -14.045,-8.99 -25.15,-22.47 -40.306,-29.43 z m -82.301,-6.95 c -26.742,-4.3 -49.82,-23.21 -61.816,-47.34 -0.977,4.58 -1.602,9.15 -1.563,13.67 -0.059,9.53 3.356,18.53 9.445,25.41 12.219,14.2 31.719,18.63 48.786,16.46 9.48,-0.83 18.23,-3.89 26.91,-6.91 -7.328,0.07 -14.625,-0.14 -21.762,-1.29 z M 779.289,3239.37 c -3.633,0.78 -5.633,0.27 -5.633,0.27 -0.015,-0.27 1.672,-0.29 4.489,-1.11 -1.028,-0.74 -2.09,-1.45 -3.071,-2.25 -9.406,-7.64 -15.894,-18.22 -19.367,-29.77 -5.246,9.17 -5.184,22.35 -1.004,34.01 5.047,14.35 16.727,27.91 32.746,34.03 8.031,3.04 17.149,4.29 26.449,7.12 3.832,1.07 7.743,2.83 11.418,5.06 -0.586,-5.37 -1.984,-10.57 -4.718,-15.47 -8.582,-15.38 -26.782,-21.68 -41.309,-31.89 z m 657.991,-73.79 c -4.15,11.87 -14.21,20.84 -19.09,32.44 -7.31,17.35 -1.94,37.05 0.05,55.78 1.99,18.73 -1.92,41.46 -19.09,49.2 -7.07,3.18 -15.41,3.22 -21.99,7.32 -13.36,8.31 -12.66,27.38 -13.88,43.07 -0.8,10.22 -3.48,20.5 -7.86,29.82 0.92,0.28 1.85,0.58 2.82,0.88 21.49,5.55 44.54,-7.5 51.12,-25.32 3.48,-8.76 3.2,-18.71 -1.74,-25.11 -4.81,-6.52 -13.54,-9.25 -19.42,-6.25 -5.94,3.03 -8.75,10.29 -7.09,15.2 1.49,5.27 7.14,6.66 10.92,6.13 4,-0.47 6.61,-2.57 7.75,-4.31 1.15,-1.79 1.25,-3.04 1.54,-2.99 0.1,-0.02 0.46,1.29 -0.49,3.57 -0.95,2.22 -3.79,5.08 -8.41,6.02 -2.28,0.46 -4.99,0.49 -7.77,-0.55 -2.81,-0.92 -5.51,-3.48 -6.68,-6.78 -2.45,-6.65 0.55,-15.59 8.28,-20.01 8.13,-4.39 19.13,-0.93 25.27,6.95 6.51,8.13 6.78,20.04 2.97,30.09 -6.96,19.2 -29.51,33.07 -52.6,29.89 4.97,8.06 5.69,18.18 3.06,26.57 -3.58,11.66 -13.29,19.48 -23.07,23.15 -9.91,3.84 -20.41,3.77 -29.31,1.59 -8.99,-2.12 -16.66,-6.05 -23.09,-10.22 -6.48,-4.23 -11.48,-8.87 -16.35,-11.98 -4.83,-3.2 -9.49,-4.88 -13.49,-5.19 -8.15,-0.74 -11.88,3.03 -12.11,2.5 -0.36,0.02 3.11,-4.8 12.22,-4.79 4.4,-0.04 9.82,1.54 15.1,4.68 5.35,3.05 10.58,7.5 16.84,11.26 12.2,7.39 30.38,14.2 48.22,7.08 8.59,-3.37 16.71,-10.31 19.48,-19.76 2.81,-9.03 0.57,-20.32 -6.89,-26.69 -5.29,9.13 -12.43,16.98 -21.65,22.18 -19.98,11.28 -49.53,5.79 -59.68,-14.8 l -164.08,56.33 c -20.13,17.79 -49.84,23.05 -75.37,15.16 -1.12,0.19 -2.21,0.41 -3.44,0.54 -7.67,0.79 -17.53,0.09 -27.71,-4.59 -10.48,-4.5 -18.984,-14.49 -27.902,-24.37 -4.559,-4.9 -9.566,-9.81 -15.734,-13.05 -1.004,-0.52 -2.079,-0.89 -3.137,-1.29 -7.152,-0.89 -14.508,-0.93 -21.922,-0.76 -13.805,3.16 -28.082,11.09 -45.105,12.82 -9.188,1.11 -18.954,0.74 -28.442,-2.04 -9.488,-2.83 -18.48,-8.2 -25.367,-16.03 -6.961,-7.72 -11.059,-18.47 -10.965,-29.19 -0.07,-7.79 1.496,-15.34 3.59,-22.68 -3.602,-9.89 -5.387,-20.4 -4.832,-30.99 0.726,-13.89 4.726,-28.43 4.883,-42.12 -3.879,-3.1 -8.485,-5.39 -13.426,-6.85 -8.656,-2.72 -17.938,-4.04 -26.719,-7.42 -17.715,-6.96 -30.14,-21.85 -35.449,-37.53 -4.785,-14.18 -4.426,-30.59 4.437,-41.32 -3.847,-18.38 -0.429,-38.39 11.567,-52.93 8.004,-9.7 18.914,-16.93 25.715,-27.51 10.781,-16.75 9.246,-38.2 11.961,-57.94 2.718,-19.73 14.16,-42.02 34.043,-43.32 16.019,-1.05 30.402,12.4 46.406,11.09 22.445,-1.84 31.629,-28.73 44.609,-47.14 16.407,-23.26 46.254,-36.26 74.469,-32.42 20.4,2.78 40.61,13.57 60.57,8.5 25.1,-6.38 40.18,-35.79 65.81,-39.47 19.08,-2.73 36.74,9.95 50.91,23.03 14.16,13.08 28.56,27.99 47.53,31.4 22.84,4.1 44.82,-9.71 67.8,-12.86 29.67,-4.08 61.09,11.68 75.56,37.91 12.63,22.89 12.59,50.98 24.39,74.31 7.91,15.62 20.66,28.2 30.48,42.69 9.81,14.51 16.76,32.89 10.98,49.42"
         style="fill:#17282f;fill-opacity:1;fill-rule:nonzero;stroke:none"
         id="path158" /><path
         d="m 1329.29,3086.74 c 7.83,49.27 5.35,130.05 1.19,196.08 -3.74,59.44 -56.17,103.81 -115.39,97.54 l -171.88,-18.18 c -17.99,-1.9 -31.54,-17.25 -31.18,-35.34 l 17.71,-422.25 c -23.79,-0.07 -39.748,-0.1 -39.748,-0.1 v -76.47 c 0,-87.48 70.918,-158.39 158.398,-158.39 87.48,0 158.4,70.91 158.4,158.39 v 66.17 c 0,0 -41.18,13.44 -66.18,12.09 -1.41,-0.08 -3.55,-0.15 -6.16,-0.22 0.18,38.72 3.18,69 3.18,69 0,0 75.93,12.6 91.66,111.68"
         style="fill:#f8a58d;fill-opacity:1;fill-rule:nonzero;stroke:none"
         id="path160" /><path
         d="m 1304.74,3218.7 c 0.24,-6.72 -5.24,-12.45 -12.25,-12.82 -6.98,-0.38 -12.86,4.74 -13.09,11.45 -0.24,6.71 5.25,12.45 12.23,12.83 7.01,0.38 12.88,-4.76 13.11,-11.46"
         style="fill:#17282f;fill-opacity:1;fill-rule:nonzero;stroke:none"
         id="path162" /><path
         d="m 1312.96,3240.8 c -1.58,-1.66 -11.2,5.47 -24.88,5.43 -13.65,0.16 -23.69,-6.87 -25.17,-5.2 -0.73,0.74 0.88,3.73 5.24,6.92 4.3,3.17 11.64,6.24 20.16,6.21 8.51,-0.05 15.68,-3.19 19.79,-6.39 4.21,-3.23 5.63,-6.22 4.86,-6.97"
         style="fill:#17282f;fill-opacity:1;fill-rule:nonzero;stroke:none"
         id="path164" /><path
         d="m 1171.08,3218.7 c 0.24,-6.72 -5.25,-12.45 -12.25,-12.82 -6.99,-0.38 -12.86,4.74 -13.1,11.45 -0.23,6.71 5.25,12.45 12.24,12.83 7,0.38 12.87,-4.76 13.11,-11.46"
         style="fill:#17282f;fill-opacity:1;fill-rule:nonzero;stroke:none"
         id="path166" /><path
         d="m 1178.56,3238.25 c -1.57,-1.66 -11.21,5.47 -24.88,5.43 -13.65,0.16 -23.69,-6.88 -25.17,-5.2 -0.73,0.74 0.86,3.73 5.24,6.91 4.3,3.17 11.64,6.25 20.16,6.22 8.51,-0.05 15.68,-3.18 19.8,-6.39 4.19,-3.23 5.62,-6.23 4.85,-6.97"
         style="fill:#17282f;fill-opacity:1;fill-rule:nonzero;stroke:none"
         id="path168" /><path
         d="m 1228.18,3136.85 c -0.06,0.78 8.44,2.25 22.21,4.01 3.49,0.36 6.8,1.05 7.39,3.43 0.82,2.53 -0.64,6.29 -2.34,10.35 -3.28,8.45 -6.72,17.31 -10.32,26.59 -14.34,37.85 -24.72,68.98 -23.19,69.54 1.53,0.57 14.39,-29.66 28.73,-67.51 3.45,-9.34 6.75,-18.23 9.89,-26.74 1.32,-3.97 3.59,-8.47 1.81,-13.71 -0.94,-2.61 -3.5,-4.5 -5.74,-5.1 -2.24,-0.69 -4.2,-0.73 -5.93,-0.83 -13.86,-0.74 -22.45,-0.8 -22.51,-0.03"
         style="fill:#17282f;fill-opacity:1;fill-rule:nonzero;stroke:none"
         id="path170" /><path
         d="m 1237.62,2975.06 c 0,0 -66.65,-4.3 -132.68,35.39 0,0 32.2,-68.06 131.35,-58.79 l 1.33,23.4"
         style="fill:#f68260;fill-opacity:1;fill-rule:nonzero;stroke:none"
         id="path172" /><path
         d="m 1222.4,3103.9 c -4.92,6.5 -13.53,10.07 -22.08,9.15 -5.94,-0.64 -11.93,-3.5 -15.54,-8.33 -3.61,-4.83 -4.36,-11.69 -1.08,-16.3 3.69,-5.19 11.4,-6.39 17.92,-4.53 6.53,1.85 12.14,6.15 17.48,10.43 1.47,1.19 2.98,2.42 3.91,4.04 0.91,1.62 1.11,3.75 -0.03,5.09"
         style="fill:#f68260;fill-opacity:1;fill-rule:nonzero;stroke:none"
         id="path174" /><path
         d="m 1187.94,3127.39 c 2.23,0.13 2.26,-14.71 14.96,-25.24 12.68,-10.57 28.5,-8.9 28.62,-10.98 0.2,-0.93 -3.53,-2.88 -10.2,-3.06 -6.56,-0.23 -16.12,1.88 -23.89,8.32 -7.75,6.46 -11.08,15.08 -11.59,21.17 -0.57,6.2 1.09,9.88 2.1,9.79"
         style="fill:#17282f;fill-opacity:1;fill-rule:nonzero;stroke:none"
         id="path176" /><path
         d="m 1184.71,3262.19 c -1.35,-3.72 -15,-1.96 -31.04,-3.89 -16.08,-1.61 -29.01,-6.3 -31.14,-2.98 -0.95,1.6 1.3,5.1 6.54,8.7 5.18,3.59 13.45,7.01 23.08,8.08 9.63,1.05 18.45,-0.47 24.29,-2.85 5.89,-2.38 8.85,-5.3 8.27,-7.06"
         style="fill:#17282f;fill-opacity:1;fill-rule:nonzero;stroke:none"
         id="path178" /><path
         d="m 1307.93,3268.74 c -2.4,-3.11 -11.82,0.12 -23.15,0.27 -11.32,0.54 -20.91,-2.09 -23.12,1.16 -0.97,1.58 0.54,4.69 4.73,7.63 4.13,2.93 11.03,5.32 18.82,5.08 7.78,-0.25 14.52,-3.06 18.46,-6.24 4.01,-3.19 5.32,-6.39 4.26,-7.9"
         style="fill:#17282f;fill-opacity:1;fill-rule:nonzero;stroke:none"
         id="path180" /><path
         d="m 1367.36,3371.25 c -6.77,26.38 -26.79,50.86 -53.57,55.81 -17.47,3.24 -35.43,-1.93 -53.16,-0.79 -14.62,0.94 -19.94,12.59 -33.86,17.16 -23.22,7.62 -41.04,33.4 -91.14,28.01 -13.37,-1.44 -30.58,-16.92 -42.84,-34.58 -19.2,8.28 -44.5,-0.62 -58.34,-6.68 -28.66,-12.54 -46.595,-44.8 -52.247,-77.6 -5.648,-32.79 -1.031,-66.5 3.598,-99.48 2.105,-15.06 4.222,-30.13 6.336,-45.19 1.394,-9.98 3.066,-20.28 7.983,-28.8 l -22.811,-212.08 c 45.331,-16.89 102.071,14.29 112.131,61.61 8.85,41.68 -14.35,84.18 -10.68,126.63 2.19,25.27 16.47,48.84 16.38,74.2 -0.02,7.85 -1.27,16.2 -3.53,24.68 v 0.01 c 40.31,32.69 50.58,59.02 48.89,89.65 12.41,-8.43 26.92,-13.7 41.95,-13.89 21.23,-0.27 43.28,7.96 63.14,0.47 14.31,-5.39 24.44,-17.91 35.32,-28.66 10.87,-10.74 24.99,-20.67 40.13,-18.54 7.31,1.02 13.9,4.77 20.82,7.32 6.92,2.54 15.06,3.78 21.39,-0.01 6.62,26.42 10.87,54.36 4.11,80.75"
         style="fill:#17282f;fill-opacity:1;fill-rule:nonzero;stroke:none"
         id="path182" /><path
         d="m 775.004,3154.18 c 0.437,0.71 10.312,-9.31 32.871,-18.8 11.23,-4.56 25.789,-8.88 43.043,-9.1 17.074,-0.25 37.191,3.75 54.727,16.49 17.308,12.36 32.832,32.85 35.414,58.02 1.285,12.37 -0.735,25.8 -7.45,37.15 -6.453,11.33 -18.812,19.85 -32.492,20.21 -6.765,0.21 -13.48,-2.01 -18.879,-6.21 -5.39,-4.26 -9.242,-10.49 -11.554,-17.25 -4.473,-13.73 -2.282,-29.78 7.586,-41.36 9.394,-11.88 23.949,-19.41 39.234,-23.31 15.398,-3.82 32,-3.98 48.016,-0.8 16.031,3.22 31.207,9.91 43.7,19.69 12.51,9.8 21.94,22.84 27.08,37.29 5.3,14.39 6.42,29.99 3.57,44.39 -1.43,7.19 -3.84,14.14 -7.4,20.36 -3.51,6.29 -7.77,11.85 -13.45,15.84 -5.49,4.07 -12.01,6.83 -18.37,6.89 -6.337,0.16 -12.283,-3.24 -15.259,-8.61 -3.016,-5.33 -3.555,-12.03 -1.953,-17.91 1.589,-5.93 5.289,-11.18 9.687,-15.46 18.555,-16.99 43.845,-22.19 64.945,-19.95 21.52,2.13 39.54,12.14 51.38,24.43 12.02,12.31 18.48,26.19 21.94,37.74 6.47,23.65 2.18,37.57 3.11,37.5 0,0 1.09,-3.28 1.58,-9.77 0.5,-6.46 0.46,-16.23 -2.65,-28.29 -3.24,-11.91 -9.56,-26.32 -21.8,-39.29 -12.05,-12.94 -30.75,-23.67 -53.14,-26.12 -22.02,-2.52 -48.35,2.41 -68.486,20.51 -4.836,4.66 -9.086,10.47 -11.039,17.49 -1.91,6.93 -1.43,14.76 2.289,21.5 3.656,6.8 11.516,11.3 19.396,11.11 7.85,-0.06 15.17,-3.26 21.32,-7.74 6.3,-4.37 11.22,-10.72 14.94,-17.39 3.86,-6.68 6.47,-14.13 8.03,-21.82 3.1,-15.38 1.94,-31.91 -3.64,-47.2 -5.41,-15.36 -15.53,-29.37 -28.74,-39.73 -13.22,-10.38 -29.173,-17.4 -45.97,-20.77 -16.809,-3.33 -34.117,-3.18 -50.406,0.88 -16.11,4.14 -31.704,12.12 -42.067,25.23 -5.23,6.36 -8.875,14.19 -10.238,22.3 -1.313,8.11 -0.535,16.36 1.891,23.99 2.609,7.55 6.976,14.65 13.316,19.62 6.336,4.94 14.391,7.5 22.156,7.21 15.684,-0.47 29.442,-10.29 36.477,-22.78 7.269,-12.51 9.258,-26.85 7.812,-40.04 -3.004,-26.81 -19.523,-47.99 -37.679,-60.68 -18.446,-13.09 -39.485,-16.96 -57.004,-16.39 -17.739,0.52 -32.508,5.25 -43.797,10.18 -11.356,4.98 -19.367,10.41 -24.528,14.33 -2.648,1.88 -4.46,3.58 -5.726,4.65 -1.246,1.1 -1.852,1.7 -1.793,1.77"
         style="fill:#33535f;fill-opacity:1;fill-rule:nonzero;stroke:none"
         id="path184" /><path
         d="m 1373.14,3326.49 c 0.07,-0.1 -1.43,-1.47 -4.77,-3.35 -3.32,-1.89 -8.55,-4.26 -15.75,-5.75 -7.16,-1.35 -16.33,-1.86 -26.57,0.46 -10.21,2.26 -21.31,7.59 -31.24,16.26 -9.95,8.64 -18.74,20.48 -24.63,34.91 -2.76,7.17 -4.69,16.16 -0.81,24.61 1.87,4.04 4.95,7.77 9.31,9.97 4.3,2.27 9.97,2.21 14.35,-0.18 8.62,-4.72 13.41,-15.56 10.31,-25.4 -2.91,-9.68 -10.93,-16.59 -19.57,-20.86 -17.65,-8.69 -39.12,-7.52 -57.9,-0.84 -9.5,3.32 -18.4,7.78 -26.68,12.87 -8.14,5.31 -16.25,10.37 -22.73,18.07 -6.46,7.41 -9.05,19.81 -2.24,28.42 3.28,4.27 9.33,6.16 14.31,5.07 5.01,-1.05 9.22,-3.9 12.22,-7.67 3.03,-3.7 4.57,-8.91 3.9,-13.59 -0.57,-4.69 -2.7,-8.92 -5.53,-12.29 -5.71,-6.7 -13.98,-10.47 -21.99,-11.06 -8.02,-0.72 -15.58,0.88 -22.41,2.95 -6.84,2.15 -13.14,4.62 -19.1,7.35 -11.86,5.4 -21.88,12.69 -27.95,21.4 -6.26,8.73 -7.72,18.3 -7.18,25.6 0.53,7.45 3.45,12.76 5.83,15.75 2.5,2.99 4.37,3.9 4.37,3.9 0.75,-0.27 -7.43,-5.36 -8.1,-19.77 -0.19,-6.89 1.52,-15.82 7.53,-23.68 5.9,-8 15.47,-14.68 27.08,-19.71 11.61,-4.66 25.13,-10.55 39.49,-9.32 7.04,0.59 14.03,3.99 18.77,9.64 4.73,5.53 6.35,14 1.37,19.74 -4.41,5.92 -14.06,8.52 -18.6,2.42 -2.26,-2.79 -3.14,-6.87 -2.66,-10.8 0.39,-3.98 2.32,-7.67 5.01,-11.01 5.5,-6.56 13.6,-11.78 21.44,-16.82 8.01,-4.9 16.58,-9.17 25.63,-12.34 17.93,-6.37 37.76,-7.31 53.8,0.49 7.79,3.78 14.65,9.91 16.94,17.57 2.55,7.32 -1.42,16.09 -7.68,19.51 -6.4,3.74 -14.2,-0.81 -17.02,-7.4 -3.14,-6.48 -1.83,-14.3 0.69,-21 5.38,-13.68 13.65,-25.25 22.97,-33.63 9.33,-8.46 19.74,-13.75 29.41,-16.19 9.71,-2.49 18.53,-2.32 25.5,-1.32 14.06,2.36 20.61,7.62 20.88,7.02"
         style="fill:#33535f;fill-opacity:1;fill-rule:nonzero;stroke:none"
         id="path186" /><path
         d="m 1084.37,3093.88 c 0.09,-0.1 -1.24,-1.45 -4.23,-3.41 -2.97,-1.96 -7.77,-4.48 -14.52,-5.83 -6.69,-1.37 -15.41,-1.59 -24.77,1.59 -9.04,3.21 -19.76,9.47 -24.78,21.59 -2.46,5.73 -2.44,14.46 3.8,19.54 5.82,5.12 15.37,4.7 21.55,0.03 12.61,-9.09 17.82,-26.45 15.35,-42.68 -2.27,-16.1 -11.85,-33.39 -28.94,-40.96 -16.71,-7.73 -37.346,-5.6 -53.752,3.98 -8.211,4.82 -15.496,11.15 -20.59,19.18 -5.117,7.87 -7.48,18.09 -4.867,27.27 1.285,4.52 3.473,8.9 7.047,12.22 3.484,3.36 8.473,5.33 13.266,5.13 9.687,-0.33 17.468,-6.96 21.425,-14.38 4.098,-7.51 5.512,-15.66 5.868,-23.35 0.347,-7.75 -0.411,-15.3 -2.172,-22.34 -3.5,-14.08 -10.59,-26.24 -19.711,-34.67 -9.074,-8.57 -20.258,-12.68 -29.969,-13.49 -9.801,-0.95 -18.273,1.16 -24.508,3.89 -6.262,2.85 -10.465,6.22 -12.961,8.77 -2.488,2.57 -3.535,4.14 -3.422,4.22 0.446,0.58 4.907,-6.06 17.188,-11.03 6.086,-2.33 14.183,-4.02 23.379,-2.84 9.156,1.07 19.351,5.1 27.668,13.27 8.347,8.03 14.847,19.59 17.969,32.92 1.57,6.66 2.191,13.79 1.781,21.04 -0.399,7.22 -1.864,14.73 -5.465,21.16 -3.438,6.39 -9.957,11.46 -17.184,11.65 -7.234,0.39 -13.175,-5.97 -15.07,-13.54 -2.121,-7.62 -0.227,-15.99 4.301,-23.02 4.476,-7.07 11.215,-12.97 18.746,-17.37 15.086,-8.82 33.933,-10.69 48.823,-3.84 15.13,6.56 23.97,22.05 26.21,36.86 2.46,14.82 -2.41,30.47 -12.97,38.26 -5.09,3.87 -11.95,4.05 -16.34,0.43 -4.46,-3.46 -4.86,-9.9 -2.86,-14.97 4.04,-10.56 13.8,-16.86 22.2,-20.07 8.68,-3.25 16.94,-3.37 23.39,-2.38 13.08,2.2 18.8,7.86 19.12,7.17"
         style="fill:#33535f;fill-opacity:1;fill-rule:nonzero;stroke:none"
         id="path188" /><path
         d="m 671.313,662.988 c 0,0 66.82,-129.929 241.3,-66.828 0,0 170.777,-92.801 334.117,11.149 0,0 211.54,-28.36 326.63,27.32 L 1425.34,1911.07 1406.6,2107.12 H 939.898 c 0,0 -138.656,-63.11 -160.929,-371.25 -22.274,-308.12 -70.531,-731.34 -70.531,-731.34 L 671.313,662.988"
         style="fill:#17282f;fill-opacity:1;fill-rule:nonzero;stroke:none"
         id="path190" /><path
         d="m 1236.82,603.391 c -0.09,0 -0.26,1.3 -0.52,3.847 -0.25,2.801 -0.58,6.551 -1.01,11.332 -0.79,10.25 -1.93,24.871 -3.38,43.571 -2.88,37.839 -6.52,92.648 -10.53,160.39 -8.06,135.489 -16.7,322.829 -21.24,529.889 -4.45,207.13 -3.94,394.69 -1.76,530.4 1.07,67.86 2.32,122.76 3.56,160.69 0.64,18.74 1.14,33.4 1.49,43.67 0.22,4.79 0.39,8.55 0.52,11.36 0.14,2.56 0.26,3.86 0.35,3.86 0.09,0 0.15,-1.31 0.18,-3.87 0,-2.82 0,-6.58 0,-11.37 -0.12,-10.28 -0.29,-24.95 -0.51,-43.69 -0.46,-38.23 -1.11,-93.06 -1.91,-160.69 -1.23,-135.7 -1.16,-323.19 3.29,-530.25 4.54,-206.98 12.59,-394.292 19.71,-529.792 3.73,-67.527 6.76,-122.289 8.87,-160.468 1.03,-18.719 1.84,-33.36 2.41,-43.629 0.21,-4.789 0.37,-8.551 0.49,-11.36 0.08,-2.562 0.08,-3.883 -0.01,-3.89"
         style="fill:#33535f;fill-opacity:1;fill-rule:nonzero;stroke:none"
         id="path192" /><path
         d="m 1277.75,968.52 c -0.13,0.23 0.98,1.351 3.63,2.05 2.63,0.719 6.84,0.668 11.36,-1.441 4.35,-2.129 9.37,-6.488 10.74,-13.5 1.54,-7.09 -2.9,-15.027 -9.7,-18.758 -6.67,-3.941 -15.77,-3.691 -21.08,1.25 -5.32,4.758 -6.51,11.32 -6.11,16.141 0.49,4.957 2.61,8.609 4.57,10.488 1.96,1.922 3.49,2.301 3.62,2.082 0.66,-0.594 -4.6,-4.16 -4.51,-12.73 0.07,-4.032 1.56,-9.153 5.51,-12.301 3.81,-3.262 10.17,-3.403 15.43,-0.403 5.26,2.993 8.4,8.524 7.54,13.473 -0.7,5 -4.32,8.891 -7.76,11.02 -7.31,4.441 -13.08,1.757 -13.24,2.629"
         style="fill:#33535f;fill-opacity:1;fill-rule:nonzero;stroke:none"
         id="path194" /><path
         d="m 1267.38,1347.78 c -0.12,0.23 0.99,1.34 3.64,2.05 2.62,0.72 6.84,0.67 11.36,-1.44 4.35,-2.13 9.37,-6.49 10.74,-13.5 1.54,-7.09 -2.91,-15.03 -9.7,-18.76 -6.68,-3.94 -15.78,-3.7 -21.09,1.26 -5.32,4.76 -6.5,11.3 -6.11,16.13 0.5,4.96 2.61,8.61 4.57,10.49 1.97,1.92 3.49,2.31 3.63,2.08 0.66,-0.59 -4.6,-4.16 -4.51,-12.73 0.06,-4.03 1.56,-9.15 5.5,-12.3 3.81,-3.26 10.17,-3.4 15.43,-0.4 5.27,2.98 8.4,8.52 7.54,13.46 -0.69,5 -4.32,8.9 -7.75,11.03 -7.32,4.45 -13.08,1.77 -13.25,2.63"
         style="fill:#33535f;fill-opacity:1;fill-rule:nonzero;stroke:none"
         id="path196" /><path
         d="m 1261.29,1682.97 c -0.12,0.24 0.99,1.35 3.64,2.05 2.62,0.72 6.84,0.68 11.36,-1.43 4.35,-2.13 9.37,-6.5 10.74,-13.51 1.54,-7.09 -2.9,-15.03 -9.7,-18.76 -6.67,-3.93 -15.77,-3.69 -21.08,1.25 -5.32,4.77 -6.51,11.32 -6.12,16.14 0.5,4.96 2.62,8.62 4.58,10.49 1.96,1.93 3.49,2.31 3.62,2.08 0.66,-0.58 -4.6,-4.16 -4.51,-12.72 0.07,-4.04 1.56,-9.15 5.51,-12.31 3.81,-3.26 10.17,-3.4 15.43,-0.4 5.26,2.99 8.4,8.53 7.54,13.47 -0.7,5 -4.33,8.9 -7.76,11.02 -7.31,4.45 -13.08,1.76 -13.25,2.63"
         style="fill:#33535f;fill-opacity:1;fill-rule:nonzero;stroke:none"
         id="path198" /><path
         d="m 1249.35,2041.61 c -0.12,0.24 0.99,1.34 3.65,2.05 2.61,0.73 6.83,0.68 11.35,-1.44 4.35,-2.12 9.37,-6.49 10.74,-13.5 1.54,-7.09 -2.9,-15.03 -9.7,-18.76 -6.68,-3.93 -15.78,-3.69 -21.09,1.25 -5.32,4.77 -6.5,11.32 -6.1,16.15 0.48,4.96 2.6,8.61 4.57,10.48 1.96,1.93 3.48,2.31 3.62,2.08 0.65,-0.58 -4.6,-4.17 -4.52,-12.72 0.08,-4.04 1.57,-9.15 5.52,-12.31 3.8,-3.26 10.17,-3.39 15.43,-0.4 5.25,2.99 8.39,8.52 7.53,13.47 -0.69,5 -4.32,8.9 -7.75,11.03 -7.31,4.44 -13.08,1.75 -13.25,2.62"
         style="fill:#33535f;fill-opacity:1;fill-rule:nonzero;stroke:none"
         id="path200" /><path
         d="m 1858.12,2429.75 2358.7,17.14 65.75,-1603.628 -2442.35,22.648 17.9,1563.84"
         style="fill:#f03d5f;fill-opacity:1;fill-rule:nonzero;stroke:none"
         id="path202" /><path
         d="m 1858.12,2429.75 1116.31,903.28 c 47.27,38.25 114.9,38.03 161.93,-0.51 l 1080.46,-885.63 -2358.7,-17.14"
         style="fill:#f03d5f;fill-opacity:1;fill-rule:nonzero;stroke:none"
         id="path204" /><path
         d="m 1858.12,2429.75 1116.31,903.28 c 23.52,19.03 52.09,28.54 80.65,28.54 28.83,0 57.65,-9.69 81.28,-29.05 l 1080.46,-885.63 -2358.7,-17.14"
         style="fill:#ba2c42;fill-opacity:1;fill-rule:nonzero;stroke:none"
         id="path206" /><path
         d="m 1840.22,865.91 c -2.94,2.75 185.89,208.93 421.71,460.44 235.91,251.59 429.47,453.24 432.41,450.49 2.94,-2.77 -185.85,-208.89 -421.75,-460.49 -235.82,-251.5 -429.42,-453.202 -432.37,-450.44"
         style="fill:#17282f;fill-opacity:1;fill-rule:nonzero;stroke:none"
         id="path208" /><path
         d="m 4282.57,843.262 c -3.02,-2.672 -186.91,199.328 -410.69,451.138 -223.85,251.89 -402.82,458.2 -399.8,460.89 3.01,2.67 186.86,-199.29 410.72,-451.19 223.78,-251.8 402.78,-458.159 399.77,-460.838"
         style="fill:#17282f;fill-opacity:1;fill-rule:nonzero;stroke:none"
         id="path210" /><path
         d="m 3032.41,1500.71 -341.89,270.48 c 2.78,3.48 4.09,5.4 3.82,5.65 -0.02,0.02 -0.05,0.03 -0.09,0.03 -0.47,0 -2.31,-1.48 -5.43,-4.33 l -830.7,657.21 2358.7,17.14 -1184.41,-946.18"
         style="fill:#7e1c2c;fill-opacity:1;fill-rule:nonzero;stroke:none"
         id="path212" /><path
         d="m 2690.52,1771.19 -1.7,1.35 c 3.12,2.85 4.96,4.33 5.43,4.33 0.04,0 0.07,-0.01 0.09,-0.03 0.27,-0.25 -1.04,-2.17 -3.82,-5.65"
         style="fill:#0a1013;fill-opacity:1;fill-rule:nonzero;stroke:none"
         id="path214" /><path
         d="m 1976.91,2342.14 -3.68,736.68 2065.35,24.41 23.27,-775.11 -1029.56,-815.03 -1055.38,829.05"
         style="fill:#fafaf9;fill-opacity:1;fill-rule:nonzero;stroke:none"
         id="path216" /><path
         d="m 1976.91,2342.14 c 0,0 6.68,-5 19.37,-14.85 12.72,-9.9 31.5,-24.53 56.03,-43.64 49.06,-38.38 121.08,-94.7 213.13,-166.7 183.91,-144.16 447.83,-351.07 768.17,-602.18 l -2.65,-0.01 c 296.6,234.95 648.51,513.73 1029.3,815.38 l -0.97,-2.09 c -4.46,147.87 -9.13,303 -13.88,460.86 -3.19,106.27 -6.33,211.29 -9.42,314.24 l 2.62,-2.51 c -832.31,-9.47 -1566.54,-17.82 -2065.36,-23.5 l 1.65,1.68 c 0.81,-231.79 1.45,-415.83 1.89,-542.02 0.13,-63.08 0.22,-111.69 0.29,-144.61 -0.01,-16.39 -0.02,-28.86 -0.03,-37.33 -0.03,-8.39 -0.14,-12.72 -0.14,-12.72 0,0 -0.17,4.19 -0.28,12.52 -0.09,8.42 -0.22,20.84 -0.4,37.15 -0.26,32.87 -0.65,81.41 -1.15,144.39 -0.82,126.33 -2.02,310.57 -3.52,542.61 l -0.01,1.66 1.66,0.02 c 498.82,6.11 1233.04,15.12 2065.34,25.33 l 2.54,0.03 0.08,-2.54 c 3.1,-102.96 6.25,-207.98 9.45,-314.24 4.73,-157.87 9.38,-312.99 13.81,-460.87 l 0.04,-1.29 -1.01,-0.8 c -381,-301.4 -733.1,-579.95 -1029.84,-814.7 l -1.33,-1.05 -1.32,1.05 c -320.09,251.96 -583.81,459.55 -767.58,604.21 -91.66,72.31 -163.36,128.88 -212.22,167.43 -24.29,19.24 -42.88,33.97 -55.48,43.95 -12.5,9.95 -18.78,15.14 -18.78,15.14"
         style="fill:#17282f;fill-opacity:1;fill-rule:nonzero;stroke:none"
         id="path218" /><path
         d="m 3712.18,2732.32 c 0.01,-1.43 -315.85,-4.52 -705.4,-6.88 -389.69,-2.37 -705.5,-3.12 -705.51,-1.68 -0.01,1.44 315.78,4.52 705.47,6.89 389.55,2.36 705.43,3.11 705.44,1.67"
         style="fill:#17282f;fill-opacity:1;fill-rule:nonzero;stroke:none"
         id="path220" /><path
         d="m 3712.18,2524.24 c 0.01,-1.44 -315.85,-4.53 -705.4,-6.89 -389.69,-2.37 -705.5,-3.12 -705.51,-1.68 -0.01,1.44 315.78,4.52 705.47,6.89 389.55,2.36 705.43,3.11 705.44,1.68"
         style="fill:#17282f;fill-opacity:1;fill-rule:nonzero;stroke:none"
         id="path222" /><path
         d="m 3712.18,2284.4 c 0.01,-1.44 -315.85,-4.52 -705.4,-6.89 -389.69,-2.37 -705.5,-3.11 -705.51,-1.68 -0.01,1.44 315.78,4.52 705.47,6.89 389.55,2.37 705.43,3.12 705.44,1.68"
         style="fill:#17282f;fill-opacity:1;fill-rule:nonzero;stroke:none"
         id="path224" /><path
         d="m 3712.18,2044.56 c 0.01,-1.43 -301.34,-4.43 -672.98,-6.69 -371.78,-2.25 -673.07,-2.92 -673.08,-1.48 -0.01,1.43 301.27,4.43 673.04,6.69 371.65,2.25 673.01,2.92 673.02,1.48"
         style="fill:#17282f;fill-opacity:1;fill-rule:nonzero;stroke:none"
         id="path226" /><path
         d="m 3448.01,1834.05 c 0,-0.18 -2.86,-0.38 -8.28,-0.58 -5.89,-0.17 -13.79,-0.38 -23.72,-0.65 -21.13,-0.35 -50.81,-0.84 -87.26,-1.44 -74.12,-1.07 -175.68,-2.52 -287.86,-4.13 -112.46,-1.88 -214.29,-2.51 -287.98,-2.6 -36.46,0.09 -66.13,0.17 -87.27,0.22 -9.92,0.13 -17.82,0.25 -23.72,0.33 -5.43,0.13 -8.28,0.29 -8.28,0.47 0,0.18 2.85,0.37 8.27,0.57 5.9,0.17 13.8,0.38 23.72,0.65 21.13,0.35 50.8,0.84 87.25,1.44 74.13,1.07 175.69,2.52 287.92,4.13 112.42,1.88 214.23,2.51 287.92,2.6 36.46,-0.09 66.14,-0.17 87.27,-0.21 9.94,-0.14 17.84,-0.25 23.73,-0.34 5.43,-0.13 8.29,-0.29 8.29,-0.46"
         style="fill:#17282f;fill-opacity:1;fill-rule:nonzero;stroke:none"
         id="path228" /><path
         d="m 3182.12,1631.7 c 0,-1.44 -67.35,-2.61 -150.4,-2.61 -83.09,0 -150.42,1.17 -150.42,2.61 0,1.44 67.33,2.6 150.42,2.6 83.05,0 150.4,-1.16 150.4,-2.6"
         style="fill:#17282f;fill-opacity:1;fill-rule:nonzero;stroke:none"
         id="path230" /><path
         d="m 4126.8,2044.56 c 0,-137.78 -111.69,-249.48 -249.48,-249.48 -137.78,0 -249.48,111.7 -249.48,249.48 0,137.79 111.7,249.49 249.48,249.49 137.79,0 249.48,-111.7 249.48,-249.49"
         style="fill:#17282f;fill-opacity:1;fill-rule:nonzero;stroke:none"
         id="path232" /><path
         d="m 4061.85,2044.56 c 0,-137.78 -111.7,-249.48 -249.48,-249.48 -137.78,0 -249.48,111.7 -249.48,249.48 0,137.79 111.7,249.49 249.48,249.49 137.78,0 249.48,-111.7 249.48,-249.49"
         style="fill:#33535f;fill-opacity:1;fill-rule:nonzero;stroke:none"
         id="path234" /><path
         d="m 3844.09,2160.72 v -207.43 h -38.52 v 175.13 h -43.85 v 32.3 h 82.37"
         style="fill:#e7e8e5;fill-opacity:1;fill-rule:nonzero;stroke:none"
         id="path236" /><path
         d="m 1993.09,3415.26 228.15,0.08 -30.84,35.45 -0.03,84.89 c -0.02,45.91 -37.25,83.12 -83.16,83.11 -45.92,-0.02 -83.13,-37.25 -83.11,-83.16 l 0.02,-80.8 -31.03,-39.57"
         style="fill:#f03d5f;fill-opacity:1;fill-rule:nonzero;stroke:none"
         id="path238" /><path
         d="m 2075.28,3426.47 c 0.53,-13.31 9.31,-25.95 21.59,-31.09 12.29,-5.15 27.45,-2.54 37.31,6.41 9.87,8.96 13.91,23.8 9.97,36.53"
         style="fill:#f03d5f;fill-opacity:1;fill-rule:nonzero;stroke:none"
         id="path240" /><path
         d="m 2119.87,3605.78 -22.39,-0.01 -0.01,47.57 h 22.38 l 0.02,-47.56"
         style="fill:#f03d5f;fill-opacity:1;fill-rule:nonzero;stroke:none"
         id="path242" /><path
         d="m 2439.85,3571.42 c -0.12,-0.02 -0.66,2.01 -1.59,5.97 -0.97,4.29 -2.3,10.12 -4,17.62 -1.35,7.84 -4.46,17.14 -8.1,28.12 -1.95,5.44 -3.35,11.57 -6.11,17.63 -2.67,6.1 -5.5,12.58 -8.49,19.44 -12.86,26.91 -31.6,58.81 -60.49,89.37 -28.69,30.51 -67.45,59.46 -115.21,79.29 -23.63,10.67 -49.97,16.97 -77.41,22.05 -27.66,3.3 -56.83,5.5 -86.58,1.38 -15,-0.9 -29.79,-4.81 -44.96,-7.84 -7.57,-1.61 -14.87,-4.52 -22.41,-6.74 -7.52,-2.3 -15.08,-4.68 -22.32,-8.16 -29.9,-11.42 -58.16,-29.37 -84.61,-50.64 -53.12,-42.55 -94.62,-106.64 -112.95,-180.68 -9.19,-37.05 -11.09,-76.72 -6.55,-116.07 3.72,-39.5 15.93,-78.67 34.27,-114.75 l 5.8,-10.88 0.76,-1.44 -0.44,-1.48 c -18.44,-60.5 -36.52,-119.83 -54.04,-177.32 l -4.74,4.28 c 49.26,25.69 97.03,50.6 142.86,74.49 l 1.76,0.92 1.62,-1.24 c 46.04,-35.42 98.66,-56.92 150.41,-65.33 51.9,-8.43 102.63,-3.36 147.75,10.09 45.23,13.45 84.78,35.86 116.85,62.52 32.17,26.67 56.89,57.46 75.17,87.95 18.09,30.8 28.82,61.47 36.46,88.66 6.31,27.6 9.34,51.81 9.88,71.63 0.07,9.87 0.13,18.64 0.18,26.3 -0.66,7.49 -1.22,13.85 -1.69,19.12 -0.39,4.92 -0.71,8.8 -0.95,11.73 -0.18,2.64 -0.23,3.99 -0.13,4.01 0.09,0.01 0.32,-1.31 0.7,-3.93 0.37,-2.92 0.86,-6.78 1.48,-11.7 0.62,-5.27 1.36,-11.66 2.23,-19.16 0.1,-7.71 0.22,-16.54 0.35,-26.47 -0.21,-19.97 -2.93,-44.43 -9,-72.41 -7.4,-27.54 -17.98,-58.7 -36.05,-90.03 -18.26,-31.05 -43.1,-62.43 -75.58,-89.7 -32.37,-27.25 -72.41,-50.23 -118.3,-64.1 -45.78,-13.87 -97.33,-19.22 -150.18,-10.82 -52.69,8.39 -106.36,30.15 -153.38,66.17 l 3.38,-0.31 c -45.79,-23.97 -93.51,-48.95 -142.74,-74.71 l -7.2,-3.77 2.45,8.05 c 17.49,57.51 35.53,116.85 53.94,177.35 l 0.31,-2.9 -5.93,11.11 c -18.75,36.88 -31.21,76.95 -35,117.33 -4.62,40.21 -2.63,80.76 6.8,118.61 18.8,75.64 61.3,140.88 115.51,184.1 27,21.6 55.84,39.76 86.29,51.3 7.37,3.5 15.07,5.91 22.73,8.22 7.68,2.23 15.11,5.15 22.81,6.76 15.44,3.03 30.49,6.93 45.73,7.79 30.24,4.04 59.88,1.69 87.94,-1.82 27.86,-5.3 54.55,-11.86 78.46,-22.82 48.34,-20.42 87.4,-50.06 116.18,-81.21 28.97,-31.19 47.57,-63.65 60.17,-90.97 2.91,-6.96 5.68,-13.54 8.27,-19.74 2.69,-6.14 4,-12.35 5.86,-17.85 3.47,-11.13 6.38,-20.54 7.52,-28.47 1.42,-7.57 2.53,-13.48 3.34,-17.81 0.72,-4.01 1.03,-6.07 0.91,-6.09"
         style="fill:#17282f;fill-opacity:1;fill-rule:nonzero;stroke:none"
         id="path244" /><path
         d="m 5198.87,1196.69 c 32.66,-110.55 7.87,-252.581 -31.71,-360.838 -39.57,-108.282 -114.69,-203.223 -210.94,-266.653 -10.86,-7.16 -24.76,-14.07 -36.19,-7.898 -9.37,5.07 -12.62,16.711 -14.67,27.168 -23.19,118.461 -6.98,244.281 45.48,352.992 52.46,108.709 140.88,199.689 248.03,255.229"
         style="fill:#f03d5f;fill-opacity:1;fill-rule:nonzero;stroke:none"
         id="path246" /><path
         d="m 4929.8,558.91 c -3.37,0 -6.66,0.711 -9.77,2.391 -9.37,5.07 -12.62,16.711 -14.67,27.168 -6.89,35.172 -10.3,70.98 -10.32,106.812 -0.05,84.84 18.91,169.739 55.8,246.18 52.46,108.709 140.88,199.689 248.03,255.229 10.53,-35.63 15.09,-74.52 15.1,-114.5 0.04,-84.088 -19.99,-172.96 -46.81,-246.338 -39.57,-108.282 -114.69,-203.223 -210.94,-266.653 -7.9,-5.211 -17.42,-10.289 -26.42,-10.289"
         style="fill:#da314b;fill-opacity:1;fill-rule:nonzero;stroke:none"
         id="path248" /><path
         d="m 4707.64,1721.17 c 68.88,1.88 114.26,-74.61 121.17,-143.16 6.89,-68.54 -8.38,-139.71 11.74,-205.59 25.56,-83.67 103.77,-143.7 127.47,-227.92 27.94,-99.31 -26.54,-202.379 -29.15,-305.52 -1.26,-50.179 9.82,-100.898 0.54,-150.242 -15.64,-83.179 -95.03,-149.687 -179.67,-150.527 -84.64,-0.852 -165.33,64.078 -182.62,146.937 -16.13,77.262 17.93,159.34 -2.49,235.582 -15.1,56.372 -58.84,104.2 -62.41,162.44 -4.24,69.28 49.39,129.19 59.33,197.9 9.94,68.71 -24.76,135.81 -29.92,205.07 -9.27,124.21 42.16,221.74 166.01,235.03"
         style="fill:#f03d5f;fill-opacity:1;fill-rule:nonzero;stroke:none"
         id="path250" /><path
         d="m 4858.5,306.672 c 0.22,-0.043 0.91,2.34 2.03,6.887 1.21,5.261 2.71,11.871 4.56,19.98 3.73,17.383 9.47,42.461 17,73.34 14.98,61.762 38.5,146.41 70.97,237.762 32.61,91.339 67.93,171.82 95.36,229.129 13.69,28.679 25.08,51.75 33.19,67.57 3.69,7.441 6.7,13.519 9.1,18.359 2.01,4.231 2.98,6.5 2.78,6.61 -0.19,0.113 -1.55,-1.95 -3.94,-5.989 -2.68,-4.691 -6.05,-10.57 -10.18,-17.789 -8.81,-15.48 -20.85,-38.261 -35.09,-66.742 -28.55,-56.91 -64.65,-137.34 -97.35,-228.957 -32.58,-91.621 -55.46,-176.754 -69.33,-238.902 -6.97,-31.071 -12.04,-56.34 -15,-73.899 -1.37,-8.203 -2.48,-14.89 -3.36,-20.222 -0.7,-4.649 -0.96,-7.098 -0.74,-7.137"
         style="fill:#17282f;fill-opacity:1;fill-rule:nonzero;stroke:none"
         id="path252" /><path
         d="m 4710.53,1382.41 c -0.23,-0.02 0.08,-3.82 0.9,-11.02 0.96,-7.75 2.25,-18.23 3.89,-31.44 3.67,-27.87 8.85,-67.16 15.21,-115.46 12.96,-97.48 30.73,-232.15 49.44,-381.021 18.69,-148.91 34.79,-283.797 46.36,-381.457 5.77,-48.371 10.47,-87.711 13.8,-115.633 1.69,-13.188 3.03,-23.668 4.03,-31.418 0.98,-7.16 1.61,-10.922 1.83,-10.902 0.23,0.031 0.03,3.832 -0.52,11.05 -0.7,7.77 -1.63,18.301 -2.81,31.532 -2.84,27.988 -6.84,67.418 -11.75,115.89 -10.39,97.801 -25.78,232.809 -44.48,381.758 -18.72,148.902 -37.2,283.501 -51.33,380.841 -7.22,48.17 -13.11,87.38 -17.27,115.18 -2.14,13.14 -3.85,23.56 -5.09,31.26 -1.24,7.14 -2,10.88 -2.21,10.84"
         style="fill:#17282f;fill-opacity:1;fill-rule:nonzero;stroke:none"
         id="path254" /><path
         d="m 5098.66,380.73 h -522.57 v 61.032 h 522.57 V 380.73"
         style="fill:#17282f;fill-opacity:1;fill-rule:nonzero;stroke:none"
         id="path256" /><path
         d="m 4624.54,380.73 61.37,-370.1792 h 324.14 l 42.48,370.1792 h -427.99"
         style="fill:#17282f;fill-opacity:1;fill-rule:nonzero;stroke:none"
         id="path258" /><path
         d="m 5054.19,383.238 c 0.02,-1.437 -96.52,-3.797 -215.59,-5.289 -119.11,-1.48 -215.65,-1.508 -215.66,-0.078 -0.02,1.438 96.49,3.801 215.59,5.289 119.08,1.481 215.64,1.52 215.66,0.078"
         style="fill:#33535f;fill-opacity:1;fill-rule:nonzero;stroke:none"
         id="path260" /><path
         d="m 5036.38,197.961 c 0,-0.09 -0.99,-0.199 -2.94,-0.34 -2.24,-0.109 -5.1,-0.242 -8.67,-0.41 -7.61,-0.172 -18.91,-0.492 -33.38,1.289 -14.26,1.84 -32.5,5.91 -49.39,18.52 -8.34,6.23 -16.35,14.601 -21.52,25.468 -5.15,10.723 -7.42,24.223 -3.09,37.192 4.02,12.89 17.07,24.179 32.58,23.539 7.65,-0.387 15.07,-4.309 20.17,-10.188 5.14,-5.883 8.43,-13.222 10.09,-20.961 6.34,-31.621 -15.85,-66.769 -49.64,-77.808 -34.36,-11.614 -75.73,8 -92.75,42.5 -4.25,8.609 -7.09,18.109 -7.53,28 -0.47,9.816 1.56,20.258 7.59,28.777 5.9,8.352 15.26,14.691 26,15.609 10.81,1.024 21.51,-4.976 27.45,-13.597 6.15,-8.551 9.19,-18.949 8.96,-29.231 -0.15,-10.199 -2.97,-20.16 -7.5,-28.992 -8.98,-17.887 -24.67,-31.18 -41.66,-39.508 -17.12,-8.371 -35.34,-12.769 -53.32,-15.039 -17.99,-2.179 -36.35,-1.293 -52.98,4.61 -16.54,5.89 -31.02,16.82 -39.8,31.23 -9.04,14.301 -10.55,32.328 -5.15,47.18 5.05,14.949 17.81,27.168 32.84,29.32 14.74,2.059 29.58,-3.562 38.22,-14.262 8.75,-11.039 8.31,-25.937 3.4,-36.75 -4.72,-11.199 -13.27,-19.39 -21.94,-25.07 -8.75,-5.769 -17.74,-9.48 -25.99,-12.609 -8.27,-3.11 -15.95,-5.61 -22.93,-7.621 -13.93,-4.028 -25.01,-6.188 -32.53,-7.45 -3.77,-0.629 -6.65,-1.019 -8.59,-1.238 -1.94,-0.223 -2.94,-0.281 -2.96,-0.199 -0.01,0.09 0.97,0.34 2.88,0.726 2.19,0.454 4.98,1.024 8.48,1.743 7.43,1.597 18.38,4.058 32.15,8.359 6.88,2.148 14.45,4.781 22.6,7.988 8.13,3.242 16.9,7.032 25.26,12.723 8.32,5.609 16.23,13.437 20.52,23.937 4.47,10.192 4.57,23.532 -3.22,33.172 -7.74,9.469 -21.47,14.578 -34.72,12.571 -13.31,-1.993 -24.81,-12.961 -29.4,-26.77 -4.86,-13.801 -3.44,-30.141 4.98,-43.371 8.2,-13.309 21.88,-23.602 37.49,-29.09 15.75,-5.519 33.33,-6.359 50.79,-4.199 17.47,2.25 35.3,6.629 51.64,14.68 16.28,8.019 30.94,20.558 39.32,37.269 8.53,16.238 10.21,37.551 -1.05,52.809 -5.26,7.562 -14,12.293 -22.83,11.5 -8.82,-0.707 -17.08,-6.16 -22.18,-13.418 -5.17,-7.27 -7.1,-16.59 -6.67,-25.563 0.38,-9.039 3,-17.937 6.96,-25.968 15.84,-32.399 54.95,-50.95 86.7,-40.192 31.63,10.094 52.66,43.371 46.88,72.363 -1.47,7.11 -4.48,13.848 -8.99,19.09 -4.5,5.219 -10.77,8.528 -17.27,8.93 -13.27,0.68 -25.19,-9.133 -28.86,-20.731 -4.07,-11.75 -2.16,-24.421 2.59,-34.582 4.77,-10.308 12.31,-18.437 20.29,-24.546 16.13,-12.411 33.84,-16.711 47.91,-18.84 14.24,-2.071 25.51,-2.082 33.09,-2.25 3.57,-0.043 6.42,-0.082 8.67,-0.114 1.95,-0.027 2.95,-0.097 2.95,-0.187"
         style="fill:#33535f;fill-opacity:1;fill-rule:nonzero;stroke:none"
         id="path262" /></g></g></svg>
