<?xml version="1.0" encoding="UTF-8" standalone="no"?>
<!-- Created with Inkscape (http://www.inkscape.org/) -->

<svg
   version="1.1"
   id="svg2"
   xml:space="preserve"
   width="5333.3335"
   height="3333.3333"
   viewBox="0 0 5333.3335 3333.3333"
   sodipodi:docname="meeting.eps"
   xmlns:inkscape="http://www.inkscape.org/namespaces/inkscape"
   xmlns:sodipodi="http://sodipodi.sourceforge.net/DTD/sodipodi-0.dtd"
   xmlns="http://www.w3.org/2000/svg"
   xmlns:svg="http://www.w3.org/2000/svg"><defs
     id="defs6"><clipPath
       clipPathUnits="userSpaceOnUse"
       id="clipPath308"><path
         d="m 4625.63,19192.3 c -416.14,0 -753.49,337.3 -753.49,753.5 0,416.1 337.35,753.5 753.49,753.5 416.15,0 753.5,-337.4 753.5,-753.5 0,-416.2 -337.35,-753.5 -753.5,-753.5 m 0,2175.8 c -785.55,0 -1422.36,-636.8 -1422.36,-1422.3 0,-785.6 636.81,-1422.4 1422.36,-1422.4 785.56,0 1422.37,636.8 1422.37,1422.4 0,785.5 -636.81,1422.3 -1422.37,1422.3"
         id="path306" /></clipPath></defs><sodipodi:namedview
     id="namedview4"
     pagecolor="#ffffff"
     bordercolor="#666666"
     borderopacity="1.0"
     inkscape:pageshadow="2"
     inkscape:pageopacity="0.0"
     inkscape:pagecheckerboard="0" /><g
     id="g8"
     inkscape:groupmode="layer"
     inkscape:label="ink_ext_XXXXXX"
     transform="matrix(1.3333333,0,0,-1.3333333,0,3333.3333)"><g
       id="g10"
       transform="scale(0.1)"><path
         d="M 0,0 H 40000 V 25000 H 0 Z"
         style="fill:#ffffff;fill-opacity:1;fill-rule:nonzero;stroke:none"
         id="path12" /><path
         d="m 6742.33,21540.2 c 5156.27,1914.2 10396.97,221.9 13951.27,-3464.1 1777.6,-1843.6 4532.2,-1206.6 7336.7,-569.6 2802.8,636.6 5655.5,1273.1 7632.9,-566.3 C 38363,14428.8 37126.3,7971.9 33424.5,5175.2 28392.7,1373.9 9647.39,1259.8 6537.16,2564.2 1222.34,4793.2 6503.24,8921 4022.34,12877.9 c -2926.88,4668.2 441.34,7816.4 2719.99,8662.3"
         style="fill:#e7f3fe;fill-opacity:1;fill-rule:nonzero;stroke:none"
         id="path14" /><path
         d="m 35766.6,3663.1 c -2581.1,126.2 -11361.4,-87.5 -14031.8,-170.9 -2670.4,-83.3 -5770.1,110 -7380.2,394.2 C 12744.5,4170.7 3437.34,3862.2 3859.69,3098 4282.05,2333.8 8006.44,2756.1 12230,2449 c 4223.5,-307.2 13722.3,38.4 15865,0 2142.6,-38.4 4107.4,76.8 6868.6,230.4 2761.2,153.5 2299.1,910.6 803,983.7"
         style="fill:#cce2ff;fill-opacity:1;fill-rule:nonzero;stroke:none"
         id="path16" /><path
         d="m 28205.9,18338 -262.5,405.7 c -76.6,-8.8 -154.4,-13.4 -233.4,-13.4 -115.8,0 -229.2,9.8 -339.7,28.4 l -283.5,-391.3 c -138.7,36 -272.7,83.8 -400.8,142.1 l 26.1,482.4 c -167.8,94.7 -320.7,212.6 -454.5,349.3 l -44.1,-14.4 v 2978.7 l 121.2,-46.7 c 140.6,129.3 299.5,239 472.3,324.9 l -0.6,483.1 c 130.9,51.3 267.2,91.9 407.8,120.5 l 262.5,-405.7 c 76.6,8.7 154.4,13.4 233.3,13.4 115.8,0 229.3,-9.8 339.8,-28.5 l 283.5,391.3 c 138.7,-36 272.7,-83.7 400.8,-142.1 l -26.1,-482.3 c 167.7,-94.8 320.6,-212.7 454.5,-349.4 l 459.1,149.8 c 90,-109.3 170.7,-226.6 241.1,-350.5 l -304.4,-374.5 c 78.8,-171.9 134.3,-356.5 162.5,-550.1 l 459.1,-148.5 c 2.9,-48.8 4.5,-98 4.5,-147.6 0,-93.9 -5.4,-186.6 -15.6,-277.8 l -466.2,-124.1 c -38.4,-191.3 -103.7,-372.8 -191.6,-540.6 l 284.2,-390.2 c -76.8,-119.9 -163.7,-232.6 -259.4,-337.2 l -450.4,173.8 c -140.6,-129.4 -299.5,-239.1 -472.4,-325 l 0.6,-483 c -130.8,-51.4 -267.1,-91.9 -407.7,-120.5 m -495.9,3395.1 c -536,0 -970.5,-434.5 -970.5,-970.5 0,-536 434.5,-970.5 970.5,-970.5 536,0 970.5,434.5 970.5,970.5 0,536 -434.5,970.5 -970.5,970.5"
         style="fill:#cee3ff;fill-opacity:1;fill-rule:nonzero;stroke:none"
         id="path18" /><path
         d="m 29033.7,19642 c -11.3,0 -22.6,3.8 -32,11.6 -21.2,17.6 -24.1,49.2 -6.4,70.4 241.8,290.8 375,659.7 375,1038.6 0,181.5 -29.6,359.7 -88.2,529.6 -9,26.1 4.9,54.5 31,63.5 26.1,9 54.6,-4.8 63.6,-30.9 62.1,-180.5 93.6,-369.6 93.6,-562.2 0,-402.2 -141.4,-793.8 -398.1,-1102.5 -9.9,-11.9 -24.2,-18.1 -38.5,-18.1"
         style="fill:#ffffff;fill-opacity:1;fill-rule:nonzero;stroke:none"
         id="path20" /><path
         d="m 28893.2,21932.6 c -12.3,0 -24.6,4.6 -34.3,13.6 -162.5,153.1 -350.8,269.1 -559.5,344.8 -26,9.4 -39.4,38.1 -30,64.1 9.4,25.9 38.1,39.3 64.1,29.9 221.6,-80.4 421.5,-203.5 594,-366 20.1,-18.9 21,-50.5 2.1,-70.6 -9.8,-10.5 -23.1,-15.8 -36.4,-15.8"
         style="fill:#ffffff;fill-opacity:1;fill-rule:nonzero;stroke:none"
         id="path22" /><path
         d="m 27333.6,22337.1 c -22.4,0 -42.7,15.1 -48.5,37.8 -6.7,26.8 9.5,54 36.3,60.7 137.7,34.8 280.2,52.4 423.5,52.4 27.7,0 50,-22.4 50,-50 0,-27.6 -22.3,-50 -50,-50 -135.1,0 -269.3,-16.6 -399.1,-49.3 -4.1,-1.1 -8.2,-1.6 -12.2,-1.6"
         style="fill:#ffffff;fill-opacity:1;fill-rule:nonzero;stroke:none"
         id="path24" /><path
         d="M 26051.5,17085.6 V 19274 l 162,52.8 v -2211.1 c -54,-10.2 -108.2,-20.3 -162,-30.1 m 162,5219.9 -162,62.5 v 585.5 H 11502.3 v -624.6 c -131.9,4.3 -264.6,6.5 -397.1,6.5 -118.7,0 -237.2,-1.7 -356.3,-5.2 v 850 h 15464.6 v -874.7"
         style="fill:#cee3ff;fill-opacity:1;fill-rule:nonzero;stroke:none"
         id="path26" /><path
         d="M 26213.5,13891.4 H 10748.9 v 8438.8 c 119.1,3.5 237.6,5.2 356.3,5.2 132.5,0 265.2,-2.2 397.1,-6.5 v -7902.7 h 14549.2 v 2659.4 c 53.8,9.8 108,19.9 162,30.1 v -3224.3"
         style="fill:#c2ddff;fill-opacity:1;fill-rule:nonzero;stroke:none"
         id="path28" /><path
         d="m 26051.5,19274 v 3094 l 162,-62.5 v -2978.7 l -162,-52.8"
         style="fill:#b6d5ff;fill-opacity:1;fill-rule:nonzero;stroke:none"
         id="path30" /><path
         d="m 11502.3,14426.2 h 14549.2 v 8527.32 H 11502.3 Z"
         style="fill:#ffffff;fill-opacity:1;fill-rule:nonzero;stroke:none"
         id="path32" /><path
         d="m 23908.7,18546.6 c 693.4,660 1878.4,645 1853.4,-360 -25,-1005 58,-1099.5 343.3,-1626.7 990,-1829.3 -1180,-1721.7 -2085,-1781.7 -905,-60 -830,1645 -670,2590 160,945 355.4,985.2 558.3,1178.4"
         style="fill:#303c60;fill-opacity:1;fill-rule:nonzero;stroke:none"
         id="path34" /><path
         d="m 24231.9,12784.2 c -222.3,-1866.7 -626.2,-3246.6 -671.2,-4131.6 -45,-884.9 -225,-4369.4 -225,-4369.4 0,0 495,34.6 540,109.6 45,75 930,2039.9 885,3254.9 -45,1214.9 883.9,3062.2 883.9,3062.2 l -224,1812.5 -1188.7,261.8"
         style="fill:#4476bd;fill-opacity:1;fill-rule:nonzero;stroke:none"
         id="path36" /><path
         d="m 24445.4,11971.6 -347.6,-145.5 c -94.5,-591.9 -199.4,-1124.1 -291.4,-1596.2 553.2,-357.6 838.9,-1549.2 961.4,-2277.7 62.4,815.2 447,1800.2 685.6,2344.9 l -1008,1674.5"
         style="fill:#3e6bab;fill-opacity:1;fill-rule:nonzero;stroke:none"
         id="path38" /><path
         d="m 26050.6,12972.4 c 0,0 749.2,-955.7 725.7,-2039.9 -35.7,-1650.5 -215.7,-2121.7 97.5,-3852.3 122.3,-675.9 -270,-2887 -270,-2887 0,0 -335.1,-26.2 -515.1,63.4 15,162.4 -216.6,2805.2 -667.6,4020 -218.5,588.3 -525.4,2235.9 -690.4,3180.9 -165,944.9 -195,1139.9 -135,1139.9 60,0 1454.9,375 1454.9,375"
         style="fill:#4476bd;fill-opacity:1;fill-rule:nonzero;stroke:none"
         id="path40" /><path
         d="m 21782.1,15626.6 c 0,0 33.3,494.5 -20,647.2 -53.4,152.8 -513.4,286.1 -513.4,286.1 0,0 -20,-706.7 26.7,-793.3 46.7,-86.7 320,-333.4 320,-333.4 l 186.7,193.4"
         style="fill:#f09959;fill-opacity:1;fill-rule:nonzero;stroke:none"
         id="path42" /><path
         d="m 24368.6,15986.9 c -1053.2,-1133.7 -1397,-1610.7 -1477,-1610.7 -250,441.3 -1080.3,1374.6 -1080.3,1374.6 l -354.1,-227.6 c 0,0 818.2,-2137.7 1338.2,-2159.8 520,-22.1 1576.9,737.2 1590.3,824.4 13.4,87.2 -17.1,1799.1 -17.1,1799.1"
         style="fill:#a2dff2;fill-opacity:1;fill-rule:nonzero;stroke:none"
         id="path44" /><path
         d="m 23270.1,13474.2 c 515.3,209.8 1105.6,648.6 1115.6,713.6 13.4,87.2 -17.1,1799.1 -17.1,1799.1 -229.6,-247.2 -430,-466.4 -604,-658.1 -188.7,-702.6 -176.3,-1467.7 -494.5,-1854.6"
         style="fill:#96cfe0;fill-opacity:1;fill-rule:nonzero;stroke:none"
         id="path46" /><path
         d="m 25438.7,16733.2 c 0,0 1007.9,-505.2 1227.9,-1399.5 220,-894.2 -431,-1999.1 -511,-2588.7 -80,-589.6 -1919.9,-693.3 -1919.9,-62.2 0,605.1 -461,1889.4 -435,2216.6 61.1,767.6 1183.1,1707.9 1183.1,1707.9 l 454.9,125.9"
         style="fill:#a2dff2;fill-opacity:1;fill-rule:nonzero;stroke:none"
         id="path48" /><path
         d="m 25145.8,17891.7 432.7,-1334.3 c 0,0 -462,-356.5 -1252.7,-1214.2 30.7,570.8 508.9,1192.9 508.9,1192.9 l -327.3,1260 638.4,95.6"
         style="fill:#f09959;fill-opacity:1;fill-rule:nonzero;stroke:none"
         id="path50" /><path
         d="m 25347.6,17269.4 -201.8,622.3 -638.4,-95.6 327.3,-1260 c 0,0 -32,-50.9 -79.1,-131 308.3,228.9 497.5,513.7 592,864.3"
         style="fill:#e38540;fill-opacity:1;fill-rule:nonzero;stroke:none"
         id="path52" /><path
         d="m 24907.4,17590.6 c -116.7,-424.6 -568.6,-658.4 -889.8,-570.1 -321.1,88.3 -389.8,465.1 -273.1,889.7 116.7,424.6 471.7,697.3 792.8,609 321.1,-88.2 486.8,-504 370.1,-928.6"
         style="fill:#f09959;fill-opacity:1;fill-rule:nonzero;stroke:none"
         id="path54" /><path
         d="m 24155.3,13281.1 c 140.1,-887.9 -380.2,-2787.4 -380.2,-2787.4 0,0 310.3,-70.5 1240.3,19.5 930,90 1340,1018.2 1480,1044.1 140,25.9 211.9,-863.8 280.9,-934.1 69.1,-70.3 79.6,1123.5 -100.9,1592.9 -320,831.9 -257.4,1184.8 -137.8,1688.8 212.7,896.3 -2382.3,-623.8 -2382.3,-623.8"
         style="fill:#a2dff2;fill-opacity:1;fill-rule:nonzero;stroke:none"
         id="path56" /><path
         d="m 23358.3,4720.2 c 83.8,-340.3 -81.6,-610.2 -302.9,-807 -180,-160 -733.3,-228 -706.7,-308 26.7,-80 680,-105.3 900,-72 220,33.4 280,140 553.8,139.9 179.6,-0.1 212.9,145.9 132.9,326.3 -80,180.5 -108,280.2 -35.7,442 72.3,161.8 -541.4,278.8 -541.4,278.8"
         style="fill:#4476bd;fill-opacity:1;fill-rule:nonzero;stroke:none"
         id="path58" /><path
         d="m 26623.1,4720.2 c -13.4,-353.3 -54.4,-616.5 32.3,-780.3 334.7,-280 612.9,-598.1 506.7,-620 -506.7,-104.7 -700,199 -986.7,285.3 -351.8,106 33.3,548 -104.5,1115 -76.7,315.3 531.2,239.7 531.2,239.7 l 21,-239.7"
         style="fill:#4476bd;fill-opacity:1;fill-rule:nonzero;stroke:none"
         id="path60" /><path
         d="m 26751,11926.4 c -20.2,110.8 -45.2,210.6 -75.6,289.7 -320,831.9 -257.4,1184.8 -137.8,1688.8 9.5,39.8 13.3,74.7 12.1,105.3 27,89.8 52.2,180.9 74.3,272.6 l -108.6,980.4 -783.1,930 c -586.9,-860 -190.8,-1930 -278.9,-2520 -88,-590 -1071.4,-1342.3 -1071.4,-1342.3 l 32,-209.3 c 43.9,-287.1 310.1,-486.6 597.8,-446.7 405.3,56.3 937,169.3 1173.6,388.8 228.9,212.5 431.7,48.1 565.6,-137.3"
         style="fill:#96cfe0;fill-opacity:1;fill-rule:nonzero;stroke:none"
         id="path62" /><path
         d="m 24611.9,12364.7 c 0,0 -434.1,-121.5 -486,-148.6 -51.9,-27.2 -80.6,-170.7 -80.6,-170.7 0,0 -248.5,-215.8 -153.3,-292.2 95.2,-76.4 265.2,-269.8 490,-179.8 137.9,55.2 244.9,562.1 335.3,566.2 90.5,4 -105.4,225.1 -105.4,225.1"
         style="fill:#f09959;fill-opacity:1;fill-rule:nonzero;stroke:none"
         id="path64" /><path
         d="m 25841.4,16306.6 c 464.6,-13.2 885.9,-850 1032.7,-1576 146.8,-726.1 301.3,-1758.2 301.3,-1758.2 0,0 -770,-607.7 -1530.8,-785.3 -663.8,-155 -1002.6,-215.5 -1002.6,-215.5 l -134.6,378.9 1588,932.7 c 0,0 -583.9,1100 -642,1930 -58,830 34.9,1103.4 388,1093.4"
         style="fill:#a2dff2;fill-opacity:1;fill-rule:nonzero;stroke:none"
         id="path66" /><path
         d="m 21519.4,15990.8 -1158.2,-232.4 -147.5,735.5 1158.2,232.5 147.5,-735.6"
         style="fill:#f5dc95;fill-opacity:1;fill-rule:nonzero;stroke:none"
         id="path68" /><path
         d="m 21503.5,15686.6 c 15.9,304.2 -134.8,719.1 -221.4,718.5 -86.7,-0.6 26.6,-271.9 -20,-451.9 -25.3,-97.5 241.4,-266.6 241.4,-266.6"
         style="fill:#f09959;fill-opacity:1;fill-rule:nonzero;stroke:none"
         id="path70" /><path
         d="m 23829.6,18386.6 c 25.8,-833.4 999.1,-769.5 1265.8,-718.1 266.7,51.4 -324.7,-1758.1 183.3,-1862.5 373,-76.7 289,506.8 703.4,467.8 183.3,-17.2 367.5,-300.6 367.5,-300.6 0,0 -27.5,174.5 -167.5,300.6 -140,126.1 -507.1,899.4 -603.6,1452.8 -96.4,553.3 -749.8,911.2 -943.1,922.2 -193.3,11.1 -666.7,-208.9 -666.7,-208.9 l -139.1,-53.3"
         style="fill:#303c60;fill-opacity:1;fill-rule:nonzero;stroke:none"
         id="path72" /><path
         d="m 25270.1,15617.4 c -13.2,0 -26.5,1.4 -40.1,4.3 -162.6,34.6 -241.4,205.5 -248.1,537.7 -5.8,284.8 41.3,650.3 91.1,1037.2 20.2,156.3 41,318 58.2,474.6 1.4,13.3 13.3,23 26.8,21.5 13.4,-1.4 23.1,-13.5 21.6,-26.9 -17.2,-156.9 -38.1,-318.9 -58.2,-475.4 -96.5,-748.7 -187.6,-1455.8 118.7,-1521.1 9.5,-2 19,-3 28.5,-3 175.9,0 334.3,342.8 426.6,676.8 3.6,12.9 17,20.5 30,16.9 13,-3.6 20.6,-17 17,-29.9 -61,-220.4 -224.9,-712.7 -472.1,-712.7"
         style="fill:#303c60;fill-opacity:1;fill-rule:nonzero;stroke:none"
         id="path74" /><path
         d="m 25205,15423.7 c -55.4,0 -103.7,21.5 -144,64 -331.8,350.8 -3.7,2110.6 10.4,2185.3 2.5,13.3 15.3,21.9 28.5,19.4 13.2,-2.5 21.9,-15.2 19.4,-28.4 -3.4,-18.1 -337.7,-1810 -22.9,-2142.8 36.6,-38.7 80,-54.1 132.5,-47.2 172.3,22.8 271.7,256.6 359.5,462.8 85.1,200.1 165.2,389.1 307.8,384.1 13.5,-0.5 24,-11.8 23.5,-25.2 -0.4,-13.4 -11.7,-24.3 -25.2,-23.5 -1.2,0.1 -2.3,0.1 -3.5,0.1 -106.9,0 -180.2,-172.3 -257.8,-354.5 -92.8,-218.3 -198.1,-465.7 -398,-492.1 -10.2,-1.3 -20.3,-2 -30.2,-2"
         style="fill:#303c60;fill-opacity:1;fill-rule:nonzero;stroke:none"
         id="path76" /><path
         d="m 25131.5,17508.4 c -68.6,-88.4 -176.1,-119.8 -240.1,-70.1 -64,49.6 -60.2,161.6 8.4,250 68.5,88.4 176,119.8 240,70.1 64,-49.6 60.3,-161.6 -8.3,-250"
         style="fill:#f09959;fill-opacity:1;fill-rule:nonzero;stroke:none"
         id="path78" /><path
         d="m 17568.8,14422.6 c 237.6,-475.2 40.9,-1022.4 -426.5,-1215.7 -470.4,-194.6 -984.8,-84.1 -1222.4,391.1 -237.6,475.1 -61.2,1044.9 394.2,1272.6 455.3,227.7 1017,27.1 1254.7,-448"
         style="fill:#303c60;fill-opacity:1;fill-rule:nonzero;stroke:none"
         id="path80" /><path
         d="m 16287.8,13149.8 c -52.4,0 -155.8,18.5 -287.2,135.2 -107.9,95.6 -185.3,242.3 -218,413 -41.4,215.5 -14.4,463.1 80,736.2 4.4,12.7 18.2,19.4 31,15 12.7,-4.4 19.4,-18.2 15,-30.9 -91.6,-264.9 -117.9,-504.1 -78.2,-711.1 30.8,-160.2 102.7,-297.2 202.5,-385.8 166.7,-147.9 278.4,-121 279.6,-120.7 12.9,3.4 26.3,-4.2 29.8,-17.1 3.5,-12.9 -3.9,-26.2 -16.8,-29.8 -1.6,-0.5 -14.8,-4 -37.7,-4"
         style="fill:#303c60;fill-opacity:1;fill-rule:nonzero;stroke:none"
         id="path82" /><path
         d="m 17014.5,12573.5 c 270.5,-60.6 611.9,-812.1 779.1,-1293.6 168.6,-485.6 454.5,-1088 641.7,-1275.1 187.1,-187.2 1417.1,-621.1 1417.1,-621.1 0,0 -3038.9,-5.9 -2976.7,0.1 62.3,6 138.8,3189.7 138.8,3189.7"
         style="fill:#a8ceff;fill-opacity:1;fill-rule:nonzero;stroke:none"
         id="path84" /><path
         d="m 18627.8,9625.1 c -166.3,23.8 -766.5,-53.5 -511,53.5 255.5,106.9 219.9,243.6 219.9,243.6 0,0 -362.5,-303 -427.8,-38 -56.4,228.4 -78,1035.1 -291.9,1843.7 -176.7,400.9 -408,802 -602.5,845.6 0,0 -6.8,-284.7 -18.1,-683.9 74.6,-883.3 201.3,-2181.1 233.4,-2508.3 402.8,-0.6 1076.9,0 1640.9,0.8 l 375.1,17.9 c 0,0 -451.6,201.3 -618,225.1"
         style="fill:#93bbf0;fill-opacity:1;fill-rule:nonzero;stroke:none"
         id="path86" /><path
         d="m 16020.2,12740 c 0,0 -860.3,-480.6 -1060.8,-582.9 -200.5,-102.2 561.8,-3102.7 731.4,-3231.3 169.5,-128.6 1662.2,-22.1 1832.1,139.9 170,162 -130.4,659.2 16.7,1654.7 147,995.6 -448.6,1855 -525.1,1853.1 -76.5,-1.9 -575.9,166.5 -575.9,166.5 h -418.4"
         style="fill:#a8ceff;fill-opacity:1;fill-rule:nonzero;stroke:none"
         id="path88" /><path
         d="m 15690.8,8925.8 c 169.5,-128.6 1237.6,-131.4 1692.3,10 51.3,16 284.3,108.8 289.7,196.1 -54.8,10.3 -272.7,-15.9 -361.1,4.5 -307.5,70.6 -476.9,451.5 -476.9,451.5 0,0 -169.3,61 -548.1,221.4 -378.8,160.4 -222.8,646.2 -231.7,860.1 -9,213.9 -374.4,913.6 -1060.7,1443.9 l -62.9,-28.2 c -49,-487.6 602.5,-3040.3 759.4,-3159.3"
         style="fill:#93bbf0;fill-opacity:1;fill-rule:nonzero;stroke:none"
         id="path90" /><path
         d="M 21601.1,11279.9 H 19529.7 L 18586.2,9272.3 H 20868 l 854,1817.3 c 41.6,88.6 -23,190.3 -120.9,190.3"
         style="fill:#75a1de;fill-opacity:1;fill-rule:nonzero;stroke:none"
         id="path92" /><path
         d="m 18709.7,9243.8 h -1246.5 c -77.3,0 -140,62.7 -140,140 0,77.3 62.7,140 140,140 h 1157.2 l 782.3,1683.7 c 32.6,70.2 115.9,100.6 186,68 70.1,-32.6 100.5,-115.8 67.9,-185.9 l -820,-1764.8 c -22.9,-49.4 -72.4,-81 -126.9,-81"
         style="fill:#3e6bab;fill-opacity:1;fill-rule:nonzero;stroke:none"
         id="path94" /><path
         d="m 16548.1,9672.6 c 540.8,-101 673.7,-225.1 968.5,-272.6 334.1,-53.9 294.4,-127.7 46.2,-127.7 -248.1,0 -871.8,-9.7 -1085.8,37.9 -214.1,47.5 71.1,362.4 71.1,362.4"
         style="fill:#f09959;fill-opacity:1;fill-rule:nonzero;stroke:none"
         id="path96" /><path
         d="m 14891.8,12100.8 c -414.4,-1325 -1001.9,-2828.5 -908.3,-2828.5 93.6,0 2473.2,-96.2 2566.8,-16.1 93.6,80.1 66.8,387.6 53.5,427.7 -13.4,40.1 -1352.9,277.8 -1352.9,277.8 0,0 176.4,343.8 243.3,1015.6 66.8,671.8 -523.8,1374.8 -602.4,1123.5"
         style="fill:#a8ceff;fill-opacity:1;fill-rule:nonzero;stroke:none"
         id="path98" /><path
         d="m 16335.3,13891.4 -333.8,-1219.9 c 0,0 564,-880.5 719.1,-802.3 155.1,78.3 -86.7,715.7 -86.7,802.3 0,86.6 241.8,980.4 241.8,980.4 l -540.4,239.5"
         style="fill:#f09959;fill-opacity:1;fill-rule:nonzero;stroke:none"
         id="path100" /><path
         d="m 16645.5,12609.3 c -7.2,28.9 -11.6,50.6 -11.6,62.2 0,86.6 241.8,980.4 241.8,980.4 l -540.4,239.5 -110.5,-403.7 c 96.5,-417 270.6,-694.7 420.7,-878.4"
         style="fill:#e38540;fill-opacity:1;fill-rule:nonzero;stroke:none"
         id="path102" /><path
         d="m 17584.4,13911.6 c 63.6,-353.7 21.7,-823.6 -292.4,-943 -314.2,-119.5 -692.5,109.1 -845.2,510.4 -152.6,401.4 -21.7,823.6 292.5,943.1 314.1,119.4 769.1,-87.9 845.1,-510.5"
         style="fill:#f09959;fill-opacity:1;fill-rule:nonzero;stroke:none"
         id="path104" /><path
         d="m 16521.3,13712.5 c 44,-123.6 5.8,-250.2 -85.4,-282.7 -91.2,-32.4 -200.9,41.5 -244.9,165.2 -44,123.6 -5.8,250.2 85.4,282.7 91.2,32.4 200.9,-41.5 244.9,-165.2"
         style="fill:#f09959;fill-opacity:1;fill-rule:nonzero;stroke:none"
         id="path106" /><path
         d="m 17588.1,14356 c -107,-830.1 -1115.5,-723.1 -1115.5,-723.1 0,0 -208,273.4 -301.6,130 -93.6,-143.4 129.8,841.6 708.5,872.6 190.2,10.2 708.6,-279.5 708.6,-279.5"
         style="fill:#303c60;fill-opacity:1;fill-rule:nonzero;stroke:none"
         id="path108" /><path
         d="m 16563,14707 c 0,-283.1 -244.6,-512.5 -546.3,-512.5 -301.6,0 -546.2,229.4 -546.2,512.5 0,283 244.6,512.5 546.2,512.5 301.7,0 546.3,-229.5 546.3,-512.5"
         style="fill:#303c60;fill-opacity:1;fill-rule:nonzero;stroke:none"
         id="path110" /><path
         d="m 14928.7,3240.6 h 124.9 l 806.6,3737.1 h -274.8 l -656.7,-3737.1"
         style="fill:#2e5b9a;fill-opacity:1;fill-rule:nonzero;stroke:none"
         id="path112" /><path
         d="m 18812.2,3240.6 h -124.9 l -938.7,3869.2 h 274.8 l 788.8,-3869.2"
         style="fill:#2e5b9a;fill-opacity:1;fill-rule:nonzero;stroke:none"
         id="path114" /><path
         d="m 16353.9,6837.7 c -500.4,0 -817.4,89.8 -1019.7,286.9 -250.7,244.3 -302.6,622.7 -303.4,1115.7 -0.6,388 -9.8,640.7 -30.8,845 -7.9,76.9 48,145.7 124.9,153.6 76.9,7.9 145.7,-48 153.6,-124.9 22,-214.2 31.7,-475.3 32.3,-873.2 0.8,-499.7 64.2,-765 218.8,-915.6 158.7,-154.6 445.5,-218.3 929.8,-206.2 467.7,11.6 789.7,77 1048.3,129.6 340.3,69.1 586.1,119.1 877.6,-20.2 69.8,-33.4 99.3,-116.9 66,-186.7 -33.4,-69.8 -117,-99.3 -186.7,-65.9 -206.9,98.8 -382.5,63.1 -701.1,-1.6 -269.5,-54.8 -604.8,-122.9 -1097.2,-135.1 -38.4,-0.9 -75.9,-1.4 -112.4,-1.4"
         style="fill:#2e5b9a;fill-opacity:1;fill-rule:nonzero;stroke:none"
         id="path116" /><path
         d="m 15217.1,9256.2 766,-31.9 -203.9,-2114.6 c 0,0 -571,364.4 -562.1,756.6 9,392.1 0,1389.9 0,1389.9"
         style="fill:#2e5b9a;fill-opacity:1;fill-rule:nonzero;stroke:none"
         id="path118" /><path
         d="m 18998.1,9059.2 c 647.6,98.3 867.7,67.3 1264.1,-670.4 396.3,-737.6 923.9,-2065.7 1227.3,-2237.3 456.9,-258.3 608.3,-891.6 795.9,-863.2 187.6,28.5 308.4,-54.4 104.2,-224.1 -204.1,-169.6 -533.8,-314.1 -646.5,-284 -112.7,30.1 -200.2,517.2 -494.6,675.3 -294.4,158.2 -205.9,288.1 -186.6,428 19.3,139.9 -859.4,783.9 -1521.9,1584.9 -404.7,489.5 -613.2,812.5 -644.1,1105.3 -30.9,292.8 102.2,485.5 102.2,485.5"
         style="fill:#f09959;fill-opacity:1;fill-rule:nonzero;stroke:none"
         id="path120" /><path
         d="m 20603.6,6384.4 c -150.4,381.6 -301.3,1011.4 -443.1,1588.8 -201.7,821.2 -413.1,1016.1 -547,1103.7 -161.9,40.6 -353.7,22 -615.4,-17.7 0,0 -133.1,-192.7 -102.2,-485.5 30.9,-292.8 239.4,-615.8 644.1,-1105.3 348.8,-421.7 757.5,-799.9 1063.6,-1084"
         style="fill:#e38540;fill-opacity:1;fill-rule:nonzero;stroke:none"
         id="path122" /><path
         d="m 19195.3,8410 c 0,0 -172.3,-1300.2 -332.8,-1432.4 -114.7,-94.5 -196,-100.8 -276.3,287 -80.2,387.8 124.8,1835.1 124.8,1835.1 l 484.3,-689.7"
         style="fill:#2e5b9a;fill-opacity:1;fill-rule:nonzero;stroke:none"
         id="path124" /><path
         d="m 19058,7706.4 -1594.8,-268 900.4,1291.1 685.2,139.5 410.9,-94.5 -401.7,-1068.1"
         style="fill:#f09959;fill-opacity:1;fill-rule:nonzero;stroke:none"
         id="path126" /><path
         d="m 21061.9,5883.5 c -51.7,-208.4 -45.5,-362.4 44.4,-439.6 89.8,-77.1 429.2,-650.7 429.2,-650.7 l 105.8,16.1 -244.9,524.8 -334.5,549.4"
         style="fill:#2e5b9a;fill-opacity:1;fill-rule:nonzero;stroke:none"
         id="path128" /><path
         d="m 21743.1,4780.2 c 112.7,-30.1 442.4,114.4 646.5,284 204.2,169.7 83.4,252.6 -104.2,224.1 -10.5,-1.6 -21,-0.9 -31.4,1.6 -93.7,-209.3 -401.9,-366.3 -501.3,-145.2 -98.6,219.1 -520.8,655.2 -690.9,748.5 0.4,-3.4 0.5,-6.7 0.1,-9.7 -19.3,-139.9 -107.8,-269.8 186.6,-428 294.4,-158.1 381.9,-645.2 494.6,-675.3"
         style="fill:#2e5b9a;fill-opacity:1;fill-rule:nonzero;stroke:none"
         id="path130" /><path
         d="m 15743,9007.1 c -565.8,-1015.4 -179.3,-1660.7 508.4,-1726.5 687.7,-65.7 1773.3,59.8 2406.1,585.7 632.9,525.8 1152.3,1081.9 1079.8,1164.8 -72.6,83 -3994.3,-24 -3994.3,-24"
         style="fill:#e38540;fill-opacity:1;fill-rule:nonzero;stroke:none"
         id="path132" /><path
         d="m 18951.7,8249.5 c 115.8,347.6 249.4,614.3 508,619.2 271.9,5 439.2,-136.4 450.8,-581.2 13.8,-529.7 32.5,-2283.9 8,-3063.9 -18.5,-590.5 153.6,-779.5 139,-1395 -10.9,-463.6 483.3,-229.4 292.4,-469.9 -131.3,-165.3 -522.1,-111.2 -762.1,-80.7 -213.9,27.2 110.7,668.2 -185.3,839.6 -254,147 -259,385.8 -98.6,566.5 160.4,180.8 17.8,715.5 -89.1,1089.9 -107,374.3 -272.9,779.3 -381.8,1664.4 -31.1,252.4 47.9,598.8 118.7,811.1"
         style="fill:#f09959;fill-opacity:1;fill-rule:nonzero;stroke:none"
         id="path134" /><path
         d="m 20180.8,3548 c -81.9,-25 -182.9,-52.6 -270.8,-55.5 -178.3,-5.9 -231.8,190.2 -243.6,456.5 -10.4,232.6 -179.3,598.9 -352.6,747.4 -3.2,-4.2 -6.4,-8.4 -9.9,-12.3 -160.4,-180.7 -155.4,-419.5 98.6,-566.5 296,-171.4 -28.6,-812.4 185.3,-839.6 240,-30.5 630.8,-84.6 762.1,80.7 124.1,156.3 -29.9,168.7 -169.1,189.3"
         style="fill:#2e5b9a;fill-opacity:1;fill-rule:nonzero;stroke:none"
         id="path136" /><path
         d="m 19344,4750.4 c 0,0 -260,-271.5 -236.2,-384.4 23.8,-112.9 103.9,-398.1 117.3,-618 13.4,-219.8 25.3,-472.2 25.3,-472.2 0,0 93.6,0 101,26.6 7.5,26.5 59.5,893.6 59.5,893.6 l -66.9,554.4"
         style="fill:#2e5b9a;fill-opacity:1;fill-rule:nonzero;stroke:none"
         id="path138" /><path
         d="m 15470.5,9099.7 c 0,0 -335.6,-1424.3 88.4,-1819.1 424,-394.8 2184.8,-39.7 2599.5,-16 280.8,16 552.6,-326.7 552.6,-326.7 0,0 -196.1,794.7 -62.4,1436.4 133.7,641.7 349.5,684.9 349.5,684.9 l -287.1,40.5 h -3240.5"
         style="fill:#75a1de;fill-opacity:1;fill-rule:nonzero;stroke:none"
         id="path140" /><path
         d="m 15394.5,9472.1 c 143.5,-304.5 -154.5,-830.4 -50.1,-981.9 104.5,-151.5 702.4,-21.2 1094.2,294.1 391.8,315.4 1133.3,384.7 1133.3,384.7 l -2177.4,303.1"
         style="fill:#a8ceff;fill-opacity:1;fill-rule:nonzero;stroke:none"
         id="path142" /><path
         d="m 16001.5,6876.9 c 1185.4,-44.5 2433.2,-23.5 2433.2,153.2 0,176.6 -53.5,301.4 -971.5,230.1 -918,-71.3 -1541.9,-169.4 -1818.2,-107 -276.3,62.4 356.5,-276.3 356.5,-276.3"
         style="fill:#2e5b9a;fill-opacity:1;fill-rule:nonzero;stroke:none"
         id="path144" /><path
         d="M 28642.9,8949.6 H 11940.7 c -71.3,0 -129.1,57.8 -129.1,129.1 v 64.5 c 0,71.3 57.8,129.1 129.1,129.1 h 16702.2 c 71.3,0 129.1,-57.8 129.1,-129.1 v -64.5 c 0,-71.3 -57.8,-129.1 -129.1,-129.1"
         style="fill:#2e5b9a;fill-opacity:1;fill-rule:nonzero;stroke:none"
         id="path146" /><path
         d="m 30862.2,13597.3 c 114.8,-404.9 -165.7,-822.1 -474.7,-909.8 -308.9,-87.6 -529.4,187.5 -644.3,592.4 -114.8,404.9 42.6,804.1 351.5,891.8 309,87.6 652.6,-169.5 767.5,-574.4"
         style="fill:#f09959;fill-opacity:1;fill-rule:nonzero;stroke:none"
         id="path148" /><path
         d="m 29129.8,5751.8 c 0,0 791.9,-1230 898.8,-1283.4 107,-53.5 374.4,-66.9 274.1,-267.4 -100.3,-200.5 -140.4,-989.3 -234,-1029.4 -93.5,-40.1 -895.7,-133.7 -775.4,0 120.4,133.7 194.4,66.8 255.1,307.5 60.7,240.6 146,695.2 32.4,788.7 -113.7,93.6 -808.8,935.9 -808.8,935.9 l 357.8,548.1"
         style="fill:#f09959;fill-opacity:1;fill-rule:nonzero;stroke:none"
         id="path150" /><path
         d="m 25144.2,5223.6 c 0,0 -962.6,-1586.5 -1140.9,-1729.1 -178.2,-142.6 -766.5,-356.6 -285.2,-392.2 481.3,-35.7 713.1,160.4 1016.1,249.6 303,89.1 677.4,142.6 534.8,374.3 -142.6,231.7 -83.4,737.6 224,1058.5 307.5,320.9 -348.8,438.9 -348.8,438.9"
         style="fill:#f09959;fill-opacity:1;fill-rule:nonzero;stroke:none"
         id="path152" /><path
         d="m 30056.5,8902.5 c 0,0 -2382.9,62.3 -3327.7,-713 -552.6,-837.9 -1889.5,-3309.9 -1993.4,-3582.3 71.3,-71.3 472.4,-200 650.7,-182.1 525.9,627 1220.9,1169.1 1497.4,1660.9 340.6,606.1 445.6,909.1 998.2,962.6 552.6,53.5 1800.4,231.7 2174.8,231.7 374.3,0 0,1622.2 0,1622.2"
         style="fill:#6791c9;fill-opacity:1;fill-rule:nonzero;stroke:none"
         id="path154" /><path
         d="m 32134.5,3098 h -124.9 l -895.7,3737.1 h 274.8 L 32134.5,3098"
         style="fill:#2e5b9a;fill-opacity:1;fill-rule:nonzero;stroke:none"
         id="path156" /><path
         d="m 28392.7,3098 h 125 l 1027.8,3869.2 h -274.8 l -878,-3869.2"
         style="fill:#2e5b9a;fill-opacity:1;fill-rule:nonzero;stroke:none"
         id="path158" /><path
         d="m 31414,9065.7 -1385.4,-239.1 c 0,0 -1841,-16.9 -2682.5,-173.7 -765.7,-142.6 -878.5,-1012.5 0,-2210.4 499,-680.5 920.9,-1223.3 1783.7,-1835.3 219.5,161.1 303.4,222.1 364.1,609.8 -62.5,85.6 -224.1,621.5 -274.3,726.4 -477.2,997.6 -1114.2,1360.4 -1123,1458.5 106.9,173.8 2833,-905.9 3375,-270.8 517.5,606.4 -57.6,1934.6 -57.6,1934.6"
         style="fill:#75a1de;fill-opacity:1;fill-rule:nonzero;stroke:none"
         id="path160" /><path
         d="m 31471.6,12202.1 c -364.9,51.3 -736.5,-18.1 -1084.1,-269.7 -303.7,-309.6 -647.3,-820.1 -626.2,-1662.2 26.7,-1069.5 -165.5,-1138.2 35,-1432.3 836.4,-345.4 2266.8,-1829.3 1930,-238.4 -244,1151.9 534.9,2010.5 -93.4,3288.3 -51.2,104 -115.1,204.9 -161.3,314.3"
         style="fill:#f37168;fill-opacity:1;fill-rule:nonzero;stroke:none"
         id="path162" /><path
         d="m 29761,9867.7 c -16.2,-557.6 -95,-721.8 -34.8,-896.6 341,-34.8 964.7,-171.3 1120.6,-389.5 178.2,-249.5 356.5,-285.2 273.3,-101 -83.2,184.2 -303,445.7 35.7,1342.9 338.6,897.2 499.1,1503.3 166.3,2127.2 L 29761,9867.7"
         style="fill:#d54a41;fill-opacity:1;fill-rule:nonzero;stroke:none"
         id="path164" /><path
         d="m 31471.6,12202.1 c -224.7,531.9 -279.9,1129.5 -279.9,1129.5 l -588.2,-173.8 c 0,0 334.2,-748.6 13.4,-1016 -68.2,-56.8 -147.4,-125.8 -229.4,-209.4 347.6,251.6 719.2,321 1084.1,269.7"
         style="fill:#f09959;fill-opacity:1;fill-rule:nonzero;stroke:none"
         id="path166" /><path
         d="m 31209.4,13190 c -34.8,31 -78.4,69.7 -124.2,110.2 l -479.8,-141.8 -1,-2.6 c 11.6,-26.5 133.8,-311.7 149.9,-586 143,86.8 299.5,228.2 478.5,475.3 -9.7,54.8 -17.4,103.7 -23.4,144.9"
         style="fill:#e38540;fill-opacity:1;fill-rule:nonzero;stroke:none"
         id="path168" /><path
         d="m 31058,12034.9 c -605.8,-211.9 -538.6,-850.2 -1096.2,-1791.5 -288.6,-487.1 -556.6,-479.8 -556.6,-479.8 0,0 -676.7,-5.5 -1495.3,94.6 -512.6,62.7 -545.1,-89.9 -188.6,-217.4 719,-257 1465.1,-533.7 2066.7,-466.9 601.6,66.9 1630.5,1601.8 1683.6,2001.4 73.4,552.6 -108.5,966.3 -413.6,859.6"
         style="fill:#f09959;fill-opacity:1;fill-rule:nonzero;stroke:none"
         id="path170" /><path
         d="m 30746.2,6695 c -37.6,0 -76.1,0.5 -115.6,1.5 -492.4,12.2 -827.7,80.3 -1097.2,135.1 -318.6,64.7 -494.2,100.4 -701.1,1.5 -69.7,-33.3 -153.3,-3.8 -186.6,66 -33.4,69.8 -3.9,153.3 65.9,186.7 291.5,139.3 537.4,89.3 877.6,20.2 258.7,-52.6 580.6,-118 1048.3,-129.6 526.7,-13 848.9,66 1013.5,248.5 147,163 190.3,434.7 136.2,855.2 -18.3,142.4 -36.6,260.8 -52.7,365.2 -45.4,293.1 -75.3,486.8 -38.3,785.3 34.4,278.3 126.8,649.5 340.6,1369.8 22,74.1 100,116.3 174.1,94.3 74.1,-22 116.4,-99.9 94.4,-174 -400.1,-1347.3 -379.8,-1478.9 -294.1,-2032.6 16.4,-106.1 35,-226.4 53.7,-372.3 65.3,-507.5 -0.2,-850.2 -206,-1078.4 C 31646.8,6802.2 31301,6695 30746.2,6695"
         style="fill:#2e5b9a;fill-opacity:1;fill-rule:nonzero;stroke:none"
         id="path172" /><path
         d="m 25209.6,3886.4 c -638.7,-312.3 -982.4,-491.4 -1187.2,-474.3 -48.3,4 -88.4,9 -122,14.2 -227.8,-134.6 -591.4,-293.7 -182.3,-324 481.3,-35.7 713.1,160.4 1016.1,249.6 303.1,89.1 677.4,142.6 534.8,374.3 -27.3,44.4 -47.2,98.9 -59.4,160.2"
         style="fill:#d54a41;fill-opacity:1;fill-rule:nonzero;stroke:none"
         id="path174" /><path
         d="m 30098.3,4442.3 c -15.7,-505.7 -85.2,-1006.8 -394.5,-1101.5 -81.9,-25.1 -156.7,-28.7 -222.8,-19.9 -48.6,-60.1 -108,-60.8 -187.7,-149.3 -120.3,-133.7 681.9,-40.1 775.4,0 93.6,40.1 133.7,828.9 234,1029.4 82.4,164.7 -83.4,203.2 -204.4,241.3"
         style="fill:#d54a41;fill-opacity:1;fill-rule:nonzero;stroke:none"
         id="path176" /><path
         d="m 27638,9243.8 h -2029.1 c -54.5,0 -104,31.6 -126.9,81 l -820,1764.8 c -32.6,70.1 -2.2,153.3 67.9,185.9 70.2,32.6 153.4,2.2 186,-68 l 782.3,-1683.7 H 27638 c 77.4,0 140,-62.7 140,-140 0,-77.3 -62.6,-140 -140,-140"
         style="fill:#75a1de;fill-opacity:1;fill-rule:nonzero;stroke:none"
         id="path178" /><path
         d="m 28062.5,9840.6 c -410,5.9 -816.6,250.3 -1018.6,214.6 -202,-35.6 -861.6,-493.1 -778.4,-511 83.2,-17.8 606.1,253.2 623.9,257.4 17.8,4.1 130.7,-187.8 410,-258.2 279.3,-70.5 2,209.3 867.7,-52.2 562.9,-170 -104.6,349.4 -104.6,349.4"
         style="fill:#f09959;fill-opacity:1;fill-rule:nonzero;stroke:none"
         id="path180" /><path
         d="m 31411.3,12687.5 60.3,-485.4 c 0,0 -530.6,-31.5 -794.6,-180.1 -264,-148.5 -653.6,-577.7 -653.6,-577.7 l 318.3,548 45.8,350.6 1023.8,344.6"
         style="fill:#f2e5de;fill-opacity:1;fill-rule:nonzero;stroke:none"
         id="path182" /><path
         d="m 31185.5,12093.3 c -394.1,73.9 -576.4,-279.2 -831.9,-855.6 -255.5,-576.4 -691.7,-1276.4 -778.4,-1366.7 -86.7,-90.2 -1461.7,0 -1461.7,0 0,0 -41.6,-398.1 0,-445.6 41.5,-47.5 279.2,-41.6 279.2,-41.6 0,0 95.1,-75.9 184.2,-136 89.2,-60.1 843.8,-173 1194.4,-155.2 350.5,17.9 671.4,47.6 718.9,101.1 47.6,53.4 1004.2,1527 1063.7,2055.9 59.4,528.8 -167.3,806 -368.4,843.7"
         style="fill:#f2e5de;fill-opacity:1;fill-rule:nonzero;stroke:none"
         id="path184" /><path
         d="m 30023.4,14517.7 c -745.3,-35.7 -628.4,-1156.9 -628.4,-1156.9 0,0 193.6,-59.8 599.1,7.1 -31.2,120.3 -17.8,427.8 -17.8,427.8 0,0 47.1,-249.6 106.9,-401.1 85.8,-39.3 182.7,-4.4 347.6,35.4 84.7,-356.2 324,-506.8 487.8,-558.3 181,-56.9 372.6,-124.7 586.5,-17.8 213.9,107 96.3,1200.3 -17.3,1420.1 -170.5,330.1 -453.9,625.4 -944.1,469.5 -245.8,-78.3 -520.3,-225.8 -520.3,-225.8"
         style="fill:#303c60;fill-opacity:1;fill-rule:nonzero;stroke:none"
         id="path186" /><path
         d="m 31319.5,13186.1 304.7,-445.1 c 0,0 -337.7,-843.8 644.4,-1226 769.2,-299.4 678.6,-826.9 331,-1357.4 -347.5,-530.5 208,-993.8 208,-993.8 0,0 84.7,587.7 832.1,698.6 1019.1,151.2 1307.6,1519.4 546.5,2203.5 -629.9,566.1 -821.5,97.3 -1247.9,605.3 -426.3,508 -1231.1,164.9 -1231.1,164.9 l -295,430.2 -92.7,-80.2"
         style="fill:#303c60;fill-opacity:1;fill-rule:nonzero;stroke:none"
         id="path188" /><path
         d="m 34536.7,10690.4 c -3.9,0 -7.9,1 -11.7,3 -11.8,6.5 -16.1,21.3 -9.6,33.1 256.8,469.4 47.2,1038.1 -58.2,1192.1 -11.1,16.3 -21.7,32.8 -32.9,50.2 -103.6,161.8 -232.5,363.1 -919.8,486.8 -164.7,29.6 -298.2,127.7 -439.6,231.5 -293.2,215.2 -625.6,459.1 -1347.6,126.9 -12.2,-5.7 -26.7,-0.3 -32.3,11.9 -5.6,12.2 -0.3,26.7 12,32.3 748.1,344.3 1092.7,91.3 1396.7,-131.9 136.7,-100.3 265.9,-195.1 419.4,-222.8 708.2,-127.5 843.5,-338.7 952.3,-508.4 10.9,-17.1 21.3,-33.3 32,-48.9 63.5,-92.9 142,-285.2 174.1,-505.5 27.9,-191 30.8,-474.1 -113.4,-737.6 -4.4,-8.1 -12.8,-12.7 -21.4,-12.7"
         style="fill:#303c60;fill-opacity:1;fill-rule:nonzero;stroke:none"
         id="path190" /><path
         d="m 31156.7,12732.8 c -48.6,0 -101.2,4.2 -157.8,12.7 -259.8,38.9 -608.3,186.6 -635.7,1016.7 -0.5,13.5 10.1,24.7 23.5,25.2 13.9,0.6 24.7,-10.1 25.2,-23.6 11.3,-343.6 79.6,-597.9 202.8,-755.9 93.8,-120.2 218.2,-188.3 391.4,-214.2 242.5,-36.4 403.4,8.6 478.1,133.7 6.9,11.5 21.9,15.3 33.4,8.4 11.6,-6.9 15.3,-21.9 8.4,-33.4 -67.4,-112.8 -191.3,-169.6 -369.3,-169.6"
         style="fill:#303c60;fill-opacity:1;fill-rule:nonzero;stroke:none"
         id="path192" /><path
         d="M 7896.73,12143.8 C 7031.69,11649.1 5828.5,9593 6082.5,9257.4 c 254.01,-335.5 1617.63,546.8 1617.63,546.8 l 196.6,2339.6"
         style="fill:#96cfe0;fill-opacity:1;fill-rule:nonzero;stroke:none"
         id="path194" /><path
         d="m 9512.85,14528.2 c -330.33,9 -207.75,254.5 -587.6,156.5 -199.7,-51.6 -52.28,-133.7 -311.71,-107 -259.45,26.8 -387.11,53.5 -419.81,-115.8 -32.71,-169.4 -48.52,-222.9 -173.3,-249.6 -124.78,-26.7 -181.13,-249.6 0,-401.1 181.14,-151.5 93.08,-213.9 52.97,-338.7 -40.1,-124.8 96.61,-133.7 170.86,-249.5 74.25,-115.9 -68.36,-137.8 38.6,-238.3 106.95,-100.4 256.97,-91.5 256.97,-91.5 l 450.26,863.3 522.76,771.7"
         style="fill:#303c60;fill-opacity:1;fill-rule:nonzero;stroke:none"
         id="path196" /><path
         d="m 16242.6,4166.1 c 0,0 481.3,-13.4 855.6,133.7 374.3,147.1 628.3,374.3 561.5,107 -66.8,-267.4 -374.3,-726.1 -641.7,-770.8 -267.4,-44.7 -361,-338.9 -508,-338.9 -147.1,0 -361,338.9 -735.3,508.2 -341.2,154.3 467.9,360.8 467.9,360.8"
         style="fill:#2e5b9a;fill-opacity:1;fill-rule:nonzero;stroke:none"
         id="path198" /><path
         d="m 12449.8,4211.2 c 0,0 202.5,-279.1 554.7,-473.3 363.8,-200.5 783.6,-297 523.3,-387.7 -260.2,-90.7 -640.8,-161.2 -1011.9,-53.4 -260.4,75.6 -565.6,91.4 -646.2,214.4 -80.6,123 94.9,431.9 21.9,893.5 -58.5,369.9 558.2,-193.5 558.2,-193.5"
         style="fill:#2e5b9a;fill-opacity:1;fill-rule:nonzero;stroke:none"
         id="path200" /><path
         d="m 10196.2,8697.8 c 0,0 2787.9,-1043.9 3012.6,-1335.8 224.6,-291.8 3155.1,-2950.2 3155.1,-3146.2 0,-196.1 -499.1,-552.7 -499.1,-552.7 0,0 -2513.4,1542 -3137.3,2326.3 -624,784.4 -2146.7,1162.5 -2956.18,1235.1 -809.52,72.7 424.88,1473.3 424.88,1473.3"
         style="fill:#3e6bab;fill-opacity:1;fill-rule:nonzero;stroke:none"
         id="path202" /><path
         d="m 10303.1,8697.8 c 0,0 1907.4,71.3 2317.4,0 410,-71.3 1309.3,-70.5 721.1,-1730.6 -461.1,-1301.2 -613.2,-2948.6 -613.2,-2948.6 l -916.8,-225.2 c 0,0 36.4,2962.3 473.8,3751 -318.5,-52.5 -903.2,-154.9 -1713.6,-386.7 C 9068.51,6727.8 8244.26,6943.1 8244.26,6943.1 l -223.83,784.4 2282.67,970.3"
         style="fill:#4476bd;fill-opacity:1;fill-rule:nonzero;stroke:none"
         id="path204" /><path
         d="m 8710.31,13622.4 -466.05,-1377 588.78,-387.7 333.66,1189.8 -456.39,574.9"
         style="fill:#a86b48;fill-opacity:1;fill-rule:nonzero;stroke:none"
         id="path206" /><path
         d="m 8885.7,12045.5 281,1002 -456.39,574.9 -170.48,-503.7 c 58.84,-454.9 200.98,-831.2 345.87,-1073.2"
         style="fill:#7a4e34;fill-opacity:1;fill-rule:nonzero;stroke:none"
         id="path208" /><path
         d="m 9899.12,13389.3 c 15.12,-418.8 -190.6,-781.3 -517.58,-813.5 -326.97,-32.3 -625.38,279.7 -666.5,696.8 -41.13,417 190.6,781.2 517.57,813.5 326.98,32.2 642.64,-35.9 666.51,-696.8"
         style="fill:#a86b48;fill-opacity:1;fill-rule:nonzero;stroke:none"
         id="path210" /><path
         d="m 8020.43,12285.5 c -1430.56,-966.1 -540.79,-2527.3 -226.66,-3668.2 267.56,-971.7 258.84,-1559 298.94,-1559 40.11,0 1023.96,147.1 1585.45,655.1 561.54,508 941.14,1000.1 941.14,1000.1 0,0 -719.4,128.1 -954.51,1058.7 -119.35,472.4 -65.09,728.9 -337.17,1477.6 -272.09,748.6 -1307.19,1035.7 -1307.19,1035.7"
         style="fill:#a2dff2;fill-opacity:1;fill-rule:nonzero;stroke:none"
         id="path212" /><path
         d="m 8020.43,12285.5 153.22,374.9 c 0,0 485.77,-320.9 679.62,-472.4 193.85,-151.5 313.43,-187.2 313.43,-187.2 0,0 70.07,-537.4 24.56,-488.6 -573.34,614.5 -1170.83,773.3 -1170.83,773.3"
         style="fill:#a2dff2;fill-opacity:1;fill-rule:nonzero;stroke:none"
         id="path214" /><path
         d="m 7386.42,3098 h 124.91 l 895.71,3737.1 h -274.8 L 7386.42,3098"
         style="fill:#2e5b9a;fill-opacity:1;fill-rule:nonzero;stroke:none"
         id="path216" /><path
         d="m 11128.1,3098 h -124.9 L 9975.42,6967.2 h 274.78 L 11128.1,3098"
         style="fill:#2e5b9a;fill-opacity:1;fill-rule:nonzero;stroke:none"
         id="path218" /><path
         d="m 8777.88,6695.1 c -500.37,0 -817.37,89.8 -1019.66,286.9 -250.77,244.3 -302.66,622.7 -303.41,1115.7 -1.58,1036.5 -58.9,1250.8 -350.7,1883.7 -32.37,70.2 -1.69,153.4 68.53,185.8 70.22,32.3 153.39,1.7 185.75,-68.6 308.43,-669 374.76,-914.9 376.42,-2000.5 0.76,-499.6 64.15,-764.9 218.79,-915.5 158.64,-154.6 445.39,-218.3 929.79,-206.2 467.7,11.6 789.64,77 1048.32,129.6 340.19,69.1 586.09,119.1 877.59,-20.2 69.8,-33.4 99.3,-116.9 65.9,-186.7 -33.3,-69.8 -116.9,-99.3 -186.6,-66 -206.9,98.9 -382.5,63.2 -701.12,-1.5 -269.46,-54.8 -604.8,-122.9 -1097.18,-135.1 -38.44,-1 -75.95,-1.4 -112.42,-1.4"
         style="fill:#2e5b9a;fill-opacity:1;fill-rule:nonzero;stroke:none"
         id="path220" /><path
         d="M 14959.2,9260 H 12930 c -77.3,0 -140,62.6 -140,140 0,77.3 62.7,140 140,140 h 1939.8 l 782.4,1683.7 c 32.6,70.1 115.8,100.6 185.9,68 70.2,-32.6 100.6,-115.8 68,-186 l -820,-1764.7 c -22.9,-49.4 -72.5,-81 -126.9,-81"
         style="fill:#3e6bab;fill-opacity:1;fill-rule:nonzero;stroke:none"
         id="path222" /><path
         d="m 8073.4,10878.9 c 0,0 356.52,-1087.4 797.71,-1537.5 441.19,-450.1 1329.09,-601.4 1607.09,-583.7 -221.6,89.1 -643.68,342.7 -813.41,1014.5 -119.35,472.4 -65.09,728.9 -337.17,1477.6 -201.98,555.7 -824.31,857.1 -1131.67,975.5 383.63,-275.6 863.28,-729.3 1010.68,-1074.6 163.61,-383.3 -1133.23,-271.8 -1133.23,-271.8"
         style="fill:#96cfe0;fill-opacity:1;fill-rule:nonzero;stroke:none"
         id="path224" /><path
         d="m 12994.2,9924.6 c 0,0 614.9,280.7 681.8,254 66.8,-26.8 748.6,-438.5 748.6,-506.7 0,-68.2 -601.6,254.2 -601.6,254.2 0,0 66.9,-178.2 26.8,-263.7 -40.1,-85.4 -502.6,-85.4 -919.8,-58.7 -417.1,26.7 64.2,320.9 64.2,320.9"
         style="fill:#a86b48;fill-opacity:1;fill-rule:nonzero;stroke:none"
         id="path226" /><path
         d="m 8093.06,11719 c -566.88,-1161.9 1377.7,-2339.7 2531.34,-2444.4 1153.7,-104.8 2524.3,272.8 2524.3,272.8 l -154.5,377.2 c 0,0 -2311.3,301.6 -2369.8,343.9 -58.5,42.2 -2323.72,1876 -2531.34,1450.5"
         style="fill:#a2dff2;fill-opacity:1;fill-rule:nonzero;stroke:none"
         id="path228" /><path
         d="m 8830.11,13583.2 c 52.55,-138.2 14.02,-281 -86.05,-319.1 -100.07,-38.1 -223.78,43.1 -276.33,181.3 -52.54,138.2 -14.01,281 86.05,319.1 100.07,38 223.79,-43.1 276.33,-181.3"
         style="fill:#a86b48;fill-opacity:1;fill-rule:nonzero;stroke:none"
         id="path230" /><path
         d="m 9899.9,14467.8 c 156.6,65.4 333,135.4 278.4,-130.7 -23.7,-115.9 0,-83.2 41.6,-190.2 41.6,-106.9 -104.8,-190.9 -152.3,-250.3 -47.6,-59.4 69.2,-124 -25.9,-195.3 -95.09,-71.3 -220.43,26.4 -309,0 -264.42,-78.9 -231.74,129.1 -380.29,172.3 -148.55,43.3 -221.36,36.6 -249.56,-58.5 -28.2,-95.1 103.99,-407.9 -8.91,-378.2 -112.9,29.7 -138.32,-222.8 -168.69,-365.5 -30.37,-142.6 -107.83,98.5 -102.82,261.6 7.68,250.2 -54.43,355.3 -146.59,425.3 -92.16,70 -131.4,706.5 314.25,730.3 445.65,23.8 448.48,66.8 638.63,107 190.14,40.2 199.8,-157.6 271.18,-127.8"
         style="fill:#303c60;fill-opacity:1;fill-rule:nonzero;stroke:none"
         id="path232" /><path
         d="m 34884.9,7199 c 284.1,-259.4 160.6,-518.9 -49.5,-1000.7 -210,-481.8 -247.1,-2260.9 -247.1,-2260.9 l 173,24.7 c 0,0 -24.7,1828.5 210,2322.7 234.8,494.2 333.6,741.2 543.6,580.6 210.1,-160.6 -630,333.6 -630,333.6"
         style="fill:#74b570;fill-opacity:1;fill-rule:nonzero;stroke:none"
         id="path234" /><path
         d="m 34728.8,7534.9 c 34.5,153.8 239.4,320.1 513.4,461.3 -40.7,-226.8 -171.3,-597.6 -36.1,-673.7 182.3,-102.5 17.7,415.2 88.1,699.7 257.3,125.7 566.9,228.4 852,279.5 -0.5,-1.1 -0.8,-2.1 -1.2,-3.2 -160.6,-407.7 -370.6,-568.3 -284.1,-630 65,-46.5 276.9,424.4 556.8,665.8 210,11.2 387.7,-17.2 492.8,-100.5 162.5,-128.6 271.6,-242.7 108.2,-634.4 -93.4,-66.7 -214.3,-114.5 -354.8,-128.6 -370.6,-37.1 -543.6,-49.4 -284.2,-173 127.1,-60.5 340,3.4 512.7,42.4 -56,-103.2 -124.9,-220 -208.5,-353.1 -53.1,-84.4 -111.6,-157.6 -173.7,-221 -119.4,-22.9 -223.6,-23.1 -278.7,0.5 -173,74.1 -617.7,308.9 -728.9,210 -108.8,-96.7 823.7,-158 759.1,-403.8 -452.1,-260.4 -969.3,-136.5 -1060.7,102.6 -122.8,321.1 -576.1,396.7 -472.2,859.5"
         style="fill:#9cd499;fill-opacity:1;fill-rule:nonzero;stroke:none"
         id="path236" /><path
         d="m 35663.2,5778.2 c -494.2,370.7 -1000.7,24.8 -1260.2,-370.6 -259.4,-395.3 -74.1,-1284.8 -74.1,-1284.8 0,0 98.8,0 98.8,37 0,37.1 -271.8,1050.1 370.7,1507.3 401.9,285.9 691.8,148.2 728.9,12.3 37,-135.9 -160.6,-383 -160.6,-383 l 296.5,481.8"
         style="fill:#74b570;fill-opacity:1;fill-rule:nonzero;stroke:none"
         id="path238" /><path
         d="m 34526.6,6540.1 c 494.2,0 654.8,-766 518.9,-1210.7 -135.9,-444.8 -321.3,-1272.5 -321.3,-1272.5 l -123.5,123.5 c 0,0 469.5,1161.3 358.3,1680.2 -111.2,518.9 -383,605.4 -432.4,605.4 -49.4,0 0,74.1 0,74.1"
         style="fill:#9cd499;fill-opacity:1;fill-rule:nonzero;stroke:none"
         id="path240" /><path
         d="m 34941.1,5325.9 c 34.7,46.1 77.7,84.1 130,109.4 -6.8,-36.9 -15.4,-72.3 -25.6,-105.9 -62,-202.7 -134.1,-484.8 -194.4,-731.9 -5.4,31.6 -13.9,80.4 -26.9,155.6 -3.1,17.8 -5.5,37.1 -7.2,57.5 48.4,164.6 94.2,344 124.1,515.3"
         style="fill:#74b570;fill-opacity:1;fill-rule:nonzero;stroke:none"
         id="path242" /><path
         d="m 35076.2,5322.2 c 938.9,395.4 444.2,937.9 1272,579.6 58.3,-25.2 129.3,-88.9 200.5,-176.6 -73.8,-20.9 -163,-36 -262.3,-21.1 -247.1,37.1 -160.6,-160.6 247.1,-210 76.8,-9.3 139.2,-22.2 191,-40.3 194.3,-373.1 281.8,-863.9 -129.2,-1034.5 -81,-33.7 -181.1,-52.9 -292.6,-60.1 -126.8,100.8 31,684.2 -164.6,603.7 -187.7,-77.4 58.9,-500.1 25.1,-606.6 -185.3,3.3 -390.5,33.6 -586.5,82.2 -77.6,43.5 -136.9,101.8 -155.1,178.4 -61.8,259.5 345.9,420.1 358.3,642.5 11.3,204.4 -149.5,-449.8 -575.4,-546.1 -385.2,179.9 -567.2,424.1 -128.3,608.9"
         style="fill:#9cd499;fill-opacity:1;fill-rule:nonzero;stroke:none"
         id="path244" /><path
         d="m 34407.1,6021.2 c 98.9,210 -160.6,259.5 -148.2,98.9 10.9,-142.4 12.2,-488.3 -133.8,-582.5 -251.7,27.3 -594.2,128.7 -853.1,283.3 -3.3,20.9 -0.1,42.4 10.9,64.4 111.2,222.4 827.7,407.7 605.4,481.8 -177.1,59.1 -487.5,-289.4 -737.6,-464.9 -150.2,114 -250.8,249.8 -250.8,401.4 0,205.3 249.4,437.6 571.9,548.7 145.2,-14.7 280,-94 490.6,-213.4 311.1,-176.3 239.1,108.8 -55,277.9 253.9,-13.1 507.1,-121.6 693.8,-380.8 0,0 -17.6,-110.8 99.6,-282.2 319.9,-467.5 -49.3,-740.4 -490.6,-722.7 25,123.2 128.7,345 196.9,490.1"
         style="fill:#9cd499;fill-opacity:1;fill-rule:nonzero;stroke:none"
         id="path246" /><path
         d="m 35633.5,5799.2 c 241.6,-186.7 509.9,-405 839.4,-553.2 329.5,-148.3 263.6,-631.5 263.6,-631.5 0,0 49.4,417.3 -225.2,560.1 -274.5,142.7 -455.7,313 -664.4,345.9 -208.6,33 -324,65.9 -324,65.9 0,0 65.9,131.8 27.5,181.2 -38.4,49.4 83.1,31.6 83.1,31.6"
         style="fill:#74b570;fill-opacity:1;fill-rule:nonzero;stroke:none"
         id="path248" /><path
         d="m 36824.3,7991.5 c -884,-236.1 -1532,-801.7 -1652.8,-939 -120.8,-137.2 -120.8,-175.7 -120.8,-175.7 l 93.4,-175.7 43.9,22 c 0,0 -71.4,148.2 115.3,340.4 322,331.5 713.8,593.1 982.9,708.4 269.1,115.3 538.1,219.6 538.1,219.6"
         style="fill:#74b570;fill-opacity:1;fill-rule:nonzero;stroke:none"
         id="path250" /><path
         d="m 34384,3098 h 337.8 c 240.2,0 434.9,194.7 434.9,434.9 v 776 h -1207.6 v -776 c 0,-240.2 194.7,-434.9 434.9,-434.9"
         style="fill:#75a1de;fill-opacity:1;fill-rule:nonzero;stroke:none"
         id="path252" /><path
         d="m 35156.7,4085.2 h -1207.6 v 85 h 1207.6 v -85"
         style="fill:#ffffff;fill-opacity:1;fill-rule:nonzero;stroke:none"
         id="path254" /><path
         d="m 35156.7,3965.2 h -1207.6 v 50 h 1207.6 v -50"
         style="fill:#ffffff;fill-opacity:1;fill-rule:nonzero;stroke:none"
         id="path256" /><path
         d="m 20059,20514.4 c 0,915.1 -736,1658.4 -1648.4,1670 -916.6,11.8 -1677.2,-726.4 -1691.8,-1642.9 -7.1,-447.4 161.8,-855.2 441.9,-1159 129,-139.9 200.6,-323.2 200.6,-513.6 v -748.7 c 0,-484.3 396.3,-880.6 880.7,-880.6 h 293.6 c 484.4,0 880.7,396.3 880.7,880.6 v 748.6 c 0,192 74,375.6 203.7,517.1 272.6,297.2 439,693.4 439,1128.5"
         style="fill:#f5dc95;fill-opacity:1;fill-rule:nonzero;stroke:none"
         id="path258" /><path
         d="m 18515.1,17585 h -252.6 c -416.7,0 -757.6,340.9 -757.6,757.6 v 644.1 c 0,163.7 -61.6,321.5 -172.7,441.9 -240.9,261.3 -386.2,612.2 -380.1,997.1 12.5,782.3 656.7,1413.5 1436.9,1413.5 6.2,0 12.4,-0.1 18.6,-0.2 784.9,-10 1418,-649.4 1418,-1436.7 0,-374.3 -143.1,-715.2 -377.6,-970.9 -111.6,-121.7 -175.3,-279.6 -175.3,-444.8 v -644 c 0,-416.7 -340.9,-757.6 -757.6,-757.6"
         style="fill:#faeeca;fill-opacity:1;fill-rule:nonzero;stroke:none"
         id="path260" /><path
         d="m 18635.7,18568.7 h -550 c -25.9,0 -47.5,19.7 -49.8,45.4 -1,10.7 -103.7,1072.4 -578.4,1369.8 -23.5,14.6 -30.5,45.5 -15.9,68.9 14.7,23.4 45.5,30.5 68.9,15.8 463.2,-290 594.8,-1184.7 620.1,-1399.9 h 452.2 c -1.8,73.8 2.4,216.4 45,400.9 56.9,246.6 196.4,618.6 537.9,990.5 18.7,20.3 50.3,21.6 70.7,3 20.3,-18.7 21.7,-50.4 3,-70.7 -624.3,-679.6 -554.8,-1361.3 -554.1,-1368.1 1.6,-14.1 -2.9,-28.3 -12.4,-38.9 -9.4,-10.7 -23,-16.7 -37.2,-16.7"
         style="fill:#94bdf2;fill-opacity:1;fill-rule:nonzero;stroke:none"
         id="path262" /><path
         d="m 17631.9,20484.8 c -33,0 -61.5,-6.1 -84.2,-19.6 -49.1,-29 -74.5,-98.9 -75.5,-207.6 -1,-115.3 24.4,-189.4 75.5,-220.4 123.4,-74.8 411.6,64.2 688.1,210.1 -223.5,119.2 -458.1,237.5 -603.9,237.5 z m 816.3,-237.8 c 274.5,-146 561.8,-285.7 688.6,-210.9 53.1,31.2 80.7,106.2 82.2,222.6 1.5,110 -22.3,180.7 -70.7,210.2 -122.6,74.6 -420.3,-73.5 -700.1,-221.9 z m 599.2,-331.5 c -185.7,0 -438.9,131.9 -705.5,274.9 -344.4,-183.4 -666,-347.9 -846,-238.8 -84.6,51.3 -125.1,151.7 -123.7,306.9 1.3,146.2 43.2,244.7 124.6,292.8 180.3,106.8 502.6,-63.6 845.3,-247.5 349.4,186.4 678.5,359.9 858.2,250.5 80.7,-49.2 120.6,-149 118.7,-296.9 -1.9,-153.8 -46.2,-257.2 -131.4,-307.5 -40.5,-23.9 -87.7,-34.4 -140.2,-34.4"
         style="fill:#94bdf2;fill-opacity:1;fill-rule:nonzero;stroke:none"
         id="path264" /><path
         d="m 18565.7,17002 h -320 c -112.8,0 -205,92.2 -205,205 v 30 c 0,112.7 92.2,205 205,205 h 320 c 112.7,0 205,-92.3 205,-205 v -30 c 0,-112.8 -92.3,-205 -205,-205"
         style="fill:#94bdf2;fill-opacity:1;fill-rule:nonzero;stroke:none"
         id="path266" /><path
         d="m 17312.8,18658.7 v -529.6 c 0,-507.3 415,-922.3 922.3,-922.3 h 307.4 c 507.3,0 922.3,415 922.3,922.3 v 529.6 h -2152"
         style="fill:#94bdf2;fill-opacity:1;fill-rule:nonzero;stroke:none"
         id="path268" /><path
         d="M 19455.7,18492 H 17349 c -66,0 -120,54 -120,120 v 13.3 c 0,66 54,120 120,120 h 2106.7 c 66,0 120,-54 120,-120 v -13.3 c 0,-66 -54,-120 -120,-120"
         style="fill:#9ec8ff;fill-opacity:1;fill-rule:nonzero;stroke:none"
         id="path270" /><path
         d="m 19463.2,18302.1 -2090.7,-258.3 c -65.5,-8.1 -125.8,38.9 -133.8,104.4 l -1.7,13.2 c -8.1,65.5 38.9,125.7 104.4,133.8 l 2090.8,258.3 c 65.5,8.1 125.7,-38.9 133.8,-104.4 l 1.6,-13.2 c 8.1,-65.5 -38.9,-125.7 -104.4,-133.8"
         style="fill:#9ec8ff;fill-opacity:1;fill-rule:nonzero;stroke:none"
         id="path272" /><path
         d="m 19463.2,17936.2 -2090.7,-258.3 c -65.5,-8.1 -125.8,38.9 -133.8,104.4 l -1.7,13.2 c -8.1,65.5 38.9,125.7 104.4,133.8 l 2090.8,258.3 c 65.5,8.1 125.7,-38.9 133.8,-104.4 l 1.6,-13.2 c 8.1,-65.5 -38.9,-125.7 -104.4,-133.8"
         style="fill:#9ec8ff;fill-opacity:1;fill-rule:nonzero;stroke:none"
         id="path274" /><path
         d="m 19334.2,17544.6 -1741.3,-215.1 c -60.1,-7.4 -115.4,35.7 -122.8,95.8 l -4.1,32.8 c -7.4,60.1 35.7,115.4 95.8,122.8 l 1741.4,215.1 c 60.1,7.4 115.3,-35.7 122.8,-95.8 l 4,-32.8 c 7.4,-60.1 -35.7,-115.4 -95.8,-122.8"
         style="fill:#9ec8ff;fill-opacity:1;fill-rule:nonzero;stroke:none"
         id="path276" /><path
         d="M 34410.6,17069.9 H 35533 c 0,-615.8 -506.7,-1122.4 -1122.4,-1122.4 -615.7,0 -1122.3,506.6 -1122.3,1122.4 0,615.7 506.6,1122.3 1122.3,1122.3 v -1122.3"
         style="fill:#9ec8ff;fill-opacity:1;fill-rule:nonzero;stroke:none"
         id="path278" /><path
         d="m 35721,17227 c 0,619.9 -502.5,1122.4 -1122.4,1122.4 V 17227 H 35721"
         style="fill:#f39892;fill-opacity:1;fill-rule:nonzero;stroke:none"
         id="path280" /><path
         d="m 33476.2,17227 c 0,-619.9 502.5,-1122.4 1122.4,-1122.4 -615.7,0 -1122.4,506.7 -1122.4,1122.4"
         style="fill:#f39892;fill-opacity:1;fill-rule:nonzero;stroke:none"
         id="path282" /><path
         d="m 34598.6,18349.4 c -619.9,0 -1122.4,-502.5 -1122.4,-1122.4 0,615.7 506.7,1122.4 1122.4,1122.4"
         style="fill:#f39892;fill-opacity:1;fill-rule:nonzero;stroke:none"
         id="path284" /><path
         d="m 34598.6,16104.6 c 619.9,0 1122.4,502.5 1122.4,1122.4 0,-615.7 -506.7,-1122.4 -1122.4,-1122.4"
         style="fill:#f39892;fill-opacity:1;fill-rule:nonzero;stroke:none"
         id="path286" /><path
         d="m 12689.6,17103 h -245.1 v 709.3 h 245.1 V 17103"
         style="fill:#9ec8ff;fill-opacity:1;fill-rule:nonzero;stroke:none"
         id="path288" /><path
         d="m 15831.6,17103 h -245.2 v 478.5 h 245.2 V 17103"
         style="fill:#9ec8ff;fill-opacity:1;fill-rule:nonzero;stroke:none"
         id="path290" /><path
         d="m 13728.5,17103 h -245.2 v 1659.5 h 245.2 V 17103"
         style="fill:#9ec8ff;fill-opacity:1;fill-rule:nonzero;stroke:none"
         id="path292" /><path
         d="m 14247.9,17103 h -245.1 v 745.9 h 245.1 V 17103"
         style="fill:#9ec8ff;fill-opacity:1;fill-rule:nonzero;stroke:none"
         id="path294" /><path
         d="m 14767.3,17103 h -245.1 v 957 h 245.1 v -957"
         style="fill:#9ec8ff;fill-opacity:1;fill-rule:nonzero;stroke:none"
         id="path296" /><path
         d="m 13209,17103 h -245.1 v 1177.6 H 13209 V 17103"
         style="fill:#9ec8ff;fill-opacity:1;fill-rule:nonzero;stroke:none"
         id="path298" /><path
         d="m 15288.5,17103 h -245.1 v 1450.4 h 245.1 V 17103"
         style="fill:#9ec8ff;fill-opacity:1;fill-rule:nonzero;stroke:none"
         id="path300" /><g
         id="g302"><g
           id="g304"
           clip-path="url(#clipPath308)"><path
             d="m 5911.18,19159.6 -1285.55,786.2 -232.53,-1488.9 c 603.92,-95.2 1202.86,187.8 1518.08,702.7"
             style="fill:#a2dff2;fill-opacity:1;fill-rule:nonzero;stroke:none"
             id="path310" /><path
             d="m 5912.53,19161.4 c 3.47,5.7 8,13.5 7.82,13.2 271.51,454.8 282.48,1019.7 33.37,1483.3 -454.93,-238.3 -184.02,-93.5 -1328.09,-712.1 1287.67,-787.5 1087.69,-666 1286.9,-784.4"
             style="fill:#9cd499;fill-opacity:1;fill-rule:nonzero;stroke:none"
             id="path312" /><path
             d="m 3212.48,20466.5 1413.15,-520.7 1325.66,716.8 c -620.09,1146.8 -2289.21,1009.2 -2738.81,-196.1"
             style="fill:#9ec8ff;fill-opacity:1;fill-rule:nonzero;stroke:none"
             id="path314" /><path
             d="m 4393.1,18456.9 232.53,1488.9 -1413.15,520.7 c -336.04,-900.9 260.4,-1864.5 1180.62,-2009.6"
             style="fill:#f39892;fill-opacity:1;fill-rule:nonzero;stroke:none"
             id="path316" /><path
             d="m 3120,20220 c 26.32,0 50.5,-6.7 71.42,-18.5 12.22,67.5 29.23,134.5 51.31,200.5 l 767.33,-282.7 -0.06,0.7 c -1.57,35 11.61,67.7 33.35,93.6 l -76.83,28.3 -688.87,253.9 c 56.52,137.5 131.69,262.6 221.94,373.2 -32.49,11.9 -59.06,34.9 -76.6,64.3 -97.44,-119.2 -178.45,-254.3 -239.12,-403 l -0.83,0.3 -17.4,-46.7 -17.54,-47 0.83,-0.3 c -24.31,-72.2 -42.94,-145.5 -56.22,-219.4 8.97,1.8 18.1,2.8 27.29,2.8"
             style="fill:#ffffff;fill-opacity:1;fill-rule:nonzero;stroke:none"
             id="path318" /><path
             d="m 5894.8,19230.1 -9.53,5.6 c -52.52,31.1 -75.34,44.6 -180.02,108.5 l -979.42,598.9 813.05,439.6 c 119.39,64.3 168.33,89.9 289.59,153.3 29.62,15.5 63.55,33.2 103.86,54.3 211.89,-429.3 198.03,-943 -37.53,-1360.2 z m -1444.46,-730.7 213.13,1364.6 554.66,-339.2 c 223.62,-136.8 351.55,-215.1 432.09,-264.2 l 191.48,-117.1 c -305.44,-463.2 -842.12,-711.7 -1391.36,-644.1 z m 1567.89,2142.5 0.83,0.5 -23.79,44 -1.49,2.6 -19.44,36.2 -0.75,-0.4 c -150,260.6 -363.88,468.5 -621.13,602.5 -251.93,131.3 -538.32,190 -828.35,169.8 -340.99,-23.6 -651.65,-151.5 -898.43,-358.3 29,-17.6 51.22,-45 63.55,-77.4 231.15,193.9 522.24,313.8 841.81,336 557.73,38.8 1071.09,-234.2 1351.77,-715 l -391.52,-211.7 c -80.83,-43.5 -193.83,-104.6 -383.01,-207 -121.2,-65.6 -273.71,-148.1 -469.04,-253.7 l -12.07,-6.6 -39.37,24.1 -2.15,-13.7 -275.72,101.6 c 0.28,-35.1 -14.03,-67.6 -36.86,-93 l 296.84,-109.4 -218.35,-1398 c -412.39,79.6 -769.21,333.2 -984.52,701.7 -128.69,220.3 -195.43,465.4 -198.44,712.2 -15.6,-5.6 -32,-8.9 -48.6,-8.9 -18.32,0 -35.51,3.4 -51.38,9.4 2.9,-264.5 74.21,-527.1 212.07,-763.1 230.55,-394.7 613.24,-665.9 1055.44,-750.1 l -0.13,-0.9 49.26,-7.8 49.52,-7.8 0.13,0.9 c 63.96,-8 128.04,-12 191.97,-12 224.84,0 447.54,49.1 654.62,145.6 265.13,123.4 487.86,316.4 646.97,559.6 l 1.01,-0.6 9.79,16 15.94,26.2 c 2.45,4 5.38,9 7.05,11.8 l 1.05,1.7 0.77,1.4 15.86,25.9 -0.72,0.5 c 255.46,449 270.02,1003.5 39.01,1465.2"
             style="fill:#e7f3fe;fill-opacity:1;fill-rule:nonzero;stroke:none"
             id="path320" /></g></g><path
         d="M 12869.3,19670.2 H 8723.67 c -45.12,0 -81.7,36.6 -81.7,81.7 v 1784 c 0,45.1 36.58,81.7 81.7,81.7 h 4145.63 c 45.1,0 81.7,-36.6 81.7,-81.7 v -1784 c 0,-45.1 -36.6,-81.7 -81.7,-81.7"
         style="fill:#9ec8ff;fill-opacity:1;fill-rule:nonzero;stroke:none"
         id="path322" /><path
         d="M 12767.2,19761.6 H 8825.79 c -36.45,0 -66,29.6 -66,66 v 1212.3 c 0,36.5 29.55,66 66,66 h 3941.41 c 36.4,0 66,-29.5 66,-66 v -1212.3 c 0,-36.4 -29.6,-66 -66,-66"
         style="fill:#ffffff;fill-opacity:1;fill-rule:nonzero;stroke:none"
         id="path324" /><path
         d="m 8951.85,21322.3 h -95.66 c -20.2,0 -36.58,16.4 -36.58,36.6 v 78.8 c 0,20.2 16.38,36.6 36.58,36.6 h 95.66 c 20.2,0 36.57,-16.4 36.57,-36.6 v -78.8 c 0,-20.2 -16.37,-36.6 -36.57,-36.6"
         style="fill:#ffffff;fill-opacity:1;fill-rule:nonzero;stroke:none"
         id="path326" /><path
         d="m 9258.77,21322.3 h -95.65 c -20.2,0 -36.58,16.4 -36.58,36.6 v 78.8 c 0,20.2 16.38,36.6 36.58,36.6 h 95.65 c 20.2,0 36.58,-16.4 36.58,-36.6 v -78.8 c 0,-20.2 -16.38,-36.6 -36.58,-36.6"
         style="fill:#ffffff;fill-opacity:1;fill-rule:nonzero;stroke:none"
         id="path328" /><path
         d="m 9565.7,21322.3 h -95.66 c -20.2,0 -36.57,16.4 -36.57,36.6 v 78.8 c 0,20.2 16.37,36.6 36.57,36.6 h 95.66 c 20.2,0 36.58,-16.4 36.58,-36.6 v -78.8 c 0,-20.2 -16.38,-36.6 -36.58,-36.6"
         style="fill:#ffffff;fill-opacity:1;fill-rule:nonzero;stroke:none"
         id="path330" /><path
         d="m 12667.4,20811.3 h -2154.6 c -35.4,0 -64.4,29 -64.4,64.5 0,35.4 29,64.4 64.4,64.4 h 2154.6 c 35.5,0 64.5,-29 64.5,-64.4 0,-35.5 -29,-64.5 -64.5,-64.5"
         style="fill:#9ec8ff;fill-opacity:1;fill-rule:nonzero;stroke:none"
         id="path332" /><path
         d="M 11046.9,19816.9 H 8892.26 c -35.46,0 -64.46,29 -64.46,64.4 0,35.5 29,64.5 64.46,64.5 h 2154.64 c 35.4,0 64.4,-29 64.4,-64.5 0,-35.4 -29,-64.4 -64.4,-64.4"
         style="fill:#9ec8ff;fill-opacity:1;fill-rule:nonzero;stroke:none"
         id="path334" /><path
         d="m 11443.8,19816.9 h -223 c -12.1,0 -22,9.9 -22,22 v 84.8 c 0,12.1 9.9,22.1 22,22.1 h 223 c 12.1,0 22,-10 22,-22.1 v -84.8 c 0,-12.1 -9.9,-22 -22,-22"
         style="fill:#9ec8ff;fill-opacity:1;fill-rule:nonzero;stroke:none"
         id="path336" /><path
         d="m 11779.9,19816.9 h -223 c -12.1,0 -22,9.9 -22,22 v 84.8 c 0,12.1 9.9,22.1 22,22.1 h 223 c 12.1,0 22,-10 22,-22.1 v -84.8 c 0,-12.1 -9.9,-22 -22,-22"
         style="fill:#9ec8ff;fill-opacity:1;fill-rule:nonzero;stroke:none"
         id="path338" /><path
         d="M 12688.2,20530.4 H 9120.15 c -24.06,0 -43.74,19.7 -43.74,43.8 0,24.1 19.68,43.7 43.74,43.7 h 3568.05 c 24,0 43.7,-19.6 43.7,-43.7 0,-24.1 -19.7,-43.8 -43.7,-43.8"
         style="fill:#9ec8ff;fill-opacity:1;fill-rule:nonzero;stroke:none"
         id="path340" /><path
         d="M 12688.2,20341.7 H 9120.15 c -24.06,0 -43.74,19.7 -43.74,43.7 0,24.1 19.68,43.8 43.74,43.8 h 3568.05 c 24,0 43.7,-19.7 43.7,-43.8 0,-24 -19.7,-43.7 -43.7,-43.7"
         style="fill:#9ec8ff;fill-opacity:1;fill-rule:nonzero;stroke:none"
         id="path342" /><path
         d="m 23452.3,20910.2 h -1840 v 1072.4 h 1383.8 c 178.2,-178.1 278.1,-278 456.2,-456.2 v -616.2"
         style="fill:#ffb8b3;fill-opacity:1;fill-rule:nonzero;stroke:none"
         id="path344" /><path
         d="m 22962.3,21982.6 v -572.4 h 490 v 110 l -459.3,459.3 -30.7,3.1"
         style="fill:#f39892;fill-opacity:1;fill-rule:nonzero;stroke:none"
         id="path346" /><path
         d="m 22996.1,21982.6 v -462.4 h 456.2 z"
         style="fill:#ffb8b3;fill-opacity:1;fill-rule:nonzero;stroke:none"
         id="path348" /><path
         d="m 22639.8,21580.2 h -820 c -17.8,0 -32.5,14.6 -32.5,32.5 0,17.9 14.7,32.5 32.5,32.5 h 820 c 17.9,0 32.5,-14.6 32.5,-32.5 0,-17.9 -14.6,-32.5 -32.5,-32.5"
         style="fill:#ffffff;fill-opacity:1;fill-rule:nonzero;stroke:none"
         id="path350" /><path
         d="m 22639.8,21413.9 h -820 c -17.8,0 -32.5,14.7 -32.5,32.5 0,17.9 14.7,32.5 32.5,32.5 h 820 c 17.9,0 32.5,-14.6 32.5,-32.5 0,-17.8 -14.6,-32.5 -32.5,-32.5"
         style="fill:#ffffff;fill-opacity:1;fill-rule:nonzero;stroke:none"
         id="path352" /><path
         d="m 22639.8,21238.9 h -820 c -17.8,0 -32.5,14.7 -32.5,32.5 0,17.9 14.7,32.5 32.5,32.5 h 820 c 17.9,0 32.5,-14.6 32.5,-32.5 0,-17.8 -14.6,-32.5 -32.5,-32.5"
         style="fill:#ffffff;fill-opacity:1;fill-rule:nonzero;stroke:none"
         id="path354" /><path
         d="m 22532.3,21900.2 c 0,-30.4 -24.6,-55 -55,-55 -30.3,0 -55,24.6 -55,55 0,30.4 24.7,55 55,55 30.4,0 55,-24.6 55,-55"
         style="fill:#3e6bab;fill-opacity:1;fill-rule:nonzero;stroke:none"
         id="path356" /><path
         d="m 15273,20545.8 -1148.2,221.8 267.5,1384.5 1148.2,-221.9 -267.5,-1384.4"
         style="fill:#fae8b6;fill-opacity:1;fill-rule:nonzero;stroke:none"
         id="path358" /><path
         d="m 15297.5,21331.7 -608.7,117.6 c -16.2,3.1 -26.9,19 -23.8,35.2 3.1,16.2 19,26.9 35.2,23.7 l 608.7,-117.6 c 16.2,-3.1 26.9,-18.9 23.8,-35.1 -3.2,-16.2 -19,-26.9 -35.2,-23.8"
         style="fill:#9ec8ff;fill-opacity:1;fill-rule:nonzero;stroke:none"
         id="path360" /><path
         d="m 15268.1,21179.5 -608.7,117.6 c -16.2,3.2 -26.9,19 -23.8,35.2 3.1,16.2 18.9,26.9 35.1,23.7 l 608.8,-117.6 c 16.2,-3.1 26.9,-18.9 23.8,-35.1 -3.2,-16.2 -19,-26.9 -35.2,-23.8"
         style="fill:#9ec8ff;fill-opacity:1;fill-rule:nonzero;stroke:none"
         id="path362" /><path
         d="m 15237.9,21023.1 -608.7,117.7 c -16.3,3.1 -26.9,18.9 -23.8,35.1 3.1,16.2 18.9,26.9 35.1,23.8 l 608.8,-117.6 c 16.2,-3.2 26.9,-19 23.7,-35.2 -3.1,-16.2 -18.9,-26.9 -35.1,-23.8"
         style="fill:#9ec8ff;fill-opacity:1;fill-rule:nonzero;stroke:none"
         id="path364" /><path
         d="m 14885.4,21966.4 c -5.2,-27.1 -31.4,-44.8 -58.5,-39.6 -27.2,5.2 -44.9,31.5 -39.7,58.6 5.3,27.1 31.5,44.8 58.6,39.6 27.1,-5.3 44.9,-31.5 39.6,-58.6"
         style="fill:#3e6bab;fill-opacity:1;fill-rule:nonzero;stroke:none"
         id="path366" /><path
         d="m 24301.5,19409.7 -1776.9,187.2 117.3,1113.8 1408.9,-148.4 c 128.6,-158.9 200.7,-247.9 329.3,-406.8 l -78.6,-745.8"
         style="fill:#9ec8ff;fill-opacity:1;fill-rule:nonzero;stroke:none"
         id="path368" /><path
         d="m 24025.6,20482.8 -1322.7,139.4 -98.9,-939.8 1644.3,-173.3 58,550.3 -321.7,33.9 41,389.5"
         style="fill:#ffffff;fill-opacity:1;fill-rule:nonzero;stroke:none"
         id="path370" /><path
         d="m 23846.3,20141.4 -856.8,90.3 c -19.6,2 -34,19.8 -31.9,39.4 2,19.7 19.8,34 39.4,32 l 856.8,-90.3 c 19.7,-2.1 34,-19.8 32,-39.5 -2.1,-19.6 -19.8,-34 -39.5,-31.9"
         style="fill:#9ec8ff;fill-opacity:1;fill-rule:nonzero;stroke:none"
         id="path372" /><path
         d="m 23826.4,19952.6 -856.8,90.2 c -19.6,2.1 -34,19.9 -31.9,39.5 2.1,19.6 19.8,34 39.4,31.9 l 856.9,-90.2 c 19.6,-2.1 33.9,-19.8 31.9,-39.5 -2.1,-19.6 -19.8,-34 -39.5,-31.9"
         style="fill:#9ec8ff;fill-opacity:1;fill-rule:nonzero;stroke:none"
         id="path374" /><path
         d="m 23805.7,19755.4 -856.8,90.3 c -19.7,2.1 -34,19.8 -32,39.5 2.1,19.6 19.8,34 39.5,31.9 l 856.8,-90.3 c 19.6,-2 34,-19.8 31.9,-39.4 -2.1,-19.6 -19.8,-34 -39.4,-32"
         style="fill:#9ec8ff;fill-opacity:1;fill-rule:nonzero;stroke:none"
         id="path376" /><path
         d="m 23361.8,20453.5 c 0,-30.3 -24.6,-55 -55,-55 -30.3,0 -55,24.7 -55,55 0,30.4 24.7,55 55,55 30.4,0 55,-24.6 55,-55"
         style="fill:#3e6bab;fill-opacity:1;fill-rule:nonzero;stroke:none"
         id="path378" /><path
         d="m 33130.6,21322.3 c 0,-338.8 -274.7,-613.5 -613.5,-613.5 -338.8,0 -613.5,274.7 -613.5,613.5 0,338.8 274.7,613.5 613.5,613.5 338.8,0 613.5,-274.7 613.5,-613.5"
         style="fill:#9cd499;fill-opacity:1;fill-rule:nonzero;stroke:none"
         id="path380" /><path
         d="m 32456.2,21112.3 -1.1,0.1 c -8.3,0.3 -16,3.9 -21.4,10.1 l -166.7,189.4 c -10.9,12.4 -9.7,31.4 2.7,42.3 12.5,11 31.4,9.7 42.4,-2.7 l 145.7,-165.6 333.4,326.3 c 11.8,11.6 30.8,11.4 42.4,-0.5 11.6,-11.8 11.4,-30.8 -0.4,-42.4 l -356,-348.4 c -5.6,-5.5 -13.2,-8.6 -21,-8.6"
         style="fill:#ffffff;fill-opacity:1;fill-rule:nonzero;stroke:none"
         id="path382" /><path
         d="m 4875.21,15627.3 h 3537 c 90.66,0 164.84,74.2 164.84,164.9 v 1263.7 c 0,90.6 -74.18,164.8 -164.84,164.8 h -3537 c -90.65,0 -164.82,-74.2 -164.82,-164.8 v -1263.7 c 0,-90.7 74.17,-164.9 164.82,-164.9"
         style="fill:#9ec8ff;fill-opacity:1;fill-rule:nonzero;stroke:none"
         id="path384" /><path
         d="m 8110.02,15867.7 v -879.1 L 7097,16001.6 c 0,0 992.42,-133.9 1013.02,-133.9"
         style="fill:#9ec8ff;fill-opacity:1;fill-rule:nonzero;stroke:none"
         id="path386" /><path
         d="M 5050.13,15785.3 H 8237.3 c 76.86,0 139.75,62.9 139.75,139.7 v 998 c 0,76.8 -62.89,139.7 -139.75,139.7 H 5050.13 c -76.86,0 -139.74,-62.9 -139.74,-139.7 v -998 c 0,-76.8 62.88,-139.7 139.74,-139.7"
         style="fill:#ffffff;fill-opacity:1;fill-rule:nonzero;stroke:none"
         id="path388" /><path
         d="m 6489.18,16746.8 h 1565.9 c 37.77,0 68.68,30.9 68.68,68.7 0,37.8 -30.91,68.7 -68.68,68.7 h -1565.9 c -37.77,0 -68.67,-30.9 -68.67,-68.7 0,-37.8 30.9,-68.7 68.67,-68.7"
         style="fill:#9ec8ff;fill-opacity:1;fill-rule:nonzero;stroke:none"
         id="path390" /><path
         d="m 5181.25,16484.2 h 2904.33 c 21,0 38.18,17.2 38.18,38.2 v 0.8 c 0,21 -17.18,38.2 -38.18,38.2 H 5181.25 c -21,0 -38.18,-17.2 -38.18,-38.2 v -0.8 c 0,-21 17.18,-38.2 38.18,-38.2"
         style="fill:#9ec8ff;fill-opacity:1;fill-rule:nonzero;stroke:none"
         id="path392" /><path
         d="m 5181.25,16334.7 h 2904.33 c 21,0 38.18,17.2 38.18,38.2 v 0.8 c 0,21 -17.18,38.2 -38.18,38.2 H 5181.25 c -21,0 -38.18,-17.2 -38.18,-38.2 v -0.8 c 0,-21 17.18,-38.2 38.18,-38.2"
         style="fill:#9ec8ff;fill-opacity:1;fill-rule:nonzero;stroke:none"
         id="path394" /><path
         d="m 31034.9,16740.6 h 185.4 c 39.2,0 70.9,31.7 70.9,70.9 v 152.6 c 0,39.2 -31.7,70.9 -70.9,70.9 h -185.4 c -39.1,0 -70.8,-31.7 -70.8,-70.9 v -152.6 c 0,-39.2 31.7,-70.9 70.8,-70.9"
         style="fill:#9ec8ff;fill-opacity:1;fill-rule:nonzero;stroke:none"
         id="path396" /><path
         d="m 30440.1,16740.6 h 185.4 c 39.2,0 70.9,31.7 70.9,70.9 v 152.6 c 0,39.2 -31.7,70.9 -70.9,70.9 h -185.4 c -39.1,0 -70.8,-31.7 -70.8,-70.9 v -152.6 c 0,-39.2 31.7,-70.9 70.8,-70.9"
         style="fill:#9ec8ff;fill-opacity:1;fill-rule:nonzero;stroke:none"
         id="path398" /><path
         d="m 29845.3,16740.6 h 185.4 c 39.2,0 70.9,31.7 70.9,70.9 v 152.6 c 0,39.2 -31.7,70.9 -70.9,70.9 h -185.4 c -39.1,0 -70.8,-31.7 -70.8,-70.9 v -152.6 c 0,-39.2 31.7,-70.9 70.8,-70.9"
         style="fill:#9ec8ff;fill-opacity:1;fill-rule:nonzero;stroke:none"
         id="path400" /></g></g></svg>
