<?xml version="1.0" encoding="UTF-8" standalone="no"?>
<!-- Created with Inkscape (http://www.inkscape.org/) -->

<svg
   version="1.1"
   id="svg2"
   xml:space="preserve"
   width="1496"
   height="1496"
   viewBox="0 0 1496 1496"
   sodipodi:docname="call.eps"
   xmlns:inkscape="http://www.inkscape.org/namespaces/inkscape"
   xmlns:sodipodi="http://sodipodi.sourceforge.net/DTD/sodipodi-0.dtd"
   xmlns="http://www.w3.org/2000/svg"
   xmlns:svg="http://www.w3.org/2000/svg"><defs
     id="defs6" /><sodipodi:namedview
     id="namedview4"
     pagecolor="#ffffff"
     bordercolor="#666666"
     borderopacity="1.0"
     inkscape:pageshadow="2"
     inkscape:pageopacity="0.0"
     inkscape:pagecheckerboard="0" /><g
     id="g8"
     inkscape:groupmode="layer"
     inkscape:label="ink_ext_XXXXXX"
     transform="matrix(1.3333333,0,0,-1.3333333,0,1496)"><g
       id="g10"
       transform="scale(0.1)"><path
         d="M 11220,0 H 0 V 11220 H 11220 V 0"
         style="fill:#ffffff;fill-opacity:1;fill-rule:nonzero;stroke:none"
         id="path12" /><path
         d="M 4324.14,4545.4 C 5454.54,3155.54 6866.79,2417.94 7541.23,2845.2 l 7.51,4.8 c 20.02,13.13 39.52,27.18 58.4,42.73 13.68,10.93 26.75,22.85 39.33,34.95 l 1.28,2.07 c 16.22,10.43 31.77,21.66 46.9,33.79 12.23,10.11 23.9,21 35.4,32.05 380.62,600.21 -837.78,1632.87 -1104.62,1423.71 L 6545,4354 l -46.9,-38.34 -57.91,-47.08 c -93.94,-76.29 -213.52,-84.34 -267.33,-18.19 l -139.26,170.94 c -108.09,232.49 -349.92,595.55 -661.97,979.26 -312.23,383.76 -618.58,694.29 -824.23,847.53 l -135.81,167.09 c -53.99,66.33 -21.55,181.75 72.26,258.09 l 17.43,14.26 40.43,32.92 74.32,60.52 68.75,55.83 9.14,7.62 c 181.57,410.46 -624.87,1579.38 -1051.61,1469.84 l -69.23,-56.41 -26.75,-21.96 -84.86,-68.91 -11.79,-9.59 -46.24,-37.65 -29.29,-23.72 -63.73,-52.08 3.14,-3.84 C 2759.26,7466.27 3194.16,5934.4 4324.14,4545.4"
         style="fill:#616e7d;fill-opacity:1;fill-rule:nonzero;stroke:none"
         id="path14" /><path
         d="m 4877.66,6993.61 c 247.83,201.69 231.19,639.28 -25.47,1010.42 -19.2,27.68 -39.47,54.86 -61.38,81.7 -314.4,386.46 -785.19,524.11 -1051.6,307.2 l -96.9,-78.64 c 426.74,109.54 1233.18,-1059.38 1051.61,-1469.84 l 183.74,149.16"
         style="fill:#aad4c8;fill-opacity:1;fill-rule:nonzero;stroke:none"
         id="path16" /><path
         d="m 7749.24,3014.8 26.87,21.82 192.77,156.75 c 266.58,216.75 228.34,704.97 -84.98,1090.13 -21.25,26.32 -43.57,51.29 -66.09,75.1 -310.41,327.21 -735.63,432.12 -984.06,230.22 l -192.76,-156.75 -15.56,-12.77 c 266.84,209.16 1485.24,-823.5 1104.62,-1423.71 l 19.19,19.21"
         style="fill:#aad4c8;fill-opacity:1;fill-rule:nonzero;stroke:none"
         id="path18" /></g></g></svg>
